<?xml version="1.0" encoding="UTF-8"?>
<svg xmlns="http://www.w3.org/2000/svg" width="116" height="43" viewBox="0 0 116 43" fill="none">
  <path fill-rule="evenodd" clip-rule="evenodd" d="M98.7661 33.6379L104.125 43H0V0H79.5103L95.2443 27.4858L90.0579 36.5508C89.9647 36.6736 89.9182 36.8141 89.9182 36.9681C89.9182 37.1242 89.9803 37.2451 90.1045 37.3386C90.2267 37.4321 90.3955 37.4791 90.6089 37.4791H95.9177C96.3814 37.4791 96.7033 37.2938 96.8917 36.9213L98.7661 33.6379ZM37.0057 36.6891C37.0057 37.2155 37.2675 37.4772 37.7923 37.4772H49.1016C51.4085 37.4772 53.4334 37.0694 55.1718 36.2483C56.9103 35.4294 58.2569 34.2769 59.2107 32.7927C60.1652 31.3069 60.6425 29.5907 60.6425 27.6428V14.8363C60.6425 12.8881 60.1652 11.1717 59.2107 9.68591C58.2569 8.20389 56.9103 7.0514 55.1718 6.23033C53.4334 5.41138 51.4085 5.0019 49.1016 5.0019H37.7923C37.2675 5.0019 37.0057 5.26312 37.0057 5.79167V36.6891ZM43.7929 31.8644C43.6086 31.8644 43.5162 31.7709 43.5162 31.5878V10.893C43.5162 10.7077 43.6086 10.6163 43.7929 10.6163H49.2868C50.7624 10.6163 51.9413 11.0939 52.8174 12.0533C53.6954 13.011 54.1329 14.2961 54.1329 15.9029V26.574C54.1028 28.1846 53.6478 29.4679 52.7717 30.4275C51.8937 31.3849 50.747 31.8644 49.3324 31.8644H43.7929ZM64.7969 36.6891C64.7969 37.2155 65.0568 37.4788 65.5827 37.4788H86.4004C86.9261 37.4788 87.1862 37.2155 87.1862 36.6891V32.6544C87.1862 32.128 86.9261 31.8644 86.4004 31.8644H71.5822C71.3979 31.8644 71.3068 31.7709 71.3068 31.5878V5.78955C71.3068 5.26311 71.0429 4.99979 70.5208 4.99979H65.5827C65.0568 4.99979 64.7969 5.26311 64.7969 5.78955V36.6891ZM26.7036 36.8278C26.8577 37.2608 27.1498 37.4791 27.5816 37.4791H32.9357C33.1504 37.4791 33.3208 37.4245 33.4441 37.3154C33.5654 37.2081 33.6274 37.0599 33.6274 36.8765C33.6274 36.7517 33.611 36.658 33.582 36.5956L23.7484 5.65144C23.5952 5.21637 23.3031 5.0019 22.8725 5.0019H16.0872C15.6564 5.0019 15.3624 5.21637 15.2092 5.65144L5.37557 36.5956C5.28445 36.8433 5.29792 37.0539 5.42313 37.2236C5.54435 37.3934 5.74511 37.4791 6.02353 37.4791H11.3781C11.8078 37.4791 12.0997 37.2608 12.2539 36.8278L13.5482 32.514C13.5772 32.36 13.6694 32.284 13.8238 32.284H25.1337C25.288 32.284 25.3804 32.36 25.4113 32.514L26.7036 36.8278ZM15.3935 27.2255C15.2092 27.2255 15.1315 27.1182 15.1635 26.8997L19.2722 12.7498C19.3314 12.6248 19.4012 12.5645 19.4789 12.5645C19.5563 12.5645 19.6098 12.6248 19.6399 12.7498L23.7961 26.8997C23.826 27.1182 23.7484 27.2255 23.564 27.2255H15.3935Z" fill="white"></path>
  <path d="M95.2441 27.4859L98.7114 21.4258C98.7385 21.301 98.7385 21.1781 98.7114 21.0533L90.0577 5.93025C89.9645 5.77437 89.918 5.63562 89.918 5.51274C89.918 5.35686 89.98 5.23207 90.1042 5.14049C90.2265 5.04679 90.3953 5.00195 90.6086 5.00195H95.9659C96.4278 5.00195 96.7517 5.18723 96.9342 5.55779L102.798 15.9499C102.86 16.0434 102.93 16.0904 103.005 16.0904C103.081 16.0904 103.137 16.0434 103.166 15.9499L109.03 5.55779C109.215 5.18723 109.538 5.00195 110 5.00195H115.309C115.522 5.00195 115.693 5.04679 115.815 5.14049C115.938 5.23207 116 5.35686 116 5.51274C116 5.63562 115.953 5.77437 115.864 5.93025L107.09 21.0533C107.059 21.1781 107.059 21.301 107.09 21.4258L115.864 36.5508C115.953 36.6737 116 36.8141 116 36.9681C116 37.1242 115.938 37.2452 115.815 37.3387C115.693 37.4322 115.522 37.4791 115.309 37.4791H110C109.538 37.4791 109.215 37.2938 109.03 36.9214L103.166 26.576C103.137 26.4825 103.081 26.4355 103.005 26.4355C102.93 26.4355 102.86 26.4825 102.798 26.576L98.7667 33.6394" fill="white"></path>
</svg>
