<?xml version="1.0" encoding="UTF-8"?>
<svg xmlns="http://www.w3.org/2000/svg" width="150" height="88" viewBox="0 0 150 88" fill="none">
  <path d="M150 0H0V88H150V0ZM101.054 51.7837L101.148 39.1734H103.74L103.638 51.7837H101.054ZM101.08 34.3129H103.876V36.9896H101.08V34.3129ZM79.996 73.4353C79.996 70.5632 82.8094 69.6709 87.0723 68.9316V67.8185C87.0723 66.4589 86.467 65.983 85.461 65.983C84.6596 65.983 83.5853 66.2634 81.9995 67.708L80.7122 66.2804C82.4685 64.5299 84.6084 63.9266 86.1942 63.9266C88.1721 63.9266 89.6811 65.1333 89.6555 67.3341L89.5788 73.7157C89.5617 74.8204 89.6811 75.1433 90.3547 75.1433C90.6531 75.1433 90.9088 75.0158 91.3436 74.7694L92.0598 76.1205C90.9344 76.8003 90.0307 77.0977 89.306 77.0977C88.1977 77.0977 87.3195 76.4944 87.2684 75.2198C86.3391 76.3159 85.1114 77.0977 83.7132 77.0977C81.3431 77.0977 79.996 75.7976 79.996 73.4353ZM59.4151 76.8173L59.4918 64.1985H61.9984C61.9984 64.8019 61.9046 66.1275 61.9046 66.2124C62.0581 66.051 63.533 63.9266 66.0225 63.9266C67.5571 63.9266 68.8274 64.6489 69.2111 66.1615C70.2171 64.9293 71.7688 63.9266 73.3716 63.9266C76.0913 63.9266 76.995 65.6856 76.9694 67.64L76.8927 76.8173H74.2838L74.335 68.0309C74.335 66.8922 73.6359 66.2634 72.6043 66.2634C71.4192 66.2634 70.2938 67.3341 69.5095 68.2603L69.4584 76.8173H66.8494L66.9006 68.0309C66.9006 66.8922 66.1674 66.2634 65.1358 66.2634C63.9593 66.2634 62.8595 67.2831 62.0751 68.2094L62.024 76.8173H59.4151ZM52.3985 76.8173L52.4923 64.1985H55.0841L54.9733 76.8173H52.3985ZM52.4156 59.355H55.2035V62.0317H52.4156V59.355ZM49.8835 51.7837H47.3087L47.4025 39.1734H49.9858L49.8835 51.7837ZM47.3258 34.3129H50.1137V36.9896H47.3258V34.3129ZM38.263 70.6056C38.263 67.2066 40.4456 63.9266 44.3418 63.9266C47.9311 63.9266 49.1247 66.5353 49.1247 69.9088C49.1247 70.1383 49.1077 70.4102 49.1077 70.6396L40.9998 70.6651C40.9486 72.6875 41.554 75.0668 44.1372 75.0668C45.2626 75.0668 46.1663 74.5655 47.0786 73.7157L48.4512 75.1858C47.0018 76.4689 45.7144 77.0977 43.8047 77.0977C40.565 77.0977 38.263 75.4152 38.263 70.6056ZM12.0382 59.8478L14.6811 59.1765L18.2108 70.8861C18.7905 72.7895 19.0207 74.319 19.0207 74.319C19.0207 74.319 19.3788 72.2372 19.7795 70.9115L23.2409 59.4484H26.1481L29.7971 70.8096C30.3939 72.6875 30.6497 74.336 30.6497 74.336C30.6497 74.336 30.7946 72.9594 31.434 70.988L35.117 59.1765L37.5469 59.7289L31.8518 76.8173H28.9445L25.1506 64.8613C24.7925 63.7822 24.5453 62.0062 24.5453 62.0062C24.5453 62.0062 24.2725 63.7822 23.9144 64.9803L20.3848 76.8173H17.4946L12.0382 59.8478ZM22.2349 17.7088C24.3663 18.0572 25.628 19.7142 25.628 21.864C25.628 25.4415 22.465 26.8436 18.8928 26.8436C17.7418 26.8436 14.4509 26.7416 14.4509 26.7416L14.6044 9.37272C14.6044 9.37272 18.1937 9.21977 19.1997 9.21977C21.783 9.21977 25.449 9.59367 25.449 13.6555C25.449 16.6806 23.1642 17.3349 22.2349 17.7088ZM28.0153 34.4148L27.8788 45.4021C27.8362 49.8293 25.2017 52.0471 20.8793 52.0471C16.463 52.0471 14.1696 49.8293 14.2037 45.3511L14.2805 34.4148H16.9404L16.8637 45.6485C16.8381 48.3507 18.2704 49.8548 20.9901 49.8548C23.8718 49.8548 25.3211 48.1043 25.3723 45.2916L25.5257 34.4148H28.0153ZM40.5223 26.0363C39.3884 26.7076 38.4847 27.022 37.76 27.022C36.6517 27.022 35.7736 26.4187 35.7224 25.1441C34.8017 26.2402 33.5654 27.022 32.1501 27.022C29.8056 27.022 28.4415 25.7219 28.4415 23.3596C28.4415 20.4874 31.255 19.5782 35.5263 18.8559V17.7343C35.5263 16.3832 34.921 15.8988 33.9149 15.8988C33.1135 15.8988 32.0308 16.1792 30.445 17.6323L29.1747 16.2047C30.931 14.4542 33.0624 13.8509 34.6482 13.8509C36.6261 13.8509 38.1352 15.049 38.1096 17.2499L38.0414 23.6315C38.0073 24.7362 38.1352 25.0676 38.8087 25.0676C39.1156 25.0676 39.3714 24.9401 39.7976 24.6937L40.5223 26.0363ZM43.08 42.6744L43.0033 51.7837H40.3944L40.4627 43.1927C40.4883 41.7397 39.7891 41.1873 38.4591 41.1873C37.3252 41.1873 36.2254 41.9946 35.2706 43.1672L35.1938 51.7837H32.585L32.6873 39.1649H35.1682C35.1512 40.0232 35.1171 40.8389 35.0915 41.1193C36.2765 39.8447 37.6322 38.893 39.3884 38.893C42.1763 38.893 43.1056 40.55 43.08 42.6744ZM52.9271 14.1313L52.8248 26.7416H50.3353C50.3609 25.8918 50.3865 25.0421 50.4121 24.7702C49.2355 26.0363 47.8714 27.022 46.1236 27.022C43.3358 27.022 42.4065 25.3395 42.4235 23.2151L42.5088 14.1313H45.1432L45.0409 22.6798C45.0153 24.1414 45.7144 24.6937 47.0444 24.6937C48.1783 24.6937 49.2867 23.8949 50.233 22.7138L50.2842 14.1313H52.9271ZM55.2375 38.8675L57.4627 45.4021C58.1618 47.4415 58.5455 49.0305 58.5455 49.0305C58.5455 49.0305 58.8951 47.7729 59.6965 45.674L62.2883 38.893L64.6243 39.5728L59.6282 51.7837H57.1217L52.6628 39.5728L55.2375 38.8675ZM67.6509 17.7088L67.5657 26.7416H64.9312L64.9824 18.0317C64.9824 16.7825 64.3259 16.1792 63.0982 16.1792C61.8108 16.1792 60.6428 17.2499 59.8329 18.1506L59.7817 26.7416H57.1473L57.2667 7.89416H59.9096C59.884 10.6049 59.9523 13.3241 59.7647 16.0348C60.7622 14.8791 62.4418 13.8509 64.0275 13.8509C66.5341 13.8509 67.6679 15.2785 67.6509 17.7088ZM72.357 38.893C75.9463 38.893 77.1484 41.4932 77.1484 44.8752C77.1484 45.1047 77.1229 45.3681 77.1229 45.5975L69.015 45.623C68.9639 47.6539 69.5691 50.0247 72.1524 50.0247C73.2863 50.0247 74.1815 49.5319 75.0852 48.6821L76.4749 50.1522C75.0256 51.4268 73.7297 52.0471 71.837 52.0471C68.5887 52.0471 66.2783 50.3816 66.2783 45.572C66.2783 42.173 68.4608 38.893 72.357 38.893ZM82.7413 26.0363C81.6074 26.7076 80.7036 27.022 79.9789 27.022C78.8791 27.022 78.001 26.4187 77.9413 25.1441C77.0206 26.2402 75.7843 27.022 74.3776 27.022C72.0245 27.022 70.669 25.7219 70.669 23.3596C70.669 20.4874 73.4739 19.5782 77.7367 18.8559V17.7343C77.7367 16.3832 77.1399 15.8988 76.1339 15.8988C75.341 15.8988 74.2498 16.1792 72.6725 17.6323L71.3851 16.2047C73.1499 14.4542 75.2813 13.8509 76.8671 13.8509C78.845 13.8509 80.3455 15.049 80.3285 17.2499L80.2518 23.6315C80.2347 24.7362 80.3455 25.0676 81.0361 25.0676C81.3345 25.0676 81.5903 24.9401 82.008 24.6937L82.7413 26.0363ZM82.9288 41.6207C83.7046 40.2441 84.6851 38.893 86.3646 38.893C86.7142 38.893 87.0467 38.944 87.3451 39.0375L86.7824 41.4422C86.5608 41.3913 86.2794 41.3403 86.0407 41.3403C85.0347 41.3403 83.9519 42.0966 83.1079 43.7706L83.0311 51.7837H80.4138L80.5161 39.1649H82.997C82.997 39.1649 82.997 40.669 82.9288 41.6207ZM95.146 14.1313L95.0523 26.7416H92.5543C92.5799 25.8918 92.6139 25.0421 92.631 24.7702C91.4544 26.0363 90.0989 27.022 88.3426 27.022C85.5547 27.022 84.6169 25.3395 84.6425 23.2151L84.7192 14.1313H87.3622L87.2684 22.6798C87.2258 24.1414 87.9419 24.6937 89.2719 24.6937C90.3973 24.6937 91.5056 23.8949 92.452 22.7138L92.5031 14.1313H95.146ZM97.5929 39.8957L96.5784 41.5187C95.8622 41.1194 94.7539 40.771 93.8416 40.771C92.6992 40.771 91.4971 41.1194 91.4971 42.3685C91.4971 44.9517 97.5162 43.7026 97.5162 48.1468C97.5162 50.6535 94.9755 52.0556 92.7503 52.0556C91.2669 52.0556 89.809 51.7582 88.6069 51.0019L89.5788 49.3024C90.4569 49.8208 91.4118 50.1692 92.5201 50.1692C93.5176 50.1692 94.7965 49.5998 94.7965 48.4017C94.7965 45.742 88.803 47.1186 88.803 42.5979C88.803 40.1421 91.1646 38.893 93.5177 38.893C94.9244 38.893 96.5613 39.2159 97.5929 39.8957ZM99.9715 63.9266C100.321 63.9266 100.654 63.9776 100.952 64.0796L100.406 66.4844C100.185 66.4334 99.8948 66.3824 99.6476 66.3824C98.6415 66.3824 97.5674 67.1302 96.7148 68.8127L96.6295 76.8173H94.0207L94.123 64.1985H96.6125C96.6125 64.1985 96.6125 65.7111 96.5357 66.6628C97.3116 65.2777 98.292 63.9266 99.9715 63.9266ZM107.355 14.8536L106.349 16.4851C105.624 16.0857 104.516 15.7289 103.603 15.7289C102.461 15.7289 101.25 16.0857 101.25 17.3349C101.25 19.9096 107.278 18.652 107.278 23.1132C107.278 25.6199 104.737 27.022 102.504 27.022C101.029 27.022 99.5709 26.7161 98.3602 25.9598L99.3407 24.2603C100.219 24.7872 101.174 25.1441 102.282 25.1441C103.28 25.1441 104.567 24.5577 104.567 23.3596C104.567 20.7084 98.5648 22.085 98.5648 17.5643C98.5648 15.1 100.926 13.8509 103.28 13.8509C104.695 13.8509 106.323 14.1738 107.355 14.8536ZM108.727 34.7122H111.336L111.319 39.1649H115.079V41.1109H111.294L111.26 48.3762C111.26 49.7018 111.993 50.0757 112.803 50.0757C113.399 50.0757 114.047 49.7273 114.499 49.4299L115.437 50.9C114.448 51.5288 113.374 52.0471 112.24 52.0471C109.776 52.0471 108.599 51.0529 108.634 48.3167L108.676 41.1109H106.622V39.1649H108.702L108.727 34.7122ZM117.347 21.2862H110.066V19.1873H117.347V21.2862ZM121.107 36.9811H118.574V34.4148H121.107V36.9811ZM125.395 36.9811H122.863V34.4148H125.395V36.9811ZM128.66 51.0784C127.535 51.7497 126.64 52.0471 125.907 52.0471C124.798 52.0471 123.912 51.4608 123.869 50.1777C122.94 51.2823 121.703 52.0471 120.297 52.0471C117.935 52.0471 116.588 50.7555 116.588 48.4017C116.588 45.521 119.393 44.6203 123.673 43.898V42.7679C123.673 41.4253 123.068 40.9494 122.053 40.9494C121.252 40.9494 120.177 41.2213 118.592 42.6744L117.321 41.2468C119.078 39.4963 121.2 38.893 122.795 38.893C124.773 38.893 126.282 40.0912 126.248 42.292L126.188 48.6821C126.154 49.7783 126.282 50.1012 126.955 50.1012C127.254 50.1012 127.518 49.9822 127.936 49.7273L128.66 51.0784ZM133.801 48.3762C133.801 49.7018 134.534 50.0757 135.336 50.0757C135.95 50.0757 136.598 49.7273 137.05 49.4299L137.979 50.9C136.99 51.5288 135.916 52.0471 134.79 52.0471C132.326 52.0471 131.15 51.0529 131.175 48.3167L131.218 41.1109H129.163V39.1649H131.244L131.269 34.7122H133.878L133.861 39.1649H137.621V41.1109H133.835L133.801 48.3762ZM123.622 48.6481L123.639 45.5211C120.45 46.0734 119.154 46.6512 119.154 48.3507C119.154 49.4979 119.87 50.1607 121.055 50.1607C121.985 50.1607 122.906 49.5319 123.622 48.6481ZM77.6941 23.6145L77.7196 20.4874C74.5311 21.0398 73.2266 21.6091 73.2266 23.3086C73.2266 24.4643 73.9513 25.1101 75.1278 25.1101C76.0657 25.1101 76.995 24.4898 77.6941 23.6145ZM72.1524 40.72C70.524 40.72 69.4157 42.343 69.194 43.8216L74.676 43.7961C74.7613 42.173 73.9939 40.72 72.1524 40.72ZM35.4752 23.6145L35.5007 20.4874C32.3122 21.0398 30.9992 21.6091 30.9992 23.3086C30.9992 24.4643 31.7324 25.1101 32.9175 25.1101C33.8382 25.1101 34.7676 24.4898 35.4752 23.6145ZM22.7634 21.8131C22.7634 19.8161 21.8597 18.8814 18.9269 18.8814H17.1877L17.1706 24.7362C17.1706 24.7362 18.3216 24.7702 19.0207 24.7702C21.1606 24.7702 22.7634 23.742 22.7634 21.8131ZM22.61 13.8509C22.61 11.2847 20.2058 11.2847 19.0548 11.2847C17.9891 11.2847 17.2389 11.3272 17.2389 11.3272L17.2132 16.8335H18.8416C21.3823 16.8335 22.61 15.6014 22.61 13.8509ZM41.1703 68.8637L46.6437 68.8297C46.7461 67.2066 45.9702 65.7621 44.1372 65.7621C42.5088 65.7621 41.4005 67.3851 41.1703 68.8637ZM82.5452 73.3928C82.5452 74.54 83.2784 75.1858 84.4634 75.1858C85.3842 75.1858 86.322 74.5655 87.0126 73.6902L87.0382 70.5631C83.8581 71.107 82.5452 71.6848 82.5452 73.3928Z" fill="white"></path>
</svg>
