<?xml version="1.0" encoding="UTF-8"?>
<svg xmlns="http://www.w3.org/2000/svg" width="335" height="175" viewBox="0 0 335 175" fill="none">
  <path d="M227.55 24.1559C222.013 17.0625 213.787 11.8335 205.195 8.00962C181.186 -2.67501 153.57 -2.683 129.61 8.06447C121.096 11.8804 112.958 17.0883 107.451 24.1559C107.451 24.1559 101.297 92.5525 163.68 131.775C164.93 132.552 166.199 133.342 167.505 134.083C233.951 95.3159 227.55 24.1559 227.55 24.1559ZM198.562 61.9057C204.984 55.8844 208.588 41.9258 197.218 41.5748C176.246 41.7915 168.385 64.3311 150.808 64.6399C128.613 63.5517 158.717 19.5283 171.926 20.0475C176.525 20.0458 171.906 29.6954 164.238 35.2334H173.869C181.569 27.9783 183.216 14.6566 172.779 14.6566C165.859 14.6566 151.352 19.142 138.91 36.5608C122.71 59.2557 133.026 74.3236 146.922 74.3236C150.839 74.3236 154.801 73.1723 158.609 71.3598C152.549 84.2498 154.448 93.9446 162.987 99.1429C171.593 103.523 182.357 100.97 191.092 94.7047C196.377 90.9437 201.986 85.3783 208.26 77.5753C207.08 80.1235 205.824 82.6376 204.449 85.0906C198.354 96.0758 190.242 105.929 180.68 114.09C176.598 117.589 172.208 120.84 167.499 123.853C166.201 123.021 164.93 122.174 163.68 121.304C132.266 100.891 115.012 60.7206 116.061 27.5207C128.074 15.1224 149.793 8.60299 167.499 8.72911C185.062 8.62233 206.053 14.883 218.296 26.8448C217.232 54.7639 206.29 72.5628 192.396 84.1592C187.349 88.0995 181.686 91.4498 175.247 91.5532C162.926 91.1394 167.204 77.1063 173.552 66.8665C181.926 53.3152 191.637 46.9591 196.371 46.9591C198.538 46.9947 198.422 49.0256 197.831 50.775C196.762 54.0072 193.411 58.6203 189.006 61.9057H198.562Z" fill="white"></path>
  <path d="M325.981 157.845C326.223 157.277 326.56 156.782 326.985 156.357C327.41 155.934 327.91 155.599 328.479 155.355C329.048 155.111 329.656 154.989 330.307 154.989C330.956 154.989 331.565 155.111 332.136 155.355C332.704 155.599 333.203 155.934 333.628 156.357C334.053 156.782 334.387 157.277 334.634 157.845C334.877 158.414 335 159.02 335 159.669C335 160.315 334.877 160.923 334.634 161.491C334.387 162.058 334.053 162.553 333.628 162.974C333.203 163.394 332.704 163.722 332.136 163.957C331.565 164.191 330.956 164.309 330.307 164.309C329.656 164.309 329.048 164.191 328.479 163.957C327.91 163.722 327.41 163.394 326.985 162.974C326.56 162.553 326.223 162.058 325.981 161.491C325.736 160.923 325.613 160.315 325.613 159.669C325.613 159.02 325.736 158.414 325.981 157.845ZM327.277 160.962C327.441 161.368 327.67 161.724 327.962 162.028C328.25 162.328 328.597 162.569 328.996 162.746C329.399 162.922 329.833 163.011 330.307 163.011C330.78 163.011 331.215 162.922 331.617 162.746C332.016 162.569 332.362 162.328 332.655 162.028C332.944 161.724 333.171 161.368 333.336 160.962C333.501 160.553 333.583 160.121 333.583 159.669C333.583 159.214 333.501 158.784 333.336 158.375C333.171 157.968 332.944 157.612 332.655 157.311C332.362 157.007 332.016 156.768 331.617 156.59C331.215 156.415 330.78 156.325 330.307 156.325C329.833 156.325 329.399 156.415 328.996 156.59C328.597 156.768 328.25 157.007 327.962 157.311C327.67 157.612 327.441 157.968 327.277 158.375C327.112 158.784 327.031 159.214 327.031 159.669C327.031 160.121 327.112 160.553 327.277 160.962ZM330.446 157.146C331.103 157.146 331.593 157.28 331.912 157.55C332.233 157.819 332.392 158.207 332.392 158.71C332.392 159.138 332.274 159.468 332.036 159.699C331.792 159.932 331.494 160.068 331.14 160.11L332.392 162.191H331.179L329.991 160.16H329.587V162.191H328.472V157.146H330.446ZM330.433 159.277C330.678 159.277 330.877 159.24 331.04 159.162C331.199 159.088 331.28 158.915 331.28 158.647C331.28 158.505 331.251 158.391 331.191 158.312C331.134 158.233 331.056 158.171 330.959 158.129C330.861 158.087 330.756 158.06 330.641 158.047C330.527 158.034 330.42 158.029 330.32 158.029H329.587V159.277H330.433Z" fill="white"></path>
  <path d="M0 167.622V162.115C0 160.165 0.776909 158.297 2.15869 156.918C3.54026 155.54 5.41602 154.766 7.3702 154.766H23.2337C25.1881 154.766 27.0628 155.54 28.4446 156.92C29.8264 158.297 30.6016 160.165 30.6016 162.113V162.702H22.8493V161.9C22.8493 161.251 22.5907 160.629 22.1308 160.168C21.6687 159.709 21.0442 159.452 20.3932 159.452H10.5042C9.85315 159.452 9.22719 159.709 8.76653 160.168L8.47305 160.461C8.01323 160.92 7.7537 161.544 7.7537 162.193V167.543C7.7537 168.193 8.01323 168.815 8.47305 169.275L8.76653 169.567C9.22719 170.026 9.85315 170.285 10.5042 170.285H20.3932C21.0442 170.285 21.6687 170.028 22.1308 169.567C22.5907 169.11 22.8493 168.486 22.8493 167.835V166.888H30.6016V167.622C30.6016 169.57 29.8264 171.44 28.4446 172.817C27.0628 174.195 25.1881 174.971 23.2337 174.971H7.3702C5.41602 174.971 3.54026 174.196 2.15869 172.817C0.776909 171.44 0 169.57 0 167.622Z" fill="white"></path>
  <path d="M55.3586 154.766V162.466H41.7322V154.766H33.9785V174.971H41.7322V167.737H55.3586V174.971H63.1125V154.766H55.3586Z" fill="white"></path>
  <path d="M67.5146 154.766H91.0258C92.5202 154.766 93.954 155.358 95.0096 156.412L95.4378 156.839C96.496 157.893 97.0888 159.323 97.0888 160.812C97.0888 162.304 96.496 163.733 95.4378 164.788L93.2412 166.977L97.8242 174.971H89.5711L85.8693 168.44H75.2692V174.971H67.5146V154.766ZM88.7916 163.36C89.1403 163.014 89.3366 162.542 89.3366 162.052V161.007C89.3366 160.517 89.1403 160.047 88.7916 159.699C88.4431 159.353 87.9719 159.158 87.4796 159.158H75.2692V163.902H87.4796C87.9719 163.902 88.4431 163.706 88.7916 163.36Z" fill="white"></path>
  <path d="M99.7285 167.622V162.113C99.7285 160.165 100.506 158.297 101.888 156.92L101.89 156.918C103.271 155.54 105.145 154.766 107.1 154.766H122.962C124.917 154.766 126.792 155.54 128.174 156.92C129.556 158.297 130.332 160.165 130.332 162.113V167.624C130.332 169.57 129.556 171.438 128.174 172.817C126.792 174.195 124.917 174.971 122.962 174.971H107.1C105.145 174.971 103.271 174.196 101.89 172.817H101.888C100.506 171.44 99.7285 169.57 99.7285 167.622ZM121.712 169.422C122.268 168.869 122.579 168.119 122.579 167.336V162.4C122.579 161.618 122.268 160.867 121.712 160.314C121.157 159.761 120.405 159.452 119.621 159.452H110.44C109.656 159.452 108.905 159.762 108.35 160.314C107.795 160.868 107.483 161.618 107.483 162.4V167.336C107.483 168.119 107.795 168.869 108.35 169.422C108.905 169.975 109.656 170.285 110.44 170.285H119.621C120.405 170.285 121.157 169.975 121.712 169.422Z" fill="white"></path>
  <path d="M159.67 154.766L152.944 169.905L146.483 154.766H134.147V174.971H141.137V159.745L147.569 174.971H157.497L164.193 159.745V174.971H171.887V154.766H159.67Z" fill="white"></path>
  <path d="M176.288 154.766V174.971H201.283V170.578H184.043V166.946H201.283V162.584H184.043V159.158H201.223V154.766H176.288Z" fill="white"></path>
  <path d="M244.889 154.766L233.055 174.971H238.017L240.836 170.051H255.52L258.342 174.971H263.716L251.88 154.766H244.889ZM248.18 157.256L253.613 166.743H242.717L248.18 157.256Z" fill="white"></path>
  <path d="M266.386 154.766H286.9C288.303 154.766 289.645 155.321 290.635 156.309L291.183 156.855C292.175 157.841 292.73 159.182 292.73 160.579C292.73 161.974 292.175 163.315 291.183 164.303L289.031 166.45L293.405 174.971H288.296L284.42 167.357H271.173V174.971H266.386V154.766ZM285.948 164.107L287.091 162.948C287.638 162.396 287.942 161.653 287.942 160.876V160.818C287.942 160.037 287.631 159.287 287.077 158.734C286.522 158.181 285.769 157.87 284.984 157.87H271.173V164.107H285.948Z" fill="white"></path>
  <path d="M296.664 169.346V169.173H301.421V169.679C301.421 170.235 301.643 170.77 302.037 171.163C302.434 171.558 302.97 171.777 303.527 171.777H315.902C316.541 171.777 317.154 171.527 317.605 171.076C318.056 170.626 318.309 170.015 318.309 169.379V168.141C318.309 167.677 318.124 167.231 317.796 166.904C317.465 166.576 317.021 166.39 316.554 166.39H302.056C300.634 166.39 299.27 165.827 298.263 164.823C297.258 163.821 296.693 162.459 296.693 161.043V160.99C296.693 159.33 297.358 157.74 298.539 156.572C299.71 155.414 301.288 154.766 302.936 154.766H317.282C318.785 154.766 320.227 155.361 321.288 156.422C322.353 157.479 322.948 158.917 322.948 160.416V160.446H318.192V160C318.192 159.442 317.97 158.909 317.575 158.514C317.18 158.12 316.645 157.9 316.087 157.9H302.892L301.479 159.303V162.087L302.506 163.082H317.731C319.152 163.082 320.517 163.645 321.523 164.649C322.53 165.651 323.096 167.012 323.096 168.432V168.747C323.096 170.405 322.431 171.996 321.25 173.165C320.079 174.321 318.501 174.971 316.854 174.971H302.305C300.8 174.971 299.356 174.371 298.299 173.306C297.251 172.253 296.664 170.83 296.664 169.346Z" fill="white"></path>
  <path d="M204.997 167.779V161.953C204.997 160.039 205.759 158.201 207.117 156.847C208.476 155.492 210.32 154.732 212.238 154.732H225.895C227.397 154.732 228.839 155.327 229.901 156.386C231.33 157.811 232.13 159.742 232.13 161.753H227.417V161.257C227.417 160.406 227.083 159.593 226.484 158.988C225.876 158.37 225.042 158.023 224.173 158.023H213.67C212.644 158.023 211.659 158.43 210.933 159.153C210.206 159.879 209.799 160.859 209.799 161.884V167.85C209.799 168.874 210.206 169.855 210.933 170.58C211.659 171.304 212.644 171.71 213.67 171.71H224.173C225.042 171.71 225.876 171.362 226.484 170.745H226.486C227.083 170.142 227.417 169.327 227.417 168.476V167.805H232.13V167.98C232.13 169.993 231.33 171.922 229.901 173.346C228.839 174.405 227.397 175 225.895 175H212.238C210.32 175 208.476 174.24 207.117 172.885C205.759 171.532 204.997 169.695 204.997 167.779Z" fill="white"></path>
</svg>
