<?xml version="1.0" encoding="UTF-8"?>
<svg xmlns="http://www.w3.org/2000/svg" width="330" height="173" viewBox="0 0 330 173" fill="none">
  <path d="M327.385 67.3015C329.184 65.5893 330 63.5456 330 60.9345C330 58.565 329.184 56.4406 327.385 54.6427C325.508 52.8458 323.459 51.9478 321.005 51.9478C318.467 51.9478 316.256 52.8458 314.622 54.6427C312.823 56.4406 312.01 58.565 312.01 60.9345C312.01 63.5456 312.823 65.5893 314.622 67.3015C316.256 69.0998 318.467 69.9987 321.005 69.9987C323.459 69.9987 325.508 69.0998 327.385 67.3015ZM326.648 55.296C328.12 56.7671 328.935 58.6457 328.935 60.9345C328.935 63.1386 328.12 65.0976 326.648 66.569C325.091 68.1201 323.211 68.8537 321.005 68.8537C318.71 68.8537 316.835 68.1201 315.28 66.569C313.801 65.0976 312.988 63.1386 312.988 60.9345C312.988 58.6457 313.801 56.7671 315.28 55.296C316.835 53.7449 318.71 53.0083 321.005 53.0083C323.211 53.0083 325.091 53.7449 326.648 55.296Z" fill="white"></path>
  <path d="M189.87 60.2791C189.87 57.4221 188.968 54.8874 187.172 52.9294C185.285 50.8858 182.998 49.8252 180.135 49.8252C177.351 49.8252 174.982 50.8858 173.096 52.9294C171.218 54.8874 170.316 57.4221 170.316 60.2791V116.638C170.316 119.497 171.218 122.03 173.096 123.989C174.982 126.034 177.351 127.093 180.135 127.093C182.998 127.093 185.285 126.034 187.172 123.989C188.968 122.03 189.87 119.497 189.87 116.638V60.2791Z" fill="white"></path>
  <path d="M236.09 75.2259C234.7 76.0452 233.474 77.1045 232.656 78.3327C229.872 75.2259 226.108 73.4289 221.446 72.8575C217.19 72.2878 213.021 72.941 209.091 74.5738C204.592 76.3713 200.913 79.3094 197.97 83.5614C194.943 87.6438 193.224 92.1365 192.817 96.873C191.832 107.005 195.511 115.332 203.774 121.948C207.214 124.805 211.138 126.526 215.475 126.932C219.894 127.503 224.064 126.689 228.153 124.646C229.627 123.989 231.101 123.093 232.656 121.785L235.107 124.236L235.928 124.805C237.481 126.034 239.282 126.689 241.324 126.689C243.863 126.689 245.986 125.791 247.707 123.908C249.344 122.195 250.158 119.905 250.158 117.13V83.3142C250.158 80.7031 249.344 78.4949 247.707 76.7779C245.986 74.9839 243.863 74.0013 241.324 74.0013C239.199 74.0013 237.481 74.4075 236.09 75.2259ZM232.656 99.9772C232.656 103.163 231.51 105.857 229.3 108.065C227.007 110.35 224.311 111.414 221.202 111.414C218.012 111.414 215.228 110.35 212.941 108.065C210.648 105.857 209.501 103.163 209.501 99.9772C209.501 96.873 210.648 94.0142 212.941 91.7265C215.228 89.4407 218.012 88.3777 221.202 88.3777C224.311 88.3777 227.007 89.4407 229.3 91.7265C231.51 94.0142 232.656 96.873 232.656 99.9772Z" fill="white"></path>
  <path d="M278.217 65.5058C278.217 62.8108 277.399 60.6865 275.768 58.9692C274.047 57.0955 271.923 56.1968 269.385 56.1968C266.849 56.1968 264.719 57.0955 263.086 58.9692C261.447 60.6865 260.631 62.8108 260.631 65.5058V117.7C260.631 120.312 261.447 122.522 263.086 124.32C264.719 126.197 266.849 127.093 269.385 127.093C271.923 127.093 274.047 126.197 275.768 124.32C277.399 122.522 278.217 120.312 278.217 117.7V65.5058Z" fill="white"></path>
  <path d="M306.933 65.5058C306.933 62.8108 306.117 60.6865 304.562 58.9692C302.926 57.0955 300.799 56.1968 298.261 56.1968C295.646 56.1968 293.603 57.0955 291.883 58.9692C290.249 60.6865 289.426 62.8108 289.426 65.5058V117.7C289.426 120.312 290.249 122.522 291.883 124.32C293.603 126.197 295.646 127.093 298.261 127.093C300.799 127.093 302.926 126.197 304.562 124.32C306.117 122.522 306.933 120.312 306.933 117.7V65.5058Z" fill="white"></path>
  <path d="M313.642 74.6555C311.924 73.02 309.716 72.2046 306.933 72.2046H260.632C258.014 72.2046 255.804 73.02 253.924 74.6555C252.124 76.2883 251.223 78.3322 251.223 80.8656C251.223 83.4778 252.124 85.6014 253.924 87.1503C255.804 88.7841 258.014 89.6044 260.632 89.6044H306.933C309.716 89.6044 311.924 88.7841 313.642 87.1503C315.443 85.6014 316.424 83.4778 316.424 80.8656C316.424 78.3322 315.443 76.2883 313.642 74.6555Z" fill="white"></path>
  <path d="M159.766 62.8922C159.192 60.4417 157.802 58.5638 155.675 57.0925C150.034 53.2516 146.022 50.8867 143.404 49.9876C136.533 47.5366 129.577 46.8808 122.707 48.109C115.59 49.3347 109.371 52.2734 103.973 57.0118C98.4922 61.667 94.7295 67.3046 92.518 73.9216C90.3954 80.292 89.8241 87.0694 90.9648 94.3406C92.0286 100.791 94.9758 106.838 99.7993 112.471C104.547 118.109 109.946 122.114 116.327 124.642C122.95 127.175 129.906 127.746 137.188 126.279C144.468 124.891 150.685 121.867 155.84 117.13C165.573 107.898 169.256 97.7693 166.966 86.6631C166.555 84.7847 165.493 83.1492 163.854 81.9238C162.3 80.7818 160.42 80.1257 158.212 80.1257H136.451C133.914 80.1257 131.789 80.9449 129.988 82.5796C128.273 84.0481 127.452 86.0901 127.452 88.5407C127.452 90.9101 128.273 92.951 129.988 94.4202C131.789 95.9752 133.914 96.7101 136.451 96.7101H148.23C148.395 96.7101 148.641 96.9528 148.802 97.3629C148.966 97.6875 148.966 98.0978 148.802 98.4261C147.741 101.12 146.022 103.569 143.815 105.614C141.439 107.655 138.824 108.961 136.041 109.697C131.95 110.84 127.777 110.516 123.607 108.795C119.681 107.248 116.406 104.551 113.872 100.877C111.503 97.5242 110.11 93.6855 109.535 89.2756C109.046 84.7847 109.702 80.7021 111.503 77.2685C112.972 74.5717 114.936 72.2868 117.309 70.2442C119.927 68.1198 122.625 66.7321 125.408 65.9962C131.624 64.283 138.416 66.076 145.779 71.4688C147.902 72.9392 150.195 73.5924 152.649 73.3513C155.104 73.0197 156.983 71.7964 158.455 69.6746C159.849 67.631 160.256 65.3434 159.766 62.8922Z" fill="white"></path>
  <path d="M166.555 53.3354C159.849 37.4897 149.456 24.6658 135.225 14.9475C120.581 4.98151 104.382 0 86.5476 0C62.5793 0 42.2081 8.41121 25.3553 25.2364C8.42103 42.147 0 62.4845 0 86.4167C0 110.351 8.42103 130.771 25.3553 147.678C42.2081 164.506 62.5793 173 86.5476 173C104.382 173 120.581 168.017 135.225 158.054C149.456 148.331 159.849 135.429 166.555 119.497C160.502 131.262 151.91 140.656 140.541 147.678C129.006 154.945 116.326 158.46 102.503 158.46C82.6183 158.46 65.6051 151.435 51.5362 137.305C37.4632 123.258 30.3495 106.263 30.3495 86.4167C30.3495 66.4862 37.4632 49.4958 51.5362 35.4461C65.6051 21.4801 82.6183 14.4559 102.503 14.4559C116.162 14.4559 128.844 18.0497 140.541 25.2364C151.91 32.2625 160.502 41.6562 166.555 53.3354Z" fill="white"></path>
  <path d="M143.157 34.5493C151.913 39.5306 158.948 46.3941 164.346 54.9694C158.537 43.5358 150.274 34.388 139.312 27.6053C128.187 20.5814 115.916 17.0693 102.499 17.0693C83.2751 17.0693 66.9158 23.8488 53.4183 37.3257C39.9204 50.8868 33.126 67.3037 33.126 86.4184C33.126 105.614 39.9204 121.952 53.4183 135.426C66.9158 148.985 83.2751 155.766 102.499 155.766C115.916 155.766 128.187 152.256 139.312 145.229C150.274 138.448 158.537 129.301 164.346 117.946C158.948 126.607 151.913 133.389 143.157 138.369C133.996 143.513 124.179 146.209 113.707 146.209C97.1016 146.209 83.0316 140.327 71.4173 128.648C59.7136 117.047 53.826 103 53.826 86.4184C53.826 69.9987 59.7136 55.8683 71.4173 44.3503C83.0316 32.5901 97.1016 26.7902 113.707 26.7902C124.179 26.7902 133.996 29.4033 143.157 34.5493Z" fill="white"></path>
  <path d="M162.22 56.3591C157.147 48.1092 150.356 41.6564 141.928 36.9178C133.178 31.8554 123.771 29.4048 113.707 29.4048C97.9195 29.4048 84.4187 34.9584 73.2141 46.1491C62.0067 57.1775 56.4473 70.6545 56.4473 86.4169C56.4473 102.182 62.0067 115.659 73.2141 126.769C84.4187 137.877 97.9195 143.434 113.707 143.434C123.771 143.434 133.178 140.981 141.928 136.083C150.356 131.177 157.147 124.642 162.22 116.479C157.394 123.258 151.338 128.567 143.896 132.405C136.369 136.407 128.27 138.368 119.68 138.368C105.282 138.368 93.0898 133.303 82.8643 123.175C72.6427 113.045 67.6518 100.792 67.6518 86.4169C67.6518 72.1212 72.6427 59.8692 82.8643 49.6616C93.0898 39.4485 105.282 34.4668 119.68 34.4668C128.27 34.4668 136.369 36.429 143.896 40.351C151.338 44.3532 157.394 49.6616 162.22 56.3591Z" fill="white"></path>
  <path d="M319.122 61.9936H320.84L323.459 66.3234H325.258L322.397 61.9131C324.193 61.6692 325.091 60.6877 325.091 59.1366C325.091 57.1775 323.866 56.1948 321.411 56.1948H317.65V66.3234H319.122V61.9936ZM319.122 60.4418V57.5846H321.33C322.722 57.5846 323.459 57.9929 323.459 58.9724C323.459 59.9517 322.641 60.4418 321.17 60.4418H319.122Z" fill="white"></path>
</svg>
