<?xml version="1.0" encoding="UTF-8"?>
<svg xmlns="http://www.w3.org/2000/svg" width="222" height="59" viewBox="0 0 222 59" fill="none">
  <path d="M28.6053 27.9142L30.422 34.704H35.7207V46.4726C34.5853 47.0007 32.3144 47.3779 29.211 47.3779C19.4459 47.3779 12.7848 41.0409 12.7848 30.3284C12.7848 19.3894 19.9003 13.4297 29.968 13.4297C34.9641 13.4297 38.1431 14.335 40.7169 15.4666L42.6093 8.52597C40.4141 7.46979 35.8723 6.33817 30.0437 6.33817C14.3746 6.33817 3.70117 15.8438 3.70117 30.7811C3.70117 37.8726 6.12345 44.0587 10.3627 48.0571C14.8286 52.3571 20.8843 54.3188 28.9082 54.3188C35.1911 54.3188 41.0952 52.81 44.1233 51.6784V27.9147L28.6053 27.9142ZM195.139 39.3056C195.366 45.4918 200.135 48.132 205.66 48.132C209.596 48.132 212.473 47.5285 215.122 46.5478L216.409 52.5075C213.457 53.7146 209.445 54.6953 204.449 54.6953C193.398 54.6953 186.888 47.8303 186.888 37.4194C186.888 27.9893 192.64 19.1626 203.616 19.1626C214.744 19.1626 218.302 28.291 218.302 35.684C218.302 37.2683 218.15 38.5508 217.999 39.3052L195.139 39.3056ZM210.127 33.2703C210.127 30.1017 208.764 24.9719 203.011 24.9719C197.712 24.9719 195.517 29.8 195.063 33.2703H210.127ZM165.919 34.7791H166.07C166.903 33.4212 167.887 31.9878 168.795 30.7807L177.122 19.8418H187.492L174.851 33.7982L189.309 53.9408H178.711L168.871 38.9283L165.994 42.3985V54.0164H157.365V4.30149H165.919L165.919 34.7791ZM154.413 52.8851C152.596 53.7149 149.038 54.6202 144.8 54.6202C134.126 54.6202 127.163 47.7552 127.163 37.1934C127.163 27.0089 134.127 19.0878 146.162 19.0878C149.342 19.0878 152.521 19.7668 154.489 20.6721L152.975 27.1599C151.612 26.4809 149.493 25.8019 146.465 25.8019C139.88 25.8019 135.944 30.63 136.019 36.8161C136.019 43.832 140.637 47.8303 146.541 47.8303C149.493 47.8303 151.612 47.2268 153.353 46.4724L154.413 52.8851ZM124.059 10.335C124.059 12.9 122.166 15.0122 119.138 15.0122C116.262 15.0122 114.369 12.9753 114.369 10.335C114.369 7.69458 116.338 5.65779 119.214 5.65779C122.166 5.73322 123.983 7.69469 124.058 10.335M114.899 19.9159H123.528V53.9397H114.899V19.9159ZM78.2619 30.0248C78.2619 26.102 78.1105 22.8578 77.9591 19.9159H85.5289L85.9831 25.0459H86.2102C87.7241 22.4055 91.4331 19.1614 97.1104 19.1614C103.09 19.1614 109.222 23.009 109.222 33.7215V53.9397H100.592V34.7024C100.592 29.7987 98.7757 26.102 94.0827 26.102C90.6763 26.102 88.2541 28.5161 87.3457 31.1565C87.0429 31.8355 86.9672 32.8916 86.9672 33.8724V53.9397H78.3377V30.0248L78.2619 30.0248ZM72.9631 10.3346C72.9631 12.8996 71.0707 15.0119 68.0428 15.0119C65.1663 15.0119 63.2739 12.975 63.2739 10.3346C63.2739 7.69421 65.242 5.65742 68.1183 5.65742C71.0705 5.73285 72.8876 7.69432 72.9631 10.3346ZM63.8034 19.9155H72.4329V53.9393H63.8034V19.9155ZM49.2698 4.29932H57.8993V53.9404H49.2698V4.29932Z" fill="white"></path>
</svg>
