<?xml version="1.0" encoding="UTF-8"?>
<svg xmlns="http://www.w3.org/2000/svg" width="240" height="57" viewBox="0 0 240 57" fill="none">
  <path d="M74.113 36.0906L68.627 28.3634L73.7346 20.9102H72.2591L67.5118 27.8632H65.9144V20.9102H64.749V36.0906H65.9144V28.9806H67.5855L72.6592 36.0906H74.113ZM76.9618 36.0906H84.28V34.984H78.1415V20.9102H76.9618V36.0906ZM93.9918 30.7299H89.0795L91.5355 22.5898L93.9918 30.7299ZM95.6178 36.0906H96.8368L92.0896 20.9102H91.003L86.2557 36.0906H87.4712L88.7406 31.8473H94.3288L95.6178 36.0906ZM107.929 25.4675C107.929 26.5304 107.66 27.3519 107.124 27.9289C106.588 28.5134 105.83 28.8017 104.845 28.8017H101.683V22.0387H104.856C105.817 22.0387 106.57 22.3452 107.113 22.9516C107.657 23.5651 107.929 24.405 107.929 25.4675ZM107.995 28.7615C108.725 27.991 109.093 26.8846 109.093 25.4457C109.093 24.0323 108.714 22.926 107.958 22.1188C107.201 21.3154 106.163 20.9102 104.845 20.9102H100.516V36.0906H101.683V29.9156H104.826C106.202 29.9156 107.26 29.5322 107.995 28.7615ZM119.817 25.4675C119.817 26.5304 119.55 27.3519 119.014 27.9289C118.478 28.5134 117.718 28.8017 116.737 28.8017H113.573V22.0387H116.744C117.704 22.0387 118.46 22.3452 119.003 22.9516C119.543 23.5651 119.817 24.405 119.817 25.4675ZM119.883 28.7615C120.615 27.991 120.982 26.8846 120.982 25.4457C120.982 24.0323 120.604 22.926 119.844 22.1188C119.091 21.3154 118.051 20.9102 116.737 20.9102H112.404V36.0906H113.573V29.9156H116.715C118.089 29.9156 119.15 29.5322 119.883 28.7615ZM128.466 28.6666H125.353V22.0387H128.251C129.236 22.0387 130 22.3271 130.545 22.9114C131.09 23.4956 131.363 24.3209 131.363 25.3837C131.363 26.3404 131.101 27.1292 130.574 27.7427C130.051 28.3596 129.348 28.6666 128.466 28.6666ZM131.822 36.0906H133.073V35.9517L129.972 29.503C130.753 29.2179 131.381 28.7031 131.847 27.9654C132.309 27.2241 132.539 26.3623 132.539 25.3837C132.539 23.9777 132.166 22.8822 131.42 22.0934C130.671 21.3083 129.62 20.9102 128.265 20.9102H124.179V36.0906H125.353V29.7692H128.835L131.822 36.0906ZM144.364 30.1491C144.364 31.8216 144.056 33.0742 143.439 33.9103C142.823 34.7429 141.919 35.1594 140.732 35.1594C139.581 35.1594 138.677 34.7429 138.028 33.9068C137.383 33.0669 137.06 31.8144 137.06 30.1491V26.7493C137.071 25.1206 137.401 23.9045 138.039 23.083C138.685 22.2687 139.574 21.8596 140.714 21.8596C141.89 21.8596 142.794 22.2758 143.425 23.1086C144.049 23.9448 144.364 25.1938 144.364 26.8555V30.1491ZM144.278 34.6921C145.124 33.622 145.54 32.1065 145.54 30.1491V26.9063C145.54 24.9381 145.117 23.4118 144.275 22.3271C143.425 21.2462 142.242 20.7021 140.714 20.7021C139.205 20.7021 138.021 21.2462 137.172 22.3236C136.318 23.4043 135.895 24.9198 135.895 26.8736V30.1783C135.902 32.1173 136.329 33.622 137.186 34.6921C138.046 35.762 139.226 36.2949 140.732 36.2949C142.256 36.2949 143.439 35.762 144.278 34.6921ZM152.644 22.0387H156.878V20.9102H147.24V22.0387H151.464V36.0906H152.644V22.0387ZM168.012 36.0906H169.191V20.9102H168.012V27.7172H161.016V20.9102H159.847V36.0906H161.016V28.8236H168.012V36.0906ZM182.157 28.9185H187.155V27.7172H182.157V22.2466H181.002V27.7172H176.068V28.9185H181.002V34.5678H182.157V28.9185ZM203.129 36.0906L197.643 28.3634L202.753 20.9102H201.275L196.528 27.8632H194.929V20.9102H193.76V36.0906H194.929V28.9806H196.6L201.673 36.0906H203.129ZM213.474 30.1491C213.474 31.8216 213.165 33.0742 212.549 33.9103C211.932 34.7429 211.028 35.1594 209.845 35.1594C208.69 35.1594 207.79 34.7429 207.141 33.9068C206.489 33.0669 206.166 31.8144 206.166 30.1491V26.7493C206.181 25.1206 206.51 23.9045 207.152 23.083C207.79 22.2687 208.683 21.8596 209.823 21.8596C211.003 21.8596 211.907 22.2758 212.534 23.1086C213.165 23.9448 213.474 25.1938 213.474 26.8555V30.1491ZM213.391 34.6921C214.234 33.622 214.653 32.1065 214.653 30.1491V26.9063C214.653 24.9381 214.234 23.4118 213.384 22.3271C212.541 21.2462 211.351 20.7021 209.823 20.7021C208.317 20.7021 207.134 21.2462 206.281 22.3236C205.431 23.4043 205.001 24.9198 205.001 26.8736V30.1783C205.008 32.1173 205.442 33.622 206.295 34.6921C207.152 35.762 208.335 36.2949 209.845 36.2949C211.365 36.2949 212.549 35.762 213.391 34.6921ZM219.168 30.0832V26.8296C219.168 25.2084 219.476 23.9666 220.107 23.1086C220.735 22.2577 221.613 21.8266 222.739 21.8266C223.807 21.8266 224.607 22.1225 225.134 22.7143C225.665 23.3057 225.984 24.288 226.095 25.6648H227.278C227.174 23.9815 226.737 22.7362 225.969 21.9217C225.206 21.111 224.13 20.7021 222.739 20.7021C221.262 20.7021 220.1 21.2462 219.25 22.3271C218.4 23.4118 217.977 24.9127 217.977 26.8263V30.1124C217.984 32.0224 218.407 33.5233 219.235 34.6335C220.071 35.7436 221.208 36.2949 222.645 36.2949C224.044 36.2949 225.141 35.9006 225.93 35.101C226.722 34.3049 227.174 33.0558 227.278 31.3541H226.095C225.991 32.731 225.679 33.7168 225.163 34.3049C224.646 34.8964 223.807 35.1923 222.645 35.1923C221.538 35.1923 220.681 34.7429 220.078 33.8447C219.469 32.9537 219.168 31.6976 219.168 30.0832ZM240 36.0906V20.9102H238.824V27.7172H231.825V20.9102H230.656V36.0906H231.825V28.8236H238.824V36.0906H240Z" fill="white"></path>
  <path d="M51.6758 31.8251L55.6632 31.4781L51.8337 30.295C51.796 30.8063 51.7403 31.3176 51.6758 31.8251ZM50.4749 36.8024L54.4442 37.3099L50.9408 35.338C50.801 35.8311 50.6468 36.3167 50.4749 36.8024ZM48.2858 41.4145L52.0651 42.7549L49.0388 40.0815C48.8003 40.5344 48.5509 40.98 48.2858 41.4145ZM18.6988 33.8152C18.7617 33.7749 18.8137 33.7349 18.853 33.6873C18.853 33.6471 18.8352 33.596 18.792 33.5303C18.7511 33.472 18.6882 33.4428 18.6075 33.4428C18.5269 33.399 18.4534 33.3882 18.3942 33.4098C18.3332 33.4317 18.3027 33.483 18.3027 33.5668C18.2632 33.6071 18.2706 33.6582 18.3332 33.7238C18.3942 33.7822 18.446 33.8152 18.4874 33.8152C18.5683 33.8554 18.6381 33.8554 18.6988 33.8152ZM31.4959 31.8797C31.7811 31.5876 31.8636 31.4014 31.7416 31.3138C31.6161 31.2333 31.5141 31.2079 31.4332 31.2552C31.3526 31.2552 31.2379 31.3138 31.0963 31.4416C30.9529 31.5657 30.8596 31.6497 30.8203 31.6935C30.4937 32.0259 30.4005 32.2521 30.5441 32.3764C30.6874 32.5042 31.0031 32.3364 31.4959 31.8797ZM35.1749 26.1282C35.2179 25.8764 35.1964 25.7118 35.1159 25.6316C35.0313 25.544 34.9095 25.544 34.7445 25.6316C34.6245 25.7521 34.4579 25.9934 34.257 26.3474C34.0509 26.7052 33.9073 26.9427 33.8267 27.0668C33.746 27.1908 33.5918 27.567 33.3642 28.1915C33.1402 28.816 33.0091 29.1703 32.968 29.2541C32.9268 29.2944 32.7727 29.517 32.5055 29.9078C32.2401 30.3059 32.0857 30.565 32.0465 30.6893C31.9246 30.8574 32.0571 30.9412 32.4463 30.9412C32.8351 30.9412 33.192 30.525 33.5183 29.6924C33.599 29.5646 33.764 29.192 34.0113 28.5677C34.257 27.9396 34.4003 27.567 34.4399 27.4429C34.5205 27.3224 34.646 27.1362 34.8074 26.9098C34.9722 26.6798 35.0942 26.4204 35.1749 26.1282ZM37.7529 27.5049C37.5054 28.502 36.9657 29.5646 36.1285 30.6893C35.2879 31.814 34.2748 32.8366 33.0898 33.753C31.9029 34.6697 30.6247 35.3893 29.255 35.9112C27.8872 36.43 26.5461 36.5432 25.2354 36.2511C23.5575 35.8749 22.4747 35.5315 21.9814 35.2212C21.494 34.9072 20.9399 34.6697 20.3267 34.5018C19.7533 34.3375 19.3121 34.2427 19.0072 34.2205C18.6988 34.2024 18.5054 34.1913 18.4247 34.1913C18.2185 34.1913 18.0644 34.0746 17.9657 33.8444C17.8635 33.6179 17.9317 33.4209 18.179 33.2528C18.8766 32.6283 19.8051 32.4642 20.9723 32.7526C22.1356 33.0447 23.4552 33.1688 24.9307 33.1287C26.6894 33.0447 28.3192 32.4642 29.8359 31.3795C31.3526 30.295 32.5573 28.4399 33.4594 25.8178C33.5812 25.3978 33.764 25.0657 34.0113 24.8138C34.257 24.5652 34.5834 24.423 34.9904 24.379C35.3182 24.6676 35.7807 24.9487 36.3705 25.2227C36.9657 25.4929 37.4481 25.584 37.8137 25.5037C37.8551 25.544 37.9071 25.6902 37.9679 25.942C38.0273 26.1904 37.9573 26.7125 37.7529 27.5049ZM37.8137 25.3175C37.4481 25.3578 36.9893 25.2519 36.4334 25.0035C35.8831 24.7554 35.4619 24.4814 35.1749 24.1893C35.2988 24.1493 35.4314 24.0979 35.5747 24.0323C35.718 23.9736 35.8093 23.9228 35.8507 23.8788C35.9316 23.7107 36.0157 23.5356 36.0964 23.3458C36.1771 23.1594 36.1771 23.0059 36.0964 22.8781C35.9316 22.3376 35.7074 21.8558 35.4206 21.4431C35.1337 21.0232 34.7859 20.6908 34.377 20.4389C34.092 20.2343 33.746 20.0957 33.3355 20.0373C32.9268 19.9716 32.5376 19.9203 32.1685 19.8803C31.9246 19.8803 31.801 19.7633 31.801 19.5369C31.801 19.3066 31.8636 19.1899 31.9873 19.1899C32.4768 19.2742 33.02 19.3469 33.6098 19.4128C34.205 19.4712 34.7052 19.6939 35.1159 20.0665C35.9316 20.8589 36.4334 21.5563 36.6183 22.159C36.8011 22.7613 36.9553 23.3383 37.0771 23.8788C37.1612 24.2147 37.2939 24.4814 37.4767 24.693C37.6596 24.8976 37.7744 25.1057 37.8137 25.3175ZM41.0231 28.502C41.0231 21.0815 35.1122 15.0636 27.8315 15.0636C20.5509 15.0636 14.6383 21.0815 14.6383 28.502C14.6383 35.9149 20.5509 41.9366 27.8315 41.9366C35.1122 41.9366 41.0231 35.9149 41.0231 28.502ZM46.8944 28.502C46.8944 39.2161 38.35 47.9148 27.8315 47.9148C17.3042 47.9148 8.76858 39.2161 8.76858 28.502C8.76858 17.7841 17.3042 9.08189 27.8315 9.08189C38.35 9.08189 46.8944 17.7841 46.8944 28.502ZM49.858 28.502C49.858 16.1189 39.9887 6.0655 27.8315 6.0655C15.671 6.0655 5.79803 16.1189 5.79803 28.502C5.79803 40.8849 15.671 50.9347 27.8315 50.9347C39.9887 50.9347 49.858 40.8849 49.858 28.502ZM46.2113 44.3212C45.8887 44.712 45.5498 45.0954 45.202 45.4643L48.6281 47.5714L46.2113 44.3212ZM42.5809 47.867C42.1831 48.181 41.7761 48.4807 41.3582 48.7691L44.2807 51.5552L42.5809 47.867ZM38.307 50.5694C37.8514 50.7885 37.3889 50.9966 36.9229 51.1939L39.2142 54.5354L38.307 50.5694ZM33.5703 52.304C33.081 52.4246 32.5896 52.5343 32.0948 52.6218L33.6475 56.3757L33.5703 52.304ZM28.588 52.9978C28.0843 53.0126 27.5788 53.0126 27.075 52.9978L27.8315 57L28.588 52.9978ZM22.0891 52.304L22.0119 56.3757L23.5684 52.6218C23.0735 52.5343 22.5803 52.4246 22.0891 52.304ZM17.3562 50.5694L16.449 54.5354L18.7365 51.1939C18.2706 50.9966 17.8115 50.7885 17.3562 50.5694ZM13.0786 47.867L11.3825 51.5552L14.3013 48.7691C13.8871 48.4807 13.4782 48.181 13.0786 47.867ZM9.44812 44.3212L7.03137 47.5714L10.4612 45.4643C10.1115 45.0954 9.77448 44.712 9.44812 44.3212ZM6.62064 40.0815L3.59462 42.7549L7.37553 41.4145C7.11203 40.98 6.85941 40.5344 6.62064 40.0815ZM4.71863 35.338L1.21554 37.3099L5.1883 36.8024C5.01633 36.3167 4.86216 35.8311 4.71863 35.338ZM3.82945 30.295L0 31.4781L3.98732 31.8251C3.91728 31.3176 3.8669 30.8063 3.82945 30.295ZM3.98732 25.1751L0 25.5221L3.82945 26.7052C3.8669 26.1904 3.91728 25.6826 3.98732 25.1751ZM5.1883 20.1979L1.21554 19.6939L4.71863 21.6623C4.86216 21.1691 5.01633 20.6797 5.1883 20.1979ZM7.37553 15.5819L3.59462 14.2529L6.62064 16.9185C6.85941 16.4659 7.11203 16.0203 7.37553 15.5819ZM9.44812 12.6825C9.77448 12.2883 10.1115 11.9086 10.4612 11.5359L7.03137 9.4324L9.44812 12.6825ZM13.0786 9.13321C13.4782 8.81919 13.8871 8.51576 14.3013 8.2274L11.3825 5.44123L13.0786 9.13321ZM17.3562 6.43084C17.8115 6.20815 18.2706 6.00359 18.7365 5.80633L16.449 2.46485L17.3562 6.43084ZM22.0891 4.69619C22.5803 4.57567 23.0735 4.46974 23.5684 4.37487L22.0119 0.620745L22.0891 4.69619ZM27.075 4.00247C27.5788 3.98764 28.0843 3.98764 28.588 4.00247L27.8315 0L27.075 4.00247ZM33.5703 4.69619L33.6475 0.620745L32.0948 4.37487C32.5896 4.46974 33.081 4.57567 33.5703 4.69619ZM38.307 6.43084L39.2142 2.46485L36.9229 5.80633C37.3889 6.00359 37.8514 6.20815 38.307 6.43084ZM42.5809 9.13321L44.2807 5.44123L41.3582 8.2274C41.7761 8.51576 42.1831 8.81919 42.5809 9.13321ZM46.2113 12.6825L48.6281 9.4324L45.202 11.5359C45.5498 11.9086 45.8887 12.2883 46.2113 12.6825ZM49.0388 16.9185L52.0651 14.2529L48.2858 15.5819C48.5509 16.0203 48.8003 16.4659 49.0388 16.9185ZM50.9408 21.6623L54.4442 19.6939L50.4749 20.1979C50.6468 20.6797 50.801 21.1691 50.9408 21.6623ZM51.8337 26.7052L55.6632 25.5221L51.6758 25.1751C51.7403 25.6826 51.796 26.1904 51.8337 26.7052Z" fill="white"></path>
</svg>
