<?xml version="1.0" encoding="UTF-8"?>
<svg xmlns="http://www.w3.org/2000/svg" width="141" height="42" viewBox="0 0 141 42" fill="none">
  <path d="M141 41.3289V0.671055C141 0.493254 140.927 0.322336 140.797 0.196154C140.668 0.0711203 140.491 0 140.306 0H59.4726V42H140.306C140.491 42 140.668 41.93 140.797 41.8038C140.927 41.6777 141 41.5067 141 41.3289ZM73.7498 35.9731C73.7498 36.0764 73.7074 36.175 73.6332 36.2484C73.5531 36.3218 73.4553 36.362 73.3517 36.362H67.4881C67.3774 36.362 67.2797 36.3218 67.2066 36.2484C67.1265 36.175 67.0841 36.0764 67.0841 35.9731V6.15306C67.0841 6.04982 67.1265 5.95002 67.2066 5.8766C67.2797 5.80434 67.3774 5.76304 67.4881 5.76304H73.3517C73.4553 5.76304 73.5531 5.80434 73.6332 5.8766C73.7074 5.95002 73.7498 6.04982 73.7498 6.15306V35.9731ZM107.884 35.8435C107.926 35.9617 107.907 36.0947 107.835 36.1991C107.754 36.3012 107.633 36.362 107.503 36.362H101.187C101.015 36.362 100.855 36.2496 100.806 36.0867C100.444 34.9327 99.059 30.5072 98.7033 29.3555C98.6479 29.1903 98.4948 29.079 98.3169 29.079H87.4557C87.2778 29.079 87.1247 29.1903 87.0752 29.3555C86.7136 30.5072 85.3284 34.9327 84.9668 36.0867C84.9173 36.2496 84.7642 36.362 84.5863 36.362H78.2693C78.1409 36.362 78.0184 36.3012 77.9383 36.1991C77.8653 36.0947 77.8465 35.9628 77.8901 35.8435C79.2635 32.0489 87.7136 8.63194 88.7007 5.89725C88.756 5.74125 88.9033 5.63686 89.0753 5.63686H96.6549C96.8269 5.63686 96.9742 5.74125 97.0354 5.89725C98.0225 8.6285 106.504 32.0466 107.884 35.8435ZM128.815 20.1213V20.3301C130.808 20.7625 132.242 21.5724 133.125 22.7585C134.008 23.9446 134.45 25.5207 134.45 27.4892C134.45 30.2789 133.414 32.4561 131.341 34.0185C129.274 35.582 126.459 36.362 122.909 36.362H111.55C111.447 36.362 111.343 36.3218 111.269 36.2484C111.195 36.175 111.152 36.0764 111.152 35.9731V6.15306C111.152 6.04982 111.195 5.95002 111.269 5.8766C111.343 5.80434 111.447 5.76304 111.55 5.76304H120.928C125.386 5.76304 128.618 6.38018 130.636 7.61561C132.648 8.84989 133.652 10.8137 133.652 13.5071C133.652 15.3356 133.212 16.8349 132.328 18.0072C131.451 19.1784 130.28 19.8839 128.815 20.1213ZM126.214 29.9795C127.092 29.2958 127.526 28.2485 127.526 26.8399C127.526 24.2991 125.662 23.0292 121.939 23.0292H118.211C118.107 23.0292 118.003 23.0705 117.929 23.1439C117.856 23.2173 117.812 23.3171 117.812 23.4192V30.615C117.812 30.7171 117.856 30.8169 117.929 30.8903C118.003 30.9637 118.107 31.0039 118.211 31.0039H122.154C123.988 31.0039 125.344 30.6632 126.214 29.9795ZM126.822 14.3652C126.822 13.1928 126.379 12.3531 125.497 11.8438C124.613 11.3334 123.221 11.0787 121.314 11.0787H118.211C117.99 11.0787 117.812 11.2531 117.812 11.4687V17.4922C117.812 17.5954 117.856 17.6941 117.929 17.7675C118.003 17.8409 118.107 17.881 118.211 17.881H121.683C123.485 17.881 124.798 17.6092 125.606 17.0654C126.417 16.5206 126.822 15.6201 126.822 14.3652ZM96.8022 23.4789C96.8764 23.3779 96.9 23.2506 96.8634 23.1325C94.8587 16.8475 93.7232 13.2823 93.4664 12.4403C93.3993 12.2121 93.331 11.9964 93.2756 11.7934C93.2273 11.6247 93.0671 11.5077 92.8834 11.5089C92.7055 11.51 92.5465 11.627 92.5041 11.7968C91.8586 14.0027 90.6948 17.7812 88.9952 23.1325C88.9586 23.2506 88.9834 23.3791 89.0564 23.4789C89.1306 23.5775 89.2531 23.6372 89.3756 23.6372H96.483C96.6055 23.6372 96.728 23.5775 96.8022 23.4789ZM0.686708 42H56.8306V0H0.686708C0.50178 0 0.329805 0.0711203 0.201416 0.196154C0.0730261 0.322336 0 0.493254 0 0.671055V41.3289C0 41.5067 0.0730261 41.6777 0.201416 41.8038C0.329805 41.93 0.50178 42 0.686708 42ZM49.9 9.09767C49.9 9.2835 49.8269 9.4613 49.6915 9.59436C49.5572 9.72628 49.3723 9.79969 49.1826 9.79969H42.0635C40.5358 9.79969 39.0634 10.3916 37.9845 11.4446C37.9845 11.4446 27.817 21.3453 25.407 23.6957C25.2715 23.8288 25.0878 23.9033 24.8911 23.9033C24.7014 23.9033 24.5177 23.8288 24.3822 23.6957C23.818 23.1439 22.904 22.2572 22.3398 21.7043C22.2055 21.5724 22.1254 21.3935 22.1254 21.2065C22.1254 21.0206 22.2055 20.8428 22.3398 20.7098C24.7497 18.3594 34.9184 8.45873 34.9184 8.45873C36.8136 6.61304 39.3826 5.57721 42.0635 5.57721H49.1826C49.3723 5.57721 49.5572 5.65063 49.6915 5.78254C49.8269 5.91446 49.9 6.09341 49.9 6.27924V9.09767ZM28.7428 27.6509C28.7428 27.4651 28.8229 27.2873 28.9571 27.1542C30.4837 25.6664 34.9184 21.3476 34.9184 21.3476C36.8136 19.5007 39.3826 18.4649 42.0635 18.4649H49.1826C49.3723 18.4649 49.5572 18.5395 49.6915 18.6702C49.8269 18.8022 49.9 18.9811 49.9 19.1681V21.9854C49.9 22.1712 49.8269 22.3513 49.6915 22.4821C49.5572 22.614 49.3723 22.6885 49.1826 22.6885H42.0635C40.5358 22.6885 39.0634 23.2804 37.9845 24.3335C37.9845 24.3335 33.5497 28.6535 32.0232 30.1401C31.8889 30.2732 31.704 30.3466 31.5084 30.3466C31.3188 30.3466 31.1351 30.2732 30.9996 30.1401C30.4354 29.5884 29.5214 28.7005 28.9571 28.1476C28.8229 28.0157 28.7428 27.8379 28.7428 27.6509ZM6.92243 32.9023C6.92243 32.7165 6.99664 32.5387 7.13092 32.4056C7.26638 32.2737 7.45013 32.2003 7.64684 32.2003H14.7601C16.2937 32.2003 17.759 31.6084 18.8391 30.5554C18.8391 30.5554 29.9136 19.7726 32.4402 17.3086C32.5756 17.1767 32.7594 17.1033 32.949 17.1033C33.1398 17.1033 33.3236 17.1767 33.459 17.3086C34.0291 17.8615 34.9432 18.7494 35.5074 19.3011C35.6417 19.4331 35.7217 19.612 35.7217 19.7978C35.7217 19.9848 35.6417 20.1626 35.5074 20.2957C32.9796 22.7585 21.9051 33.5413 21.9051 33.5413C20.0099 35.387 17.4398 36.4228 14.7601 36.4228H7.64684C7.45013 36.4228 7.26638 36.3494 7.13092 36.2175C6.99664 36.0855 6.92243 35.9066 6.92243 35.7208V32.9023ZM6.92243 20.0146C6.92243 19.8288 6.99664 19.6487 7.13092 19.5179C7.26638 19.386 7.45013 19.3115 7.64684 19.3115H14.7601C16.2937 19.3115 17.759 18.7196 18.8391 17.6665C18.8391 17.6665 24.1372 12.508 25.824 10.8654C25.9583 10.7334 26.142 10.6589 26.3328 10.6589C26.5225 10.6589 26.7074 10.7334 26.8417 10.8654C27.4118 11.4171 28.3258 12.305 28.89 12.8567C29.0243 12.9886 29.1044 13.1676 29.1044 13.3546C29.1044 13.5404 29.0243 13.7193 28.89 13.8513C27.2033 15.4951 21.9051 20.6524 21.9051 20.6524C20.0099 22.4981 17.4398 23.5351 14.7601 23.5351H7.64684C7.45013 23.5351 7.26638 23.4605 7.13092 23.3286C6.99664 23.1967 6.92243 23.0189 6.92243 22.8319V20.0146Z" fill="white"></path>
</svg>
