<?xml version="1.0" encoding="UTF-8"?>
<svg xmlns="http://www.w3.org/2000/svg" width="86" height="86" viewBox="0 0 86 86" fill="none">
  <path d="M70.1505 37.1017L63.3661 37.0997H63.356V23.201L70.1505 23.2027C73.9021 23.2027 76.9438 26.3149 76.9438 30.1522C76.9438 33.991 73.9021 37.1017 70.1505 37.1017ZM70.1505 13.9373L63.3661 13.9348H63.356V0.0371094H54.3047V46.3656C54.3047 46.3656 70.1203 46.3681 70.1505 46.3681C78.9038 46.3681 86.0002 39.1076 86.0002 30.1522C86.0002 21.1968 78.9038 13.9373 70.1505 13.9373Z" fill="white"></path>
  <path d="M0 27.8047V46.3684H9.05647V18.54L0 27.8047Z" fill="white"></path>
  <path d="M33.9383 37.102L27.1537 37.1H27.1438V23.2013L33.9383 23.203C37.6895 23.203 40.7314 26.3152 40.7314 30.1525C40.7314 33.9913 37.6895 37.102 33.9383 37.102ZM33.9383 13.9376L27.1537 13.9351H27.1438L27.1483 0.0458984L18.1048 9.2971L18.0918 9.3016V46.3659C18.0918 46.3659 33.9079 46.3684 33.9383 46.3684C42.6917 46.3684 49.7874 39.1079 49.7874 30.1525C49.7874 21.1971 42.6917 13.9376 33.9383 13.9376Z" fill="white"></path>
  <path d="M0 0V15.7523L15.3968 0.000749746L0 0Z" fill="white"></path>
  <path d="M1.85345 66.0892V68.5467H4.29032C5.03219 68.5467 5.51907 68.0621 5.51907 67.3735C5.51907 66.5881 5.03858 66.0892 4.29032 66.0892H1.85345ZM1.85345 62.2622V64.5929H4.04344C4.80521 64.5929 5.25819 64.102 5.25819 63.4482C5.25819 62.6975 4.7094 62.2622 3.9749 62.2622H1.85345ZM0 60.6328H4.29032C5.96518 60.6328 7.17379 61.6923 7.17379 63.2376C7.17379 63.876 6.83037 64.8605 5.9244 65.2105C6.96032 65.6111 7.48921 66.5168 7.48921 67.522C7.48921 69.0803 6.31499 70.1696 4.59247 70.1696H0V60.6328Z" fill="white"></path>
  <path d="M9.94238 60.6328H16.5738V62.2749H11.7958V64.4741H15.942V66.1177H11.7958V68.5325H16.6762V70.1696H9.94238V60.6328Z" fill="white"></path>
  <path d="M20.9707 65.0568H23.1049C24.128 65.0568 24.6562 64.4171 24.6562 63.695C24.6562 62.9016 24.128 62.2762 23.1049 62.2762H20.9707V65.0568ZM19.1104 70.1619V60.6313H23.2221C25.2465 60.6313 26.5583 61.8679 26.5583 63.695C26.5583 64.9095 25.9056 65.907 24.8213 66.3838L26.9292 70.1696H24.8974L22.9958 66.7004H20.9707V70.1619H19.1104Z" fill="white"></path>
  <path d="M34.4755 66.7921L32.8486 62.6122L31.2084 66.7921H34.4755ZM28.0166 70.1696L31.778 60.6328H33.9059L37.6744 70.1696H35.6977L35.0116 68.3012H30.6864L29.9931 70.1696H28.0166Z" fill="white"></path>
  <path d="M37.376 60.6328H45.0507V62.3177H42.1397V70.1696H40.2931V62.3177H37.376V60.6328Z" fill="white"></path>
  <path d="M47.0781 60.6328H53.7098V62.2749H48.9313V64.4741H53.0777V66.1177H48.9313V68.5325H53.812V70.1696H47.0781V60.6328Z" fill="white"></path>
  <path d="M56.2461 70.1696V60.6328H57.9271L63.0836 67.1784V60.6328H64.9363V70.1696H63.2268L58.0988 63.6937V70.1696H56.2461Z" fill="white"></path>
  <path d="M69.8339 68.5401H71.7839C73.5546 68.5401 74.7556 67.177 74.7556 65.4082C74.7556 63.652 73.5546 62.2683 71.7839 62.2683H69.8339V68.5401ZM67.9805 60.6392H71.8382C74.6045 60.6392 76.6498 62.6831 76.6498 65.4082C76.6498 68.1472 74.6045 70.1759 71.8382 70.1759H67.9805V60.6392Z" fill="white"></path>
  <path d="M79.0898 60.6328H85.7215V62.2749H80.9438V64.4741H85.0894V66.1177H80.9438V68.5325H85.8237V70.1696H79.0898V60.6328Z" fill="white"></path>
  <path d="M1.85394 76.3223H0V85.8605H1.85394V76.3223Z" fill="white"></path>
  <path d="M11.2347 76.3223V82.8679L6.0792 76.3223H4.39746V85.859H6.2514V79.3844L11.3789 85.859H13.0879V76.3223H11.2347Z" fill="white"></path>
  <path d="M15.0215 81.0914C15.0215 78.3031 17.081 76.1816 19.8058 76.1816C21.4193 76.1816 22.9086 76.9683 23.8905 78.4219L22.4286 79.4906C21.7005 78.3664 20.753 77.9388 19.8058 77.9388C18.1103 77.9388 16.9231 79.2438 16.9231 81.0914C16.9231 82.9456 18.159 84.2441 19.8537 84.2441C21.4055 84.2441 22.2771 83.3099 22.4898 82.2994H19.6687V80.6623H24.3636C24.3914 80.9079 24.398 81.1897 24.398 81.4287C24.398 83.8798 22.7092 86 19.8537 86C17.1353 86 15.0215 83.8798 15.0215 81.0914Z" fill="white"></path>
  <path d="M26.2627 76.3223V85.859H32.9965V84.2234H28.1166V81.8072H32.262V80.1636H28.1166V77.9659H32.8941V76.3223H26.2627Z" fill="white"></path>
  <path d="M41.7662 76.3223V82.8679L36.6114 76.3223H34.9297V85.859H36.7826V79.3844L41.9106 85.859H43.6199V76.3223H41.7662Z" fill="white"></path>
  <path d="M48.018 76.3223H46.1641V85.8605H48.018V76.3223Z" fill="white"></path>
  <path d="M50.5615 76.3223V85.859H57.2953V84.2234H52.415V81.8072H56.5611V80.1636H52.415V77.9659H57.1927V76.3223H50.5615Z" fill="white"></path>
  <path d="M59.126 82.236V76.3223H60.9718V82.1933C60.9718 83.4855 61.8778 84.3007 63.1129 84.3007C64.3493 84.3007 65.2555 83.4855 65.2555 82.1933V76.3223H67.1026V82.236C67.1026 84.5255 65.5024 85.9998 63.1129 85.9998C60.7249 85.9998 59.126 84.5255 59.126 82.236Z" fill="white"></path>
  <path d="M71.4043 80.7464H73.5392C74.5621 80.7464 75.09 80.1081 75.09 79.3847C75.09 78.5912 74.5621 77.9659 73.5392 77.9659H71.4043V80.7464ZM69.5439 85.8528V76.3223H73.6562C75.6806 76.3223 76.9921 77.5588 76.9921 79.3847C76.9921 80.6004 76.3392 81.5966 75.2549 82.0747L77.3633 85.8593H75.3308L73.4294 82.39H71.4043V85.8528H69.5439Z" fill="white"></path>
  <path d="M79.0898 76.3223V85.859H85.8237V84.2234H80.9438V81.8072H85.0892V80.1636H80.9438V77.9659H85.7215V76.3223H79.0898Z" fill="white"></path>
</svg>
