<?xml version="1.0" encoding="UTF-8"?>
<svg xmlns="http://www.w3.org/2000/svg" width="143" height="78" viewBox="0 0 143 78" fill="none">
  <g clip-path="url(#clip0_71_218)">
    <path d="M80.5811 72.1358C84.8101 68.2271 86.9244 62.6721 86.9244 55.4737C86.9244 53.6971 86.7829 52.0601 86.499 50.5668H72.6084C73.0805 51.29 73.4501 52.0342 73.715 52.803C74.1414 54.0416 74.3557 55.4352 74.3557 56.9822C74.3557 60.3119 73.4437 62.8276 71.6203 64.5303C69.7964 66.233 67.139 67.084 63.6477 67.084C60.2324 67.084 57.7892 66.1375 56.3146 64.2401C55.1052 62.6847 54.6527 60.4383 54.9595 57.502C54.9835 57.2581 54.8961 57.0153 54.7194 56.8419C54.5666 56.6927 54.3638 56.6117 54.1533 56.6117C54.1191 56.6117 54.0868 56.6137 54.0526 56.6181C51.5803 56.9241 45.3892 57.6949 43.4094 57.9408C43.0411 57.9864 42.7528 58.276 42.7052 58.6413C42.5676 59.763 42.4979 60.8379 42.4961 61.8672V61.9209C42.5011 66.1457 43.6741 69.5707 46.0153 72.1939C49.4673 76.064 55.0343 78 62.7161 78C70.3965 78 76.3526 76.045 80.5811 72.1358ZM103.611 34.162C103.666 33.9919 103.632 33.9142 103.504 33.9288H102.1C102.001 33.9288 101.937 33.971 101.909 34.0552L99.2077 42.4149C98.9955 43.0662 98.8004 43.6878 98.6235 44.2815C98.4454 44.8758 98.2801 45.4695 98.1241 46.0637H98.1032C98.1159 45.5555 98.1272 45.0845 98.1336 44.6537C98.1418 44.2214 98.1368 43.7023 98.1241 43.0934L97.9536 34.0761C97.9536 33.9775 97.9035 33.9288 97.804 33.9288H96.167C96.0815 33.9288 96.0181 33.9856 95.9757 34.0976L93.0831 42.7114C92.8411 43.4335 92.6402 44.0374 92.478 44.526C92.3138 45.0129 92.1554 45.5263 91.9995 46.0637H91.9557C91.9995 45.4695 92.0268 44.8656 92.0414 44.2504C92.0547 43.634 92.0628 43.0238 92.0628 42.4149L92.0204 34.0761C92.0204 33.9775 91.9703 33.9288 91.8715 33.9288H90.4885C90.3605 33.9288 90.2973 34.0065 90.2973 34.162L90.7016 47.6982C90.7016 47.7823 90.7515 47.8246 90.8505 47.8246H92.5508C92.637 47.8246 92.6934 47.7823 92.7213 47.6982L95.4648 39.6134C95.6626 39.0197 95.8622 38.3976 96.0599 37.747C96.2597 37.0964 96.4579 36.425 96.6557 35.7319H96.6982C96.6849 36.425 96.6766 37.0755 96.6766 37.6844C96.6766 38.2914 96.6849 38.8996 96.6982 39.5084L96.8471 47.6129C96.8471 47.7551 96.8971 47.8246 96.9967 47.8246H98.7408C98.8104 47.8246 98.8669 47.7678 98.9105 47.6546L103.611 34.162ZM108.267 39.9321C108.267 40.455 108.111 40.8698 107.8 41.1738C107.487 41.4779 107.005 41.6791 106.353 41.7777L104.802 41.9913L104.95 40.9292C105.078 40.1654 105.29 39.6248 105.589 39.3061C105.886 38.9887 106.326 38.8281 106.906 38.8281C107.813 38.8281 108.267 39.1975 108.267 39.9321ZM109.119 42.0331C109.685 41.4666 109.969 40.7028 109.969 39.7412C109.969 38.9495 109.721 38.3445 109.224 37.9272C108.728 37.5112 108.013 37.3019 107.076 37.3019C105.957 37.3019 105.092 37.5952 104.482 38.1826C103.872 38.7687 103.468 39.6924 103.27 40.9507L102.738 44.2397C102.682 44.6633 102.654 44.9681 102.654 45.1521C102.654 46.0846 102.908 46.7921 103.42 47.2726C103.929 47.7551 104.666 47.9947 105.631 47.9947C106.666 47.9947 107.483 47.75 108.087 47.2632C108.689 46.7738 109.027 46.0637 109.096 45.1312C109.125 45.0035 109.061 44.9402 108.905 44.9402H107.672C107.546 44.9402 107.474 45.0035 107.459 45.1312C107.402 45.5681 107.232 45.9051 106.948 46.1377C106.666 46.3711 106.283 46.4875 105.801 46.4875C104.836 46.4875 104.354 45.986 104.354 44.9826C104.354 44.7266 104.369 44.5293 104.398 44.3883L104.567 43.4121L106.63 43.1143C107.722 42.9594 108.551 42.5983 109.119 42.0331ZM112.414 37.4719C112.301 37.4719 112.229 37.5415 112.202 37.6844L110.607 47.6129C110.592 47.7551 110.655 47.8246 110.799 47.8246H112.095C112.208 47.8246 112.28 47.7551 112.309 47.6129L113.883 37.6844C113.91 37.5415 113.853 37.4719 113.712 37.4719H112.414ZM114.541 34.6495L114.583 34.4161C114.626 34.0906 114.566 33.8333 114.403 33.6423C114.239 33.4515 113.981 33.356 113.627 33.356C112.932 33.356 112.543 33.7087 112.457 34.4161L112.414 34.6495C112.372 34.9746 112.436 35.2337 112.606 35.4247C112.776 35.6157 113.031 35.711 113.372 35.711C114.066 35.711 114.455 35.3564 114.541 34.6495ZM126.982 40.3146C127.039 39.989 127.066 39.657 127.066 39.3176C127.066 37.974 126.485 37.3019 125.324 37.3019C124.813 37.3019 124.31 37.4283 123.814 37.6844C123.317 37.9379 122.793 38.3349 122.24 38.8725C122.154 37.8247 121.588 37.3019 120.538 37.3019C120.028 37.3019 119.535 37.4251 119.06 37.6731C118.584 37.9202 118.084 38.306 117.561 38.8281C117.603 38.4045 117.624 38.0157 117.624 37.6629C117.624 37.5352 117.561 37.4719 117.432 37.4719H116.285C116.157 37.4719 116.086 37.5352 116.073 37.6629C116.044 38.2699 115.951 39.0696 115.795 40.0605L114.583 47.6129C114.569 47.669 114.58 47.7197 114.616 47.7614C114.65 47.8037 114.703 47.8246 114.775 47.8246H116.052C116.178 47.8246 116.25 47.7551 116.264 47.6129L117.455 40.1863C117.922 39.7348 118.338 39.4016 118.698 39.1892C119.06 38.9773 119.404 38.8725 119.73 38.8725C120.283 38.8725 120.558 39.1975 120.558 39.848C120.558 40.0181 120.538 40.2224 120.496 40.4632L119.368 47.6129C119.34 47.7551 119.397 47.8246 119.538 47.8246H120.815C120.942 47.8246 121.02 47.7551 121.049 47.6129L122.218 40.1863C122.701 39.7348 123.122 39.4016 123.484 39.1892C123.846 38.9773 124.182 38.8725 124.493 38.8725C125.046 38.8725 125.324 39.2038 125.324 39.8695C125.324 40.123 125.309 40.3222 125.28 40.4632L124.133 47.5913C124.104 47.7469 124.167 47.8246 124.324 47.8246H125.599C125.714 47.8246 125.783 47.7551 125.812 47.6129L126.982 40.3146ZM134.191 39.0419L133.235 45.0875C132.766 45.5409 132.344 45.8805 131.969 46.1055C131.593 46.3326 131.242 46.4457 130.917 46.4457C130.576 46.4457 130.327 46.3533 130.171 46.1707C130.016 45.986 129.938 45.7028 129.938 45.3221C129.938 45.123 129.959 44.9111 130.001 44.6848L130.617 40.9714C130.732 40.2091 130.944 39.6633 131.257 39.3385C131.569 39.0128 132.015 38.8509 132.596 38.8509C133.149 38.8509 133.681 38.9142 134.191 39.0419ZM134.893 45.2361L136.084 37.747C135.73 37.7199 135.24 37.6483 134.617 37.5352C133.864 37.3796 133.206 37.3019 132.639 37.3019C131.561 37.3019 130.728 37.5776 130.139 38.1295C129.552 38.6808 129.157 39.5863 128.96 40.845L128.343 44.7492C128.287 45.0875 128.257 45.4354 128.257 45.7881C128.257 46.5101 128.418 47.057 128.736 47.4325C129.055 47.8069 129.526 47.9947 130.15 47.9947C131.129 47.9947 132.128 47.4845 133.149 46.4666L133.064 47.6129C133.064 47.7551 133.134 47.8246 133.277 47.8246H134.382C134.453 47.8246 134.507 47.8113 134.542 47.7823C134.576 47.7551 134.603 47.6982 134.617 47.6129C134.617 47.0753 134.708 46.2838 134.893 45.2361ZM142.995 37.5561C142.995 37.4283 142.953 37.3587 142.867 37.3442C142.753 37.3152 142.613 37.3019 142.442 37.3019C142.002 37.3019 141.55 37.4575 141.081 37.7684C140.614 38.0789 140.168 38.4824 139.74 38.9773C139.797 38.383 139.827 37.9448 139.827 37.6629C139.827 37.5352 139.763 37.4719 139.635 37.4719H138.508C138.366 37.4719 138.288 37.5415 138.274 37.6844C138.245 38.2635 138.154 39.0489 137.998 40.039L136.785 47.6129C136.772 47.669 136.781 47.7197 136.817 47.7614C136.853 47.8037 136.906 47.8246 136.976 47.8246H138.253C138.366 47.8246 138.436 47.7551 138.465 47.6129L139.614 40.5472C140.38 39.714 141.146 39.296 141.91 39.296C142.095 39.296 142.272 39.3176 142.442 39.3593C142.556 39.4016 142.64 39.3465 142.697 39.1892C142.854 38.5531 142.953 38.0094 142.995 37.5561Z" fill="white"></path>
    <path d="M80.6425 41.7985L80.7914 40.8223C80.8902 40.243 81.0525 39.8303 81.2799 39.5823C81.5069 39.3352 81.8478 39.2107 82.3004 39.2107C83.0096 39.2107 83.3644 39.5147 83.3644 40.1229C83.3644 41.0005 82.8474 41.5089 81.8124 41.6512L80.6425 41.7985ZM77.7917 43.9412C77.7348 44.2668 77.7075 44.6 77.7075 44.9382C77.7075 45.929 77.9945 46.6865 78.5689 47.2094C79.1431 47.7323 79.9757 47.9946 81.0677 47.9946C83.5203 47.9946 84.8399 46.9615 85.023 44.8965C85.0521 44.7265 84.9805 44.6424 84.81 44.6424H82.8746C82.7338 44.6424 82.6476 44.7265 82.6197 44.8965C82.5355 45.6185 82.0963 45.9796 81.3009 45.9796C80.5645 45.9796 80.1963 45.5972 80.1963 44.8334C80.1963 44.7346 80.209 44.571 80.2382 44.3445L80.3668 43.5385L82.2795 43.3051C84.6903 43.0092 85.8957 41.8276 85.8957 39.7626C85.8957 38.9418 85.6003 38.3059 85.0128 37.8525C84.424 37.4011 83.5838 37.1742 82.4917 37.1742C81.2592 37.1742 80.2984 37.4781 79.6106 38.0851C78.9224 38.694 78.4732 39.6558 78.2608 40.9714L77.7917 43.9412ZM71.2002 33.5892L68.9674 47.5704C68.9528 47.7405 69.0307 47.8245 69.2012 47.8245H71.2209C71.3769 47.8245 71.4695 47.7405 71.4985 47.5704L71.9656 44.7056L72.9227 43.5809L74.1768 47.5913C74.2193 47.7468 74.3118 47.8245 74.4544 47.8245H76.7081C76.864 47.8245 76.9413 47.7614 76.9413 47.6337L76.9203 47.5495L74.9215 41.7561L78.2817 37.64C78.3388 37.556 78.3565 37.4851 78.3349 37.4283C78.314 37.3713 78.2608 37.3441 78.1746 37.3441H75.772C75.6453 37.3441 75.5319 37.422 75.4329 37.5775L73.7941 39.6343C73.2845 40.2994 72.8156 40.9651 72.3909 41.6284H72.3485C72.5607 40.6396 72.7376 39.6848 72.8808 38.7656L73.7097 33.5892C73.7516 33.419 73.6807 33.3331 73.4975 33.3331H71.4549C71.3136 33.3331 71.2274 33.419 71.2002 33.5892ZM63.756 40.0161L62.5443 47.5704C62.5296 47.7405 62.6077 47.8245 62.778 47.8245H64.7991C64.955 47.8245 65.0463 47.7405 65.0755 47.5704L66.1376 40.9507C66.4786 40.5978 66.8373 40.324 67.2119 40.1331C67.5883 39.9421 67.9534 39.8466 68.3071 39.8466C68.5345 39.8466 68.719 39.8695 68.8603 39.9112C69.0016 39.9391 69.1024 39.8612 69.1589 39.6778C69.3146 39.0127 69.4491 38.2913 69.5632 37.5142C69.5758 37.4283 69.5726 37.3682 69.5516 37.3328C69.5302 37.2973 69.4851 37.2664 69.4136 37.2373C69.2856 37.1949 69.1233 37.1742 68.9249 37.1742C68.0884 37.1742 67.1878 37.7261 66.2239 38.8281C66.2808 38.2761 66.3018 37.8734 66.2872 37.6193C66.2872 37.4365 66.2093 37.3441 66.0534 37.3441H64.3093C64.1388 37.3441 64.0469 37.4365 64.0336 37.6193C64.019 38.1858 63.9265 38.9836 63.756 40.0161ZM57.0782 41.7985L57.2276 40.8223C57.3266 40.243 57.4907 39.8303 57.7176 39.5823C57.9432 39.3352 58.2835 39.2107 58.7379 39.2107C59.4471 39.2107 59.8007 39.5147 59.8007 40.1229C59.8007 41.0005 59.2829 41.5089 58.2481 41.6512L57.0782 41.7985ZM54.2294 43.9412C54.1722 44.2668 54.145 44.6 54.145 44.9382C54.145 45.929 54.4322 46.6865 55.005 47.2094C55.5792 47.7323 56.4133 47.9946 57.5052 47.9946C59.9567 47.9946 61.2755 46.9615 61.4605 44.8965C61.4877 44.7265 61.4181 44.6424 61.2483 44.6424H59.3121C59.1695 44.6424 59.0853 44.7265 59.058 44.8965C58.9717 45.6185 58.532 45.9796 57.7385 45.9796C57.0001 45.9796 56.632 45.5972 56.632 44.8334C56.632 44.7346 56.6464 44.571 56.6743 44.3445L56.8023 43.5385L58.717 43.3051C61.1266 43.0092 62.3319 41.8276 62.3319 39.7626C62.3319 38.9418 62.0379 38.3059 61.4491 37.8525C60.8603 37.4011 60.0212 37.1742 58.9293 37.1742C57.6966 37.1742 56.7358 37.4781 56.0482 38.0851C55.36 38.694 54.9093 39.6558 54.6964 40.9714L54.2294 43.9412ZM9.14575 37.831C9.21547 37.4365 9.25095 37.1026 9.25095 36.8346C9.25095 35.8439 8.91824 35.0844 8.25153 34.5533C7.58481 34.0229 6.63543 33.7573 5.40278 33.7573C4.06872 33.7573 3.02747 34.1006 2.27646 34.7867C1.52482 35.4734 1.14837 36.4167 1.14837 37.6193C1.14837 38.3412 1.28336 38.9596 1.55271 39.4755C1.82206 39.9921 2.24731 40.4695 2.82973 40.9083L4.65811 42.2871C5.06816 42.5837 5.35588 42.8702 5.51939 43.1471C5.68163 43.4221 5.76467 43.7439 5.76467 44.1113C5.76467 45.1862 5.18984 45.7236 4.04148 45.7236C3.09084 45.7236 2.61678 45.2867 2.61678 44.4091C2.61678 44.2244 2.63833 44.0271 2.68016 43.8154C2.69348 43.7439 2.68015 43.6808 2.63833 43.6244C2.59397 43.5676 2.53123 43.5385 2.4463 43.5385H0.403703C0.277586 43.5385 0.191395 43.6244 0.148933 43.7926C0.0500669 44.2895 0 44.6848 0 44.9826C0 45.9714 0.329554 46.7206 0.989929 47.2302C1.64841 47.7405 2.60221 47.9946 3.85008 47.9946C5.31026 47.9946 6.43771 47.6304 7.23117 46.9021C8.02463 46.1737 8.42201 45.1444 8.42201 43.8154C8.42201 43.0788 8.28701 42.4573 8.01767 41.9477C7.74895 41.4393 7.30278 40.9507 6.67791 40.484L4.80705 39.0841C4.43758 38.8009 4.17963 38.5354 4.03006 38.2874C3.88113 38.0403 3.80762 37.7394 3.80762 37.3859C3.80762 36.9623 3.9312 36.6303 4.17963 36.3895C4.42743 36.148 4.78614 36.0284 5.25321 36.0284C6.16013 36.0284 6.61452 36.4602 6.61452 37.3232C6.61452 37.5351 6.59995 37.7052 6.57269 37.831C6.54291 38.0302 6.61452 38.1295 6.785 38.1295H8.86817C9.01077 38.1295 9.10203 38.0302 9.14575 37.831ZM16.2274 39.296L16.5031 37.6193C16.5454 37.4365 16.4676 37.3441 16.2698 37.3441H14.1214L14.5257 34.8405C14.5676 34.6704 14.4966 34.5862 14.3128 34.5862H12.6321C12.5059 34.5862 12.4052 34.6704 12.3355 34.8405L11.6751 37.3441H10.4418C10.315 37.3441 10.2295 37.4365 10.187 37.6193L9.90943 39.296C9.89676 39.3656 9.90943 39.4307 9.9538 39.487C9.99563 39.5438 10.059 39.571 10.1452 39.571H11.2498L10.4843 44.4091C10.4145 44.8758 10.3784 45.2639 10.3784 45.5763C10.3784 46.4095 10.5875 47.0215 11.0065 47.4105C11.4235 47.8006 12.0725 47.9946 12.9515 47.9946C13.6315 47.9946 14.2202 47.9024 14.7171 47.7177C14.8724 47.6627 14.9573 47.5621 14.9719 47.4212L15.2488 45.7236C15.2621 45.654 15.252 45.5972 15.2165 45.5535C15.181 45.5117 15.1272 45.4902 15.0574 45.4902L14.9928 45.5117C14.61 45.6666 14.2272 45.7445 13.8438 45.7445C13.5472 45.7445 13.3266 45.6781 13.1853 45.5439C13.044 45.4092 12.973 45.1797 12.973 44.8542C12.973 44.6696 12.9939 44.4659 13.0364 44.2397L13.7811 39.571H15.9713C16.1139 39.571 16.1982 39.4794 16.2274 39.296ZM22.1606 39.487L21.2879 44.8542C20.9469 45.1508 20.6472 45.374 20.3842 45.5232C20.1212 45.6718 19.8696 45.7445 19.6293 45.7445C19.3733 45.7445 19.187 45.6781 19.0654 45.5439C18.945 45.4092 18.8846 45.2006 18.8846 44.9174C18.8992 44.7474 18.9125 44.5779 18.9271 44.4091L19.5013 40.8874C19.5875 40.3209 19.7383 39.9206 19.959 39.688C20.1782 39.4546 20.509 39.3384 20.9469 39.3384C21.3298 39.3384 21.7341 39.3882 22.1606 39.487ZM23.7767 45.1299L24.9676 37.6193C24.6265 37.5921 24.0949 37.5206 23.3724 37.4074C23.0028 37.3504 22.6068 37.2973 22.1815 37.2486C21.757 37.1988 21.3525 37.1742 20.9698 37.1742C19.7643 37.1742 18.8523 37.4492 18.2357 38.0011C17.6198 38.5531 17.204 39.4648 16.9916 40.7382L16.3751 44.7056C16.3034 45.159 16.2698 45.5263 16.2698 45.8095C16.2698 47.2663 16.9137 47.9946 18.2053 47.9946C19.2383 47.9946 20.2676 47.4844 21.2879 46.4665C21.2454 46.8907 21.2308 47.2593 21.2454 47.5704C21.2454 47.7405 21.3235 47.8245 21.4794 47.8245H23.2025C23.3724 47.8245 23.4649 47.7405 23.4782 47.5704C23.4928 46.9893 23.5916 46.1769 23.7767 45.1299ZM31.2202 39.6343L30.3894 44.8965C29.7518 45.463 29.1985 45.7445 28.7314 45.7445C28.2351 45.7445 27.9867 45.463 27.9867 44.8965C27.9867 44.8251 28.0013 44.6632 28.0292 44.4091L28.6243 40.7173C28.7105 40.2367 28.8594 39.8871 29.0723 39.6671C29.2847 39.4483 29.5812 39.3384 29.9646 39.3384C30.3765 39.3384 30.7937 39.437 31.2202 39.6343ZM32.878 45.1943L34.7071 33.5892C34.7363 33.419 34.6646 33.3331 34.4941 33.3331H32.4534C32.3819 33.3331 32.3217 33.3546 32.2715 33.3982C32.2227 33.4399 32.1904 33.5032 32.1758 33.5892L31.5384 37.6615C30.8862 37.336 30.1624 37.1742 29.369 37.1742C28.4621 37.1742 27.7414 37.4492 27.211 38.0011C26.6792 38.5531 26.3205 39.3882 26.1375 40.5056L25.4554 44.7265C25.3991 45.0666 25.3712 45.4194 25.3712 45.788C25.3712 47.2593 26.0158 47.9946 27.3068 47.9946C27.8587 47.9946 28.3873 47.8632 28.8904 47.6013C29.3937 47.3402 29.9013 46.9552 30.4108 46.4456C30.3538 46.983 30.3329 47.3585 30.3475 47.5704C30.3475 47.7405 30.4254 47.8245 30.5807 47.8245H32.3248C32.4953 47.8245 32.5796 47.7323 32.5796 47.5495C32.6233 46.9552 32.7227 46.1706 32.878 45.1943ZM41.1929 39.296L41.4705 37.6193C41.513 37.4365 41.4351 37.3441 41.2354 37.3441H39.0876L39.4932 34.8405C39.5351 34.6704 39.4634 34.5862 39.2791 34.5862H37.5996C37.4715 34.5862 37.3727 34.6704 37.301 34.8405L36.6427 37.3441H35.4093C35.2813 37.3441 35.1969 37.4365 35.1533 37.6193L34.877 39.296C34.8624 39.3656 34.877 39.4307 34.9193 39.487C34.9631 39.5438 35.0266 39.571 35.1108 39.571H36.2173L35.4518 44.4091C35.3801 44.8758 35.3447 45.2639 35.3447 45.5763C35.3447 46.4095 35.5538 47.0215 35.9721 47.4105C36.391 47.8006 37.04 47.9946 37.919 47.9946C38.599 47.9946 39.1877 47.9024 39.6827 47.7177C39.84 47.6627 39.9242 47.5621 39.9394 47.4212L40.2151 45.7236C40.2297 45.654 40.2183 45.5972 40.1841 45.5535C40.1485 45.5117 40.0947 45.4902 40.0236 45.4902L39.9603 45.5117C39.5774 45.6666 39.1941 45.7445 38.8113 45.7445C38.5148 45.7445 38.2941 45.6781 38.1528 45.5439C38.0102 45.4092 37.9406 45.1797 37.9406 44.8542C37.9406 44.6696 37.9614 44.4659 38.0032 44.2397L38.7479 39.571H40.9382C41.0795 39.571 41.1656 39.4794 41.1929 39.296ZM44.7027 42.3296L44.808 37.5775C44.8226 37.422 44.7509 37.3441 44.5956 37.3441H42.3628C42.2069 37.3441 42.1297 37.4283 42.1297 37.5984L42.5968 47.6128C42.6114 47.7531 42.6823 47.8245 42.809 47.8245H45.4245C45.5671 47.8245 45.6597 47.7531 45.7021 47.6128L46.8068 43.9412C46.9773 43.3342 47.1978 42.4781 47.4671 41.3743L47.8081 40.0161H47.8923C47.7783 41.9262 47.7157 43.228 47.7011 43.9203L47.6795 47.6128C47.6795 47.669 47.7011 47.7177 47.7429 47.7614C47.7853 47.8036 47.8417 47.8245 47.9133 47.8245H50.4864C50.6277 47.8245 50.7285 47.7531 50.785 47.6128L54.4631 37.5984C54.5196 37.4283 54.4708 37.3441 54.3155 37.3441H51.9547C51.8123 37.3441 51.7196 37.422 51.6773 37.5775L50.2525 42.3296C50.0403 43.0218 49.7917 43.9494 49.5078 45.1084H49.4661L49.5503 42.4137L49.5941 37.556C49.5941 37.4157 49.5224 37.3441 49.3817 37.3441H47.1686C47.0273 37.3441 46.9348 37.4283 46.8929 37.5984L45.4474 42.2871L44.6165 45.1084H44.5531C44.5956 44.7139 44.6311 44.055 44.6603 43.1358L44.7027 42.3296ZM87.9447 16.2506V16.1647C87.9371 11.8045 86.7069 8.29362 84.2568 5.62925C80.8047 1.87428 75.3145 -0.00361633 67.7879 -0.00361633C60.7273 -0.00361633 55.2194 1.83559 51.2621 5.51287C47.3049 9.19016 45.3257 14.2015 45.3257 20.5494C45.3257 24.4195 46.0444 27.7489 47.4786 30.5347C47.772 31.1044 48.0997 31.6645 48.4634 32.2133H67.2087L63.8308 29.606C61.6582 27.9804 60.1272 26.4136 59.2348 24.9038C58.3425 23.3933 57.8963 21.5952 57.8963 19.5043C57.8963 16.9499 58.691 14.8798 60.2811 13.2917C61.8724 11.7059 64.1427 10.9125 67.0903 10.9125C70.1936 10.9125 72.4835 11.8223 73.9583 13.64C75.0825 15.0284 75.5737 16.9694 75.4329 19.4619C75.4196 19.7015 75.514 19.9329 75.6891 20.0967C75.8398 20.2371 76.0395 20.3147 76.2423 20.3147C76.2766 20.3147 76.3089 20.3117 76.3431 20.3084C78.7976 20.0025 85.1135 19.2172 87.1562 18.9637C87.5358 18.9163 87.8311 18.6089 87.8623 18.2271C87.9155 17.5505 87.9434 16.8917 87.9447 16.2506Z" fill="white"></path>
  </g>
  <defs>
    <clipPath id="clip0_71_218">
      <rect width="143" height="78" fill="white"></rect>
    </clipPath>
  </defs>
</svg>
