<?xml version="1.0" encoding="UTF-8"?>
<svg xmlns="http://www.w3.org/2000/svg" width="274" height="72" viewBox="0 0 274 72" fill="none">
  <path d="M26.3223 12.8905H0V13.534H26.5689L26.3223 12.8905ZM0 34.1303L30.1836 22.9029L29.9338 22.2532L0 33.3862V34.1303ZM0 32.7365L29.7134 21.6817L27.96 17.1397H0V32.7365ZM17.1596 0H0V12.2799H26.084L23.3134 5.09702H17.1596V0ZM61.4793 51.4456C61.4793 62.4032 52.5468 71.2851 41.5293 71.2851C30.5119 71.2851 21.581 62.4032 21.581 51.4456C21.581 44.7471 24.9216 38.8312 30.0335 35.2382L30.5888 36.0602C25.7444 39.471 22.5768 45.0878 22.5768 51.4456C22.5768 61.8575 31.0638 70.2976 41.5293 70.2976C51.9983 70.2976 60.485 61.8575 60.485 51.4456C60.485 41.0304 51.9983 32.5937 41.5293 32.5937C39.0215 32.5937 36.6279 33.0811 34.4337 33.9678L34.0794 33.0421C36.3832 32.1163 38.8941 31.603 41.5293 31.603C52.5468 31.603 61.4793 40.4878 61.4793 51.4456ZM41.5293 35.5531C50.3543 35.5531 57.5103 42.6679 57.5103 51.4456C57.5103 60.2202 50.3543 67.3348 41.5293 67.3348C32.7047 67.3348 25.5534 60.2202 25.5534 51.4456C25.5534 42.6679 32.7047 35.5531 41.5293 35.5531ZM62.201 51.4456C62.201 40.0917 52.9452 30.8884 41.5293 30.8884C38.8042 30.8884 36.2068 31.4177 33.8231 32.3727L33.3006 31.0051C33.2907 31.0084 33.2842 31.0115 33.2743 31.0149L32.9903 30.2775C33.0002 30.2742 33.0067 30.2708 33.0164 30.2677L31.4817 26.2685L0 37.98V71.4476H30.9838C23.6904 67.6598 18.7092 60.0709 18.7092 51.3222C18.7092 43.6617 22.5296 36.9013 28.3748 32.7919L28.8171 33.4449H28.8139L28.8662 33.5163L29.6286 34.6405C24.3256 38.3634 20.861 44.4969 20.861 51.4456C20.861 62.7998 30.1135 71.9998 41.5293 71.9998C52.9452 71.9998 62.201 62.7998 62.201 51.4456Z" fill="white"></path>
  <path d="M32.7732 19.544L36.4941 29.1893C36.7017 29.1404 36.9123 29.0949 37.1228 29.0558L33.4556 19.5474C33.2304 19.5795 33.0035 19.5862 32.7732 19.544ZM39.2095 11.4548C40.2396 11.4289 41.1017 11.299 41.8217 11.0843L42.0717 13.4657C41.4871 13.625 40.8714 13.719 40.2331 13.719C39.4201 13.719 39.0754 12.4812 39.2095 11.4548ZM42.4128 10.8667C43.2486 10.5192 43.8383 10.0222 44.2348 9.42118L45.3352 11.4809C44.6072 12.2636 43.6979 12.8876 42.6708 13.274L42.4128 10.8667ZM45.7598 10.971L44.5795 8.76503C44.8536 8.07941 44.9418 7.29337 44.8912 6.4455L47.0512 8.06335C46.8503 9.14175 46.403 10.1327 45.7598 10.971ZM29.6564 13.5632C29.4589 14.304 30.0204 15.639 30.3714 16.5521C31.0509 18.3096 32.5921 19.401 33.7969 18.943C33.8297 18.9298 33.8557 18.9039 33.8902 18.8879L37.7662 28.9391C38.992 28.7376 40.2494 28.624 41.5309 28.624C54.1324 28.624 64.3515 38.789 64.3515 51.3222C64.3515 60.0709 59.3701 67.6598 52.0767 71.4476H71.8145V0H51.2538V5.10037H46.9435C47.0873 5.64964 47.1673 6.22455 47.1673 6.81887C47.1673 7.00412 47.1574 7.18936 47.1442 7.3679L44.8406 5.64293L44.8177 5.67552C44.79 5.49028 44.7474 5.29209 44.7101 5.10037H43.985C45.0709 9.45042 42.6168 10.7141 39.3774 10.8116C39.5473 10.3925 39.8281 10.0967 40.2331 10.0967C42.0519 10.0967 43.5264 8.62843 43.5264 6.81887C43.5264 6.18884 43.3433 5.59764 43.0316 5.10037H28.5657L31.4149 12.4783C30.8139 12.647 29.8376 12.8972 29.6564 13.5632ZM30.5935 12.1273L27.8816 5.10037H27.1992L30.0043 12.3707C30.1953 12.2799 30.3962 12.1989 30.5935 12.1273Z" fill="white"></path>
  <path d="M252.821 46.2416H261.448C264.354 46.2416 266.248 47.5246 266.248 50.5559V51.0172C266.248 53.9083 264.726 55.5621 261.265 55.5621H252.821V46.2416ZM266.294 71.6332H274L265.879 60.5714C270.356 59.2816 273.034 55.7926 273.034 51.0625V50.4682C273.034 44.312 268.88 40.6411 261.768 40.6411H246.172V71.6332H252.821V61.1171H259.185L266.294 71.6332ZM224.431 45.92C229.741 45.92 232.833 49.2271 232.833 55.1981V56.9882C232.833 62.8195 229.787 66.3085 224.477 66.3085C219.171 66.3085 216.124 62.8651 216.124 56.9882V55.1981C216.124 49.1784 219.217 45.92 224.431 45.92ZM224.431 40.2739C214.923 40.2739 209.11 46.1474 209.11 55.2858V57.1246C209.11 66.0324 215.066 72.0001 224.477 72.0001C233.895 72.0001 239.896 66.0324 239.896 57.1246V55.2858C239.896 46.0144 233.94 40.2739 224.431 40.2739ZM207.487 40.6411H184.136L178.99 46.3779H189.995V71.6332H196.963V46.3779H207.487V40.6411ZM180.587 40.6411H172.002L159.263 55.8382V40.6411H152.341V71.6332H159.263V64.1484L164.018 58.9147L172.648 71.6332H180.495L168.172 54.321L180.587 40.6411ZM130.603 45.92C135.909 45.92 139.002 49.2271 139.002 55.1981V56.9882C139.002 62.8195 135.957 66.3085 130.65 66.3085C125.341 66.3085 122.294 62.8651 122.294 56.9882V55.1981C122.294 49.1784 125.387 45.92 130.603 45.92ZM130.603 40.2739C121.094 40.2739 115.279 46.1474 115.279 55.2858V57.1246C115.279 66.0324 121.235 72.0001 130.65 72.0001C140.063 72.0001 146.065 66.0324 146.065 57.1246V55.2858C146.065 46.0144 140.112 40.2739 130.603 40.2739ZM94.4633 46.336C100.279 46.336 103.141 49.1784 103.141 55.4255V56.8941C103.141 62.8651 100.049 65.938 94.3737 65.938H87.9097V46.336H94.4633ZM94.5108 40.6411H81.0361V71.6332H94.5108C105.128 71.6332 110.11 65.5256 110.11 56.6633V55.471C110.11 45.9655 104.341 40.6411 94.5108 40.6411Z" fill="white"></path>
  <path d="M163.234 5.81871C169.05 5.81871 171.91 8.66449 171.91 14.9116V16.3799C171.91 22.3509 168.818 25.4243 163.139 25.4243H156.68V5.81871H163.234ZM163.283 0.123535H149.804V31.119H163.283C173.896 31.119 178.879 25.0117 178.879 16.1493V14.9537C178.879 5.45157 173.112 0.123535 163.283 0.123535ZM123.587 19.044L128.756 5.49686L133.511 19.044H123.587ZM137.757 31.119H144.775L133.05 0.123535H124.557L112.005 31.119H118.973L121.51 24.5051H135.447L137.757 31.119ZM87.6777 5.72764H96.3113C99.2176 5.72764 101.11 7.01406 101.11 10.0451V10.4999C101.11 13.3944 99.588 15.0482 96.1251 15.0482H87.6777V5.72764ZM101.157 31.119H108.865L100.742 20.0541C105.219 18.7677 107.896 15.2787 107.896 10.5486V9.95091C107.896 3.79778 103.742 0.123535 96.6332 0.123535H81.0342V31.119H87.6777V20.6031H94.0483L101.157 31.119Z" fill="white"></path>
  <path d="M53.3253 48.4799H44.6346V39.6401H38.4285V48.4799H29.7344V54.3599H38.4285V63.2483H44.6346V54.3599H53.3253V48.4799Z" fill="white"></path>
  <path d="M247.547 17.0491H250.672L249.186 11.1203L247.547 17.0491ZM262.355 13.3324V13.001C262.355 11.7213 261.709 11.1723 260.644 11.1723H258.417V15.2525H260.586C261.8 15.2525 262.355 14.541 262.355 13.3324ZM262.427 16.8638L264.87 21.6198H262.427L260.35 17.1725H258.417V21.6198H256.174V9.27188H260.697C263.198 9.27188 264.635 10.6429 264.635 12.9689V13.313C264.635 15.0349 263.786 16.3151 262.427 16.8638ZM254.078 21.6198H251.815L251.152 18.9852H246.995L246.28 21.6198H243.997L247.733 9.27188H250.672L254.078 21.6198ZM241.94 21.6198H239.792V13.2253L237.104 18.4946H236.18L233.499 13.2253V21.6198H231.363V9.27188H233.515L236.644 15.4928L239.792 9.27188H241.94V21.6198ZM228.258 21.6198H225.923V9.27188H228.258V21.6198ZM223.327 11.2274H217.832V14.4111H222.318V16.3505H217.832V19.6641H223.292V21.6198H215.53V9.27188H223.327V11.2274ZM213.361 9.27188L210.896 21.6198H207.915L206.298 11.7244L204.607 21.6198H201.645L199.219 9.27188H201.573L203.098 19.8072L204.956 9.27188H207.621L209.443 19.7909L210.984 9.27188H213.361ZM193.253 31.2749H270.715V0H193.253V31.2749Z" fill="white"></path>
  <path d="M46.538 0.58168V2.41712L45.9505 2.46266V2.8492H47.877V2.45595L47.3546 2.41712V0.0877704H46.9496L45.8801 0.259836L45.9208 0.633683L46.538 0.58168ZM43.9044 0.58168V2.41712L43.315 2.46266V2.8492H45.2418V2.45595L44.7193 2.41712V0.0877704H44.3159L43.2449 0.259836L43.2858 0.633683L43.9044 0.58168ZM40.5331 1.47508C40.5331 0.75063 40.7012 0.380138 41.1157 0.380138C41.5226 0.380138 41.6842 0.730979 41.6842 1.45543C41.6842 2.18634 41.5763 2.56978 41.1225 2.56978C40.68 2.56978 40.5331 2.1897 40.5331 1.47508ZM39.6611 1.50431C39.6611 2.37806 40.1493 2.90432 41.0979 2.90432C41.8752 2.90432 42.5526 2.49189 42.5526 1.45878C42.5526 0.41273 41.8948 0.0292969 41.1355 0.0292969C40.3435 0.0292969 39.6611 0.471203 39.6611 1.50431ZM37.4242 0.33796C37.7689 0.33796 37.9012 0.555798 37.9012 0.903284C37.9012 1.32242 37.6907 1.74468 36.5918 2.38453V2.8492H38.9281L38.9654 1.72838H38.6539C38.5771 2.0694 38.4644 2.24482 37.9617 2.24482H37.3036V2.22541C38.1722 1.82903 38.7713 1.46837 38.7713 0.880517C38.7713 0.422555 38.4906 0.0292969 37.661 0.0292969C36.9295 0.0292969 36.487 0.389963 36.487 0.851281C36.487 1.08182 36.6211 1.27354 36.8984 1.27354C37.1696 1.27354 37.3036 1.12735 37.3036 0.929165C37.3036 0.854636 37.2872 0.782982 37.266 0.705097H37.0733C37.062 0.66939 37.0521 0.633683 37.0521 0.597736C37.0521 0.445321 37.1793 0.33796 37.4242 0.33796ZM33.5649 2.44636C33.5649 2.66396 33.6788 2.89785 34.0464 2.89785C34.3549 2.89785 34.5183 2.71285 34.5183 2.43653C34.5183 2.13123 34.3174 1.99463 34.0365 1.99463C33.7296 1.99463 33.5649 2.1897 33.5649 2.44636ZM31.078 2.47248V0.497085H31.1401C31.6821 0.497085 32.0577 0.630327 32.0577 1.45878C32.0577 2.20288 31.7997 2.47248 31.1647 2.47248H31.078ZM32.8904 1.4329C32.8904 0.467848 32.2012 0.113892 31.1743 0.113892H30.007V0.471203L30.291 0.497085V2.46266L30.007 2.49189V2.8492H31.0568C32.0463 2.8492 32.8904 2.53383 32.8904 1.4329ZM29.3653 0.113892H26.7366L26.6976 1.11106H27.0517C27.1384 0.640153 27.2494 0.510026 27.6592 0.510026V2.45283L27.2591 2.48207V2.8492H28.8544V2.48207L28.4493 2.45283V0.510026C28.8576 0.510026 28.944 0.59462 29.05 1.11106H29.4063L29.3653 0.113892ZM25.0581 2.53095C24.6337 2.53095 24.4396 2.31 24.3398 1.96539H23.9482L23.9889 2.90432H24.3302C24.3723 2.78091 24.3938 2.73537 24.4557 2.73537C24.5667 2.73537 24.717 2.90432 25.1791 2.90432C25.7097 2.90432 26.1457 2.5439 26.1457 1.98816C26.1457 1.34183 25.6998 1.20859 25.0957 1.06576C24.7578 0.984523 24.5128 0.929165 24.5128 0.714922C24.5128 0.50044 24.7204 0.4192 24.9375 0.4192C25.3161 0.4192 25.4794 0.620502 25.5905 0.929165H25.9742L25.9448 0.0877704H25.6476C25.6165 0.16901 25.5905 0.217658 25.53 0.217658C25.4501 0.217658 25.2884 0.0585338 24.9211 0.0585338C24.2729 0.0585338 23.9089 0.445321 23.9089 0.93252C23.9089 1.41636 24.1782 1.66991 24.7871 1.7998C25.3735 1.9201 25.584 1.96228 25.584 2.20576C25.584 2.41065 25.3862 2.53095 25.0581 2.53095ZM20.6582 0.113892V0.471203L20.9193 0.50044V2.46577L20.6647 2.50172V2.8492H23.1253L23.1626 1.78039L22.8247 1.79021C22.7317 2.32294 22.624 2.46577 22.0262 2.46577H21.7015V1.63732H21.7749C22.036 1.63732 22.1228 1.66991 22.1832 2.04016H22.4641V0.909754H22.1929C22.1326 1.22489 22.0589 1.28648 21.7944 1.28648H21.7015V0.487259H22.036C22.5178 0.487259 22.6368 0.555798 22.7512 1.03629H23.086L23.0482 0.113892H20.6582Z" fill="white"></path>
</svg>
