<?xml version="1.0" encoding="UTF-8"?>
<svg xmlns="http://www.w3.org/2000/svg" width="178" height="116" viewBox="0 0 178 116" fill="none">
  <path d="M0.446289 43.9217C1.23335 43.7625 1.98135 43.6434 2.68935 43.5647C3.3981 43.4841 4.17214 43.4438 5.01071 43.4438C5.79815 43.4438 6.57087 43.4971 7.33283 43.6033C8.09253 43.7104 8.84091 43.8423 9.57664 44.0017C9.73289 44.2689 9.87705 44.6524 10.0093 45.1565C10.1386 45.6609 10.2578 46.1921 10.3626 46.7487C10.4679 47.3058 10.5594 47.8643 10.6384 48.4214C10.7169 48.9793 10.7828 49.4435 10.8349 49.8148C11.9882 48.1692 13.4053 46.6965 15.0849 45.3955C16.763 44.0959 18.8623 43.4438 21.3801 43.4438C21.9058 43.4438 22.5074 43.4717 23.1918 43.5238C23.873 43.5777 24.3715 43.6565 24.6852 43.7625C24.7899 44.2943 24.8689 44.9048 24.9229 45.5939C24.9737 46.2851 25.0001 47.0022 25.0001 47.7442C25.0001 48.6471 24.9606 49.6296 24.8833 50.69C24.8042 51.7535 24.6587 52.7613 24.45 53.7171C23.873 53.6111 23.2301 53.5578 22.5217 53.5578H21.2227C20.3315 53.5578 19.335 53.6508 18.2326 53.836C17.1317 54.0233 16.0818 54.5134 15.0849 55.3087C14.0865 56.1064 13.2612 57.3001 12.6062 58.8936C11.9488 60.4852 11.6219 62.7152 11.6219 65.5811V85.1711C10.6773 85.3304 9.73289 85.4358 8.78807 85.4896C7.84477 85.5417 6.92524 85.5685 6.03515 85.5685C5.14167 85.5685 4.23667 85.5417 3.31847 85.4896C2.40083 85.4358 1.4428 85.3304 0.446289 85.1711V43.9217Z" fill="white"></path>
  <path d="M36.6951 67.9706C36.9046 71.1551 38.0081 73.4652 40.0013 74.8987C41.9943 76.3316 44.6172 77.0482 47.8709 77.0482C49.6543 77.0482 51.4781 76.8771 53.3411 76.5306C55.2028 76.1867 56.9736 75.6953 58.6534 75.0579C59.2306 76.1203 59.728 77.3945 60.1488 78.879C60.5679 80.3671 60.8036 81.9595 60.8575 83.6584C56.7641 85.2498 52.1467 86.0464 47.0054 86.0464C43.228 86.0464 39.9869 85.5164 37.2854 84.4536C34.5824 83.393 32.3798 81.9192 30.6741 80.0351C28.9694 78.1514 27.7112 75.9078 26.8973 73.3071C26.0833 70.7051 25.6787 67.8652 25.6787 64.7861C25.6787 61.7596 26.0971 58.9203 26.937 56.2658C27.7755 53.6111 29.0221 51.3024 30.6741 49.3363C32.3282 47.3742 34.3736 45.8209 36.8142 44.678C39.2539 43.5376 42.0985 42.9673 45.3531 42.9673C48.1868 42.9673 50.7043 43.4719 52.9073 44.4785C55.1119 45.4881 56.9875 46.8684 58.5354 48.6205C60.0824 50.3727 61.2502 52.4558 62.0373 54.8707C62.8247 57.2884 63.218 59.8761 63.218 62.6348C63.218 63.6437 63.1785 64.6404 63.1 65.6216C63.0212 66.6039 62.9295 67.3873 62.8247 67.9706H36.6951ZM52.672 60.0875C52.566 57.5387 51.8714 55.483 50.5856 53.9162C49.3 52.3511 47.5026 51.567 45.1958 51.567C42.5719 51.567 40.5772 52.3114 39.2142 53.7971C37.8492 55.2827 37.0363 57.3795 36.7747 60.0875H52.672Z" fill="white"></path>
  <path d="M92.832 52.522H81.9605V85.0912C80.0716 85.4098 78.2352 85.5689 76.4516 85.5689C74.6141 85.5689 72.7528 85.4098 70.8637 85.0912V52.522H64.4112C64.2525 51.6735 64.1464 50.9031 64.0962 50.2125C64.0425 49.5235 64.0166 48.8069 64.0166 48.0627C64.0166 47.3734 64.0425 46.7095 64.0962 46.0724C64.1464 45.4353 64.2525 44.7195 64.4112 43.9223H70.8637V41.9315C70.8637 39.3829 71.3228 37.1139 72.2416 35.1223C73.1581 33.1317 74.4184 31.4593 76.0189 30.1064C77.6174 28.7527 79.5461 27.7171 81.8037 27.0005C84.0577 26.2842 86.5249 25.9258 89.2001 25.9258C91.8237 25.9258 94.2383 26.0852 96.441 26.4037C98.6439 26.7223 100.795 27.3322 102.894 28.2345C102.789 29.9867 102.514 31.6069 102.069 33.0925C101.622 34.5795 101.03 35.933 100.298 37.1529C98.4614 36.4109 96.781 35.9065 95.2607 35.6399C93.7385 35.3747 92.1128 35.2426 90.3817 35.2426C89.3839 35.2426 88.3866 35.335 87.3907 35.521C86.393 35.7075 85.5025 36.0527 84.7153 36.5572C83.9282 37.0618 83.285 37.7646 82.7864 38.667C82.2879 39.5706 82.0112 40.7365 81.9605 42.1702V43.9223H92.8657L92.832 52.522Z" fill="white"></path>
  <path d="M97.6266 43.9219H108.55V85.0907C106.661 85.4094 104.824 85.5686 103.04 85.5686C101.311 85.5686 99.4993 85.4094 97.6113 85.0907L97.6266 43.9219Z" fill="white"></path>
  <path d="M113.037 43.9232L119.103 43.9696L119.147 36.0363C122.04 35.1122 126.886 35.3545 129.523 36.0363V43.9221H139.357C139.514 44.719 139.618 45.4356 139.671 46.0727C139.723 46.7099 139.749 47.3749 139.749 48.0628C139.749 48.8072 139.723 49.5244 139.671 50.2131C139.618 50.9035 139.514 51.6739 139.357 52.5224H129.834V68.6873C129.834 70.3341 129.964 71.6616 130.228 72.6682C130.489 73.6786 130.869 74.4742 131.368 75.0581C131.868 75.6433 132.483 76.0406 133.219 76.2526C133.953 76.4651 134.818 76.571 135.816 76.571C136.601 76.571 137.376 76.5053 138.136 76.3726C138.897 76.2401 139.565 76.121 140.144 76.0139C140.51 77.023 140.774 78.0715 140.931 79.1598C141.088 80.2478 141.166 81.2171 141.166 82.0662C141.166 82.6506 141.153 83.1404 141.127 83.5388C141.101 83.9373 141.061 84.323 141.01 84.6934C138.595 85.2761 136.103 85.5692 133.534 85.5692C128.758 85.5692 125.112 84.4425 122.592 82.1851C120.075 79.9291 118.815 76.2526 118.815 71.1558V52.5224H113.081L113.037 43.9232Z" fill="white"></path>
  <path d="M2.79991 112.186C3.002 112.216 3.20127 112.237 3.39827 112.247C3.59395 112.258 3.77849 112.263 3.94964 112.263C4.12136 112.263 4.29836 112.255 4.4797 112.239C4.66179 112.224 4.84426 112.207 5.0256 112.186V103.072H7.73588C7.79626 102.765 7.82551 102.443 7.82551 102.107C7.82551 101.791 7.79626 101.479 7.73588 101.172H0.0896318C0.0298144 101.479 0 101.791 0 102.107C0 102.443 0.0298144 102.765 0.0896318 103.072H2.79991V112.186ZM9.23452 112.201C9.41586 112.232 9.59493 112.253 9.77136 112.263C9.94799 112.272 10.1214 112.278 10.2931 112.278C10.465 112.278 10.6411 112.272 10.8232 112.263C11.0043 112.253 11.187 112.232 11.3689 112.201V108.034C11.3689 107.606 11.4166 107.258 11.5119 106.993C11.6078 106.727 11.7289 106.521 11.8757 106.372C12.0212 106.225 12.1854 106.125 12.3673 106.075C12.5486 106.023 12.7256 105.998 12.8975 105.998C13.311 105.998 13.6036 106.146 13.7755 106.441C13.9461 106.738 14.0327 107.161 14.0327 107.713V112.201C14.2148 112.232 14.3962 112.253 14.5775 112.263C14.7596 112.272 14.9355 112.278 15.1072 112.278C15.2791 112.278 15.4561 112.272 15.6374 112.263C15.8188 112.253 16.0003 112.232 16.183 112.201V107.131C16.183 106.079 15.9584 105.308 15.5087 104.818C15.0589 104.328 14.4009 104.082 13.5329 104.082C13.2206 104.082 12.943 104.123 12.7 104.205C12.4582 104.286 12.2522 104.386 12.0801 104.504C11.9082 104.621 11.7638 104.744 11.6485 104.871C11.5317 104.999 11.4383 105.108 11.3689 105.201V100.989C11.187 100.957 11.0043 100.938 10.8232 100.927C10.6411 100.917 10.465 100.912 10.2931 100.912C10.1214 100.912 9.94553 100.917 9.76306 100.927C9.58172 100.938 9.40491 100.957 9.23452 100.989V112.201ZM24.8716 108.893C24.8925 108.78 24.9104 108.63 24.9248 108.44C24.9403 108.252 24.9476 108.06 24.9476 107.866C24.9476 107.335 24.8716 106.838 24.7206 106.372C24.5687 105.907 24.3442 105.507 24.0475 105.171C23.7494 104.833 23.389 104.568 22.9648 104.373C22.5402 104.179 22.056 104.082 21.5114 104.082C20.8855 104.082 20.3385 104.192 19.8686 104.412C19.4003 104.632 19.0055 104.93 18.6875 105.308C18.3703 105.686 18.1299 106.13 17.9688 106.64C17.8076 107.151 17.7274 107.697 17.7274 108.28C17.7274 108.872 17.8052 109.418 17.962 109.919C18.1179 110.419 18.3596 110.85 18.6875 111.213C19.0157 111.575 19.4399 111.859 19.9601 112.063C20.479 112.268 21.1033 112.369 21.8288 112.369C22.818 112.369 23.7062 112.216 24.4934 111.909C24.4836 111.584 24.4381 111.277 24.3574 110.991C24.2772 110.705 24.1809 110.46 24.0702 110.256C23.7469 110.378 23.4058 110.473 23.0478 110.54C22.6895 110.606 22.3381 110.639 21.9958 110.639C21.3697 110.639 20.8649 110.5 20.4815 110.226C20.0983 109.95 19.8869 109.505 19.8462 108.893H24.8716ZM19.8618 107.377C19.9122 106.855 20.0683 106.452 20.3305 106.165C20.5932 105.879 20.977 105.738 21.4814 105.738C21.925 105.738 22.2711 105.888 22.5189 106.189C22.7653 106.49 22.8983 106.885 22.9191 107.377H19.8618ZM26.6431 112.201C26.8357 112.232 27.0195 112.253 27.1963 112.263C27.3728 112.272 27.5469 112.278 27.7188 112.278C27.8892 112.278 28.0664 112.272 28.2489 112.263C28.4302 112.253 28.6121 112.232 28.7931 112.201V108.434C28.7931 107.881 28.8559 107.452 28.9822 107.146C29.108 106.841 29.2682 106.611 29.4586 106.457C29.6513 106.304 29.8536 106.209 30.0649 106.174C30.2774 106.137 30.4687 106.12 30.6406 106.12H30.8903C31.0261 106.12 31.1499 106.13 31.2601 106.151C31.3011 105.967 31.3286 105.772 31.3451 105.569C31.3588 105.364 31.3675 105.176 31.3675 105.002C31.3675 104.859 31.3613 104.721 31.3518 104.588C31.3411 104.456 31.3267 104.338 31.3062 104.236C31.2458 104.214 31.1499 104.2 31.0188 104.189C30.8878 104.179 30.7718 104.175 30.6706 104.175C30.1864 104.175 29.7824 104.3 29.4586 104.549C29.1358 104.8 28.8642 105.083 28.6421 105.399C28.6319 105.329 28.6189 105.238 28.6044 105.132C28.5889 105.025 28.5704 104.918 28.5506 104.81C28.531 104.702 28.5087 104.601 28.4834 104.504C28.4578 104.407 28.4302 104.333 28.3993 104.282C28.2581 104.252 28.1138 104.226 27.9677 104.205C27.8222 104.184 27.6732 104.175 27.5218 104.175C27.3596 104.175 27.2118 104.182 27.0746 104.198C26.9393 104.212 26.7948 104.236 26.6431 104.266V112.201ZM36.4835 110.577C36.3729 110.598 36.2418 110.621 36.0908 110.647C35.9389 110.672 35.788 110.684 35.6361 110.684C35.5055 110.684 35.35 110.677 35.1751 110.662C34.9981 110.647 34.8311 110.606 34.6748 110.54C34.519 110.473 34.3839 110.368 34.2736 110.226C34.1625 110.082 34.1074 109.878 34.1074 109.613C34.1074 109.214 34.2504 108.926 34.539 108.747C34.8262 108.568 35.2169 108.478 35.7119 108.478C35.8221 108.478 35.9483 108.487 36.0908 108.501C36.2314 108.517 36.3631 108.536 36.4835 108.555V110.577ZM36.4835 107.161C36.1303 107.131 35.8078 107.115 35.5151 107.115C35.1109 107.115 34.7071 107.159 34.3036 107.245C33.8996 107.333 33.5341 107.475 33.206 107.674C32.8778 107.874 32.6101 108.139 32.4033 108.471C32.1968 108.803 32.0932 109.214 32.0932 109.704C32.0932 110.194 32.1761 110.607 32.3435 110.946C32.5105 111.283 32.7469 111.559 33.055 111.772C33.3622 111.986 33.7315 112.139 34.1606 112.232C34.5897 112.323 35.0607 112.369 35.5749 112.369C36.2118 112.369 36.7814 112.319 37.2862 112.216C37.7914 112.114 38.2203 112.007 38.5735 111.895V107.3C38.5735 106.177 38.278 105.359 37.6878 104.848C37.0962 104.338 36.2771 104.082 35.2277 104.082C34.8431 104.082 34.4299 104.119 33.9863 104.189C33.5417 104.261 33.0981 104.373 32.6535 104.526C32.6535 104.854 32.6893 105.134 32.7595 105.369C32.8303 105.605 32.9356 105.854 33.0773 106.12C33.6926 105.905 34.2736 105.798 34.8195 105.798C35.0703 105.798 35.3009 105.814 35.5074 105.845C35.7144 105.874 35.8887 105.933 36.0293 106.021C36.171 106.107 36.2814 106.227 36.3631 106.38C36.4439 106.534 36.4835 106.732 36.4835 106.978V107.161ZM40.435 115.817C40.6258 115.847 40.8107 115.867 40.9877 115.877C41.1645 115.887 41.3389 115.893 41.5095 115.893C41.6816 115.893 41.8552 115.887 42.032 115.877C42.209 115.867 42.3928 115.847 42.5847 115.817V112.293C42.6956 112.313 42.8351 112.331 43.0006 112.346C43.1679 112.362 43.3361 112.369 43.5078 112.369C44.1733 112.369 44.77 112.269 45.2949 112.071C45.8188 111.872 46.2633 111.588 46.6266 111.22C46.9906 110.853 47.267 110.407 47.4591 109.881C47.6503 109.355 47.7463 108.76 47.7463 108.096C47.7463 107.412 47.6686 106.82 47.5125 106.319C47.3563 105.819 47.1361 105.403 46.8536 105.071C46.5715 104.739 46.2411 104.491 45.8622 104.328C45.484 104.164 45.0776 104.082 44.6432 104.082C44.3611 104.082 44.1039 104.122 43.8718 104.198C43.6389 104.275 43.4295 104.373 43.2432 104.496C43.0559 104.619 42.8977 104.759 42.7668 104.918C42.6356 105.076 42.5239 105.237 42.4335 105.399C42.4228 105.329 42.4109 105.238 42.3952 105.132C42.3807 105.025 42.3603 104.916 42.3352 104.803C42.3099 104.69 42.2843 104.586 42.2592 104.489C42.2341 104.391 42.2065 104.317 42.1765 104.266C41.8827 104.205 41.5961 104.175 41.313 104.175C41.1413 104.175 40.9877 104.179 40.8509 104.189C40.715 104.2 40.5767 104.22 40.435 104.252V115.817ZM42.5847 107.805C42.5847 107.549 42.6105 107.309 42.6607 107.085C42.7113 106.86 42.7919 106.664 42.9021 106.496C43.0138 106.327 43.157 106.194 43.3336 106.098C43.5106 106 43.7255 105.951 43.9776 105.951C44.2494 105.951 44.479 106.007 44.6666 106.12C44.8526 106.233 45.0064 106.385 45.1274 106.579C45.2493 106.773 45.3346 107.005 45.3853 107.277C45.4355 107.547 45.4606 107.842 45.4606 108.157C45.4606 108.984 45.2949 109.602 44.9621 110.011C44.6277 110.419 44.1484 110.623 43.5238 110.623C43.17 110.623 42.8577 110.583 42.5847 110.5V107.805ZM49.8509 112.186C50.2153 112.247 50.5621 112.278 50.8951 112.278C51.2389 112.278 51.592 112.247 51.9552 112.186V104.266H48.8364C48.7764 104.532 48.7461 104.803 48.7461 105.078C48.7461 105.211 48.7538 105.352 48.7695 105.499C48.7838 105.648 48.8064 105.788 48.8364 105.921H49.8509V112.186ZM50.0934 102.995C50.2956 103.005 50.477 103.01 50.6379 103.01C50.8098 103.01 50.9935 103.005 51.1905 102.995C51.388 102.984 51.5722 102.965 51.7439 102.934C51.7739 102.761 51.7943 102.587 51.8039 102.413C51.8147 102.239 51.819 102.071 51.819 101.907C51.819 101.735 51.8147 101.562 51.8039 101.394C51.7943 101.226 51.7739 101.055 51.7439 100.881C51.5722 100.85 51.3856 100.827 51.1838 100.812C50.9816 100.796 50.7942 100.79 50.6236 100.79C50.4613 100.79 50.2824 100.796 50.0868 100.812C49.8892 100.827 49.7041 100.85 49.5335 100.881C49.4725 101.238 49.4425 101.581 49.4425 101.907C49.4425 102.244 49.4725 102.587 49.5335 102.934C49.7041 102.965 49.8916 102.984 50.0934 102.995ZM60.8116 108.893C60.8322 108.78 60.8495 108.63 60.8654 108.44C60.8797 108.252 60.8873 108.06 60.8873 107.866C60.8873 107.335 60.8116 106.838 60.6603 106.372C60.5095 105.907 60.2851 105.507 59.987 105.171C59.6892 104.833 59.3286 104.568 58.9041 104.373C58.4812 104.179 57.9957 104.082 57.4511 104.082C56.8254 104.082 56.2783 104.192 55.8085 104.412C55.3399 104.632 54.9454 104.93 54.6285 105.308C54.31 105.686 54.0698 106.13 53.9085 106.64C53.7473 107.151 53.6664 107.697 53.6664 108.28C53.6664 108.872 53.7449 109.418 53.9011 109.919C54.0572 110.419 54.3004 110.85 54.6285 111.213C54.9554 111.575 55.3796 111.859 55.9002 112.063C56.4185 112.268 57.0427 112.369 57.7687 112.369C58.7576 112.369 59.6458 112.216 60.4346 111.909C60.4233 111.584 60.3772 111.277 60.297 110.991C60.2166 110.705 60.1202 110.46 60.0096 110.256C59.6866 110.378 59.3466 110.473 58.9886 110.54C58.6293 110.606 58.278 110.639 57.9353 110.639C57.3096 110.639 56.8046 110.5 56.4214 110.226C56.0379 109.95 55.8266 109.505 55.7858 108.893H60.8116ZM55.8015 107.377C55.8517 106.855 56.0079 106.452 56.27 106.165C56.5329 105.879 56.9171 105.738 57.4211 105.738C57.8645 105.738 58.211 105.888 58.4587 106.189C58.7044 106.49 58.8393 106.885 58.8588 107.377H55.8015ZM69.7129 105.048C69.421 105.048 69.1758 105.02 68.979 104.963C68.7834 104.907 68.6232 104.825 68.5028 104.718C68.3818 104.611 68.295 104.484 68.2442 104.336C68.1942 104.187 68.1691 104.026 68.1691 103.853C68.1691 103.536 68.2758 103.263 68.4871 103.033C68.6984 102.803 69.0473 102.689 69.5315 102.689C69.7129 102.689 69.9356 102.701 70.1977 102.727C70.4603 102.752 70.7585 102.826 71.0913 102.95C71.4038 102.459 71.5601 101.923 71.5601 101.341C71.1674 101.198 70.786 101.103 70.4173 101.057C70.0482 101.011 69.7176 100.989 69.4261 100.989C68.9511 100.989 68.5103 101.047 68.1012 101.164C67.6929 101.282 67.3338 101.456 67.0256 101.686C66.7182 101.915 66.4767 102.203 66.3001 102.55C66.1237 102.898 66.0344 103.302 66.0344 103.761C66.0344 104.323 66.1714 104.79 66.4427 105.162C66.7156 105.535 67.0394 105.824 67.4127 106.028C67.1906 106.12 66.9703 106.26 66.7539 106.449C66.5371 106.639 66.342 106.866 66.1714 107.131C65.9995 107.396 65.8602 107.693 65.7542 108.02C65.6489 108.346 65.5955 108.694 65.5955 109.061C65.5955 109.664 65.7108 110.175 65.944 110.593C66.1763 111.011 66.4862 111.354 66.8747 111.619C67.264 111.884 67.7048 112.077 68.1997 112.193C68.6941 112.312 69.2034 112.369 69.7286 112.369C70.4448 112.369 71.0913 112.29 71.6659 112.133C72.2416 111.974 72.733 111.733 73.143 111.413C73.5514 111.09 73.8639 110.694 74.0814 110.226C74.2981 109.755 74.4058 109.204 74.4058 108.571V106.701H75.9501C75.9814 106.539 76.0009 106.391 76.0116 106.258C76.0209 106.125 76.0262 105.986 76.0262 105.845C76.0262 105.712 76.0209 105.584 76.0116 105.462C76.0009 105.338 75.9814 105.201 75.9501 105.048H74.4058V102.888H74.0731L72.2865 105.048H69.7129ZM72.3171 108.004C72.3077 108.32 72.2686 108.626 72.2041 108.923C72.1377 109.219 72.0192 109.485 71.8484 109.72C71.6767 109.954 71.4414 110.143 71.144 110.286C70.846 110.43 70.4562 110.5 69.9697 110.5C69.2543 110.5 68.7417 110.328 68.4345 109.98C68.1263 109.633 67.9729 109.174 67.9729 108.601C67.9729 108.041 68.1365 107.583 68.4645 107.23C68.7924 106.878 69.2287 106.701 69.774 106.701H72.3171V108.004ZM82.9144 112.186C83.1163 112.216 83.3148 112.237 83.5116 112.247C83.7092 112.258 83.893 112.263 84.0649 112.263C84.2366 112.263 84.4131 112.255 84.5951 112.239C84.7761 112.224 84.9575 112.207 85.1394 112.186V103.072H87.8493C87.9106 102.765 87.9408 102.443 87.9408 102.107C87.9408 101.791 87.9106 101.479 87.8493 101.172H80.2049C80.1434 101.479 80.1134 101.791 80.1134 102.107C80.1134 102.443 80.1434 102.765 80.2049 103.072H82.9144V112.186ZM88.0159 112.201C88.2072 112.232 88.3923 112.253 88.5693 112.263C88.7441 112.272 88.9184 112.278 89.0905 112.278C89.2624 112.278 89.4392 112.272 89.6206 112.263C89.8023 112.253 89.9836 112.232 90.1663 112.201V108.434C90.1663 107.881 90.2287 107.452 90.355 107.146C90.481 106.841 90.6397 106.611 90.8314 106.457C91.0226 106.304 91.2247 106.209 91.4379 106.174C91.6487 106.137 91.8404 106.12 92.0125 106.12H92.2618C92.3995 106.12 92.5214 106.13 92.6335 106.151C92.6733 105.967 92.7022 105.772 92.7169 105.569C92.7322 105.364 92.739 105.176 92.739 105.002C92.739 104.859 92.7341 104.721 92.7235 104.588C92.7145 104.456 92.6986 104.338 92.679 104.236C92.6182 104.214 92.5214 104.2 92.3905 104.189C92.2599 104.179 92.1435 104.175 92.0436 104.175C91.5579 104.175 91.1543 104.3 90.8314 104.549C90.5086 104.8 90.2361 105.083 90.0149 105.399C90.0032 105.329 89.9923 105.238 89.9763 105.132C89.9604 105.025 89.9444 104.918 89.9236 104.81C89.9029 104.702 89.8802 104.601 89.8551 104.504C89.8298 104.407 89.8023 104.333 89.7723 104.282C89.6306 104.252 89.4875 104.226 89.3409 104.205C89.1941 104.184 89.0446 104.175 88.8933 104.175C88.7324 104.175 88.5837 104.182 88.4474 104.198C88.3108 104.212 88.1678 104.236 88.0159 104.266V112.201ZM97.8563 110.577C97.7448 110.598 97.6136 110.621 97.4623 110.647C97.311 110.672 97.1591 110.684 97.0085 110.684C96.8773 110.684 96.723 110.677 96.5465 110.662C96.3701 110.647 96.204 110.606 96.0467 110.54C95.8906 110.473 95.757 110.368 95.6461 110.226C95.5346 110.082 95.4789 109.878 95.4789 109.613C95.4789 109.214 95.6234 108.926 95.9106 108.747C96.1974 108.568 96.5894 108.478 97.0832 108.478C97.1953 108.478 97.3221 108.487 97.4623 108.501C97.6038 108.517 97.7348 108.536 97.8563 108.555V110.577ZM97.8563 107.161C97.5032 107.131 97.18 107.115 96.8877 107.115C96.4841 107.115 96.0797 107.159 95.6766 107.245C95.2724 107.333 94.9062 107.475 94.579 107.674C94.2506 107.874 93.9831 108.139 93.7766 108.471C93.5696 108.803 93.466 109.214 93.466 109.704C93.466 110.194 93.5487 110.607 93.7166 110.946C93.8819 111.283 94.1189 111.559 94.4278 111.772C94.7352 111.986 95.1034 112.139 95.5321 112.232C95.961 112.323 96.4339 112.369 96.9485 112.369C97.5836 112.369 98.1525 112.319 98.6592 112.216C99.1627 112.114 99.5921 112.007 99.945 111.895V107.3C99.945 106.177 99.651 105.359 99.0592 104.848C98.4688 104.338 97.6504 104.082 96.5992 104.082C96.2158 104.082 95.8029 104.119 95.3581 104.189C94.9147 104.261 94.4699 104.373 94.0265 104.526C94.0265 104.854 94.0614 105.134 94.132 105.369C94.2029 105.605 94.3082 105.854 94.4505 106.12C95.0654 105.905 95.6461 105.798 96.1912 105.798C96.4429 105.798 96.6728 105.814 96.8798 105.845C97.0856 105.874 97.2608 105.933 97.4023 106.021C97.5425 106.107 97.654 106.227 97.7348 106.38C97.8157 106.534 97.8563 106.732 97.8563 106.978V107.161ZM102.276 112.186C102.64 112.247 102.988 112.278 103.321 112.278C103.664 112.278 104.018 112.247 104.381 112.186V104.266H101.262C101.202 104.532 101.171 104.803 101.171 105.078C101.171 105.211 101.18 105.352 101.194 105.499C101.209 105.648 101.233 105.788 101.262 105.921H102.276V112.186ZM102.519 102.995C102.721 103.005 102.902 103.01 103.064 103.01C103.236 103.01 103.419 103.005 103.616 102.995C103.814 102.984 103.998 102.965 104.17 102.934C104.2 102.761 104.219 102.587 104.229 102.413C104.239 102.239 104.245 102.071 104.245 101.907C104.245 101.735 104.239 101.562 104.229 101.394C104.219 101.226 104.2 101.055 104.17 100.881C103.998 100.85 103.811 100.827 103.609 100.812C103.407 100.796 103.22 100.79 103.049 100.79C102.886 100.79 102.708 100.796 102.511 100.812C102.315 100.827 102.129 100.85 101.959 100.881C101.898 101.238 101.868 101.581 101.868 101.907C101.868 102.244 101.898 102.587 101.959 102.934C102.129 102.965 102.318 102.984 102.519 102.995ZM106.501 112.186C106.864 112.247 107.222 112.278 107.575 112.278C107.929 112.278 108.287 112.247 108.649 112.186V108.034C108.649 107.606 108.695 107.258 108.786 106.993C108.877 106.727 108.996 106.521 109.143 106.372C109.288 106.225 109.452 106.125 109.634 106.075C109.816 106.023 109.992 105.998 110.164 105.998C110.577 105.998 110.868 106.146 111.035 106.441C111.201 106.738 111.284 107.161 111.284 107.713V112.186C111.648 112.247 112.006 112.278 112.359 112.278C112.712 112.278 113.071 112.247 113.434 112.186V107.131C113.434 106.079 113.209 105.308 112.759 104.818C112.311 104.328 111.642 104.082 110.754 104.082C110.472 104.082 110.214 104.122 109.982 104.198C109.751 104.275 109.54 104.373 109.354 104.496C109.167 104.619 109.003 104.756 108.863 104.909C108.72 105.062 108.599 105.216 108.499 105.369C108.489 105.298 108.475 105.211 108.461 105.108C108.446 105.006 108.429 104.902 108.408 104.795C108.388 104.688 108.365 104.586 108.339 104.489C108.315 104.391 108.287 104.317 108.257 104.266C108.115 104.236 107.979 104.212 107.848 104.198C107.716 104.182 107.564 104.175 107.394 104.175C107.222 104.175 107.065 104.182 106.924 104.198C106.784 104.212 106.641 104.236 106.501 104.266V112.186ZM115.811 112.186C116.174 112.247 116.523 112.278 116.855 112.278C117.197 112.278 117.551 112.247 117.915 112.186V104.266H114.797C114.736 104.532 114.706 104.803 114.706 105.078C114.706 105.211 114.712 105.352 114.728 105.499C114.744 105.648 114.766 105.788 114.797 105.921H115.811V112.186ZM116.053 102.995C116.254 103.005 116.436 103.01 116.598 103.01C116.769 103.01 116.954 103.005 117.15 102.995C117.347 102.984 117.531 102.965 117.703 102.934C117.732 102.761 117.753 102.587 117.764 102.413C117.774 102.239 117.779 102.071 117.779 101.907C117.779 101.735 117.774 101.562 117.764 101.394C117.753 101.226 117.732 101.055 117.703 100.881C117.531 100.85 117.344 100.827 117.142 100.812C116.941 100.796 116.755 100.79 116.582 100.79C116.421 100.79 116.242 100.796 116.045 100.812C115.848 100.827 115.664 100.85 115.493 100.881C115.433 101.238 115.402 101.581 115.402 101.907C115.402 102.244 115.433 102.587 115.493 102.934C115.664 102.965 115.85 102.984 116.053 102.995ZM120.034 112.186C120.397 112.247 120.756 112.278 121.11 112.278C121.462 112.278 121.821 112.247 122.184 112.186V108.034C122.184 107.606 122.23 107.258 122.32 106.993C122.411 106.727 122.529 106.521 122.676 106.372C122.823 106.225 122.987 106.125 123.168 106.075C123.349 106.023 123.527 105.998 123.699 105.998C124.112 105.998 124.402 106.146 124.568 106.441C124.735 106.738 124.818 107.161 124.818 107.713V112.186C125.181 112.247 125.54 112.278 125.893 112.278C126.247 112.278 126.604 112.247 126.968 112.186V107.131C126.968 106.079 126.744 105.308 126.294 104.818C125.845 104.328 125.176 104.082 124.289 104.082C124.006 104.082 123.749 104.122 123.516 104.198C123.284 104.275 123.074 104.373 122.888 104.496C122.701 104.619 122.537 104.756 122.396 104.909C122.255 105.062 122.133 105.216 122.032 105.369C122.022 105.298 122.01 105.211 121.994 105.108C121.98 105.006 121.961 104.902 121.942 104.795C121.921 104.688 121.899 104.586 121.874 104.489C121.849 104.391 121.821 104.317 121.79 104.266C121.649 104.236 121.513 104.212 121.382 104.198C121.251 104.182 121.099 104.175 120.927 104.175C120.756 104.175 120.599 104.182 120.458 104.198C120.316 104.212 120.176 104.236 120.034 104.266V112.186ZM131.238 110.837C130.914 110.827 130.7 110.771 130.595 110.669C130.487 110.567 130.434 110.435 130.434 110.271C130.434 110.159 130.455 110.039 130.495 109.91C130.536 109.783 130.641 109.664 130.813 109.55C131.157 109.643 131.545 109.689 131.979 109.689C132.494 109.689 132.955 109.618 133.365 109.474C133.772 109.332 134.118 109.138 134.401 108.893C134.684 108.647 134.898 108.354 135.044 108.011C135.191 107.669 135.265 107.3 135.265 106.901C135.265 106.667 135.244 106.478 135.203 106.335C135.163 106.191 135.118 106.07 135.067 105.967H136.293C136.324 105.793 136.343 105.625 136.355 105.462C136.364 105.298 136.369 105.134 136.369 104.971C136.369 104.828 136.361 104.692 136.346 104.565C136.332 104.438 136.313 104.307 136.293 104.175C135.809 104.175 135.425 104.238 135.143 104.366C134.86 104.493 134.623 104.686 134.432 104.941C134.149 104.696 133.796 104.493 133.371 104.336C132.947 104.177 132.483 104.098 131.979 104.098C131.464 104.098 130.999 104.17 130.586 104.312C130.172 104.456 129.822 104.652 129.535 104.902C129.246 105.152 129.027 105.448 128.876 105.791C128.724 106.133 128.649 106.502 128.649 106.901C128.649 107.351 128.744 107.758 128.936 108.127C129.128 108.494 129.399 108.805 129.753 109.061C129.44 109.286 129.204 109.52 129.041 109.766C128.88 110.011 128.8 110.328 128.8 110.716C128.8 111.043 128.867 111.311 129.004 111.519C129.14 111.729 129.324 111.905 129.557 112.049C129.193 112.272 128.903 112.532 128.686 112.829C128.469 113.125 128.36 113.503 128.36 113.962C128.36 114.269 128.419 114.55 128.535 114.805C128.65 115.06 128.842 115.275 129.11 115.448C129.377 115.623 129.722 115.757 130.147 115.855C130.571 115.952 131.086 116 131.692 116C132.297 116 132.862 115.934 133.387 115.801C133.911 115.668 134.365 115.479 134.749 115.234C135.133 114.988 135.435 114.691 135.657 114.338C135.88 113.986 135.99 113.595 135.99 113.166C135.99 112.441 135.774 111.881 135.341 111.489C134.906 111.096 134.229 110.89 133.311 110.869L131.238 110.837ZM132.963 112.492C133.175 112.492 133.344 112.517 133.47 112.569C133.596 112.62 133.695 112.683 133.766 112.76C133.836 112.836 133.883 112.921 133.908 113.013C133.934 113.106 133.947 113.202 133.947 113.304C133.947 113.651 133.753 113.927 133.365 114.131C132.975 114.336 132.463 114.438 131.827 114.438C131.343 114.438 130.957 114.368 130.668 114.231C130.381 114.092 130.237 113.83 130.237 113.442C130.237 113.329 130.255 113.215 130.291 113.098C130.326 112.98 130.386 112.873 130.473 112.775C130.558 112.678 130.675 112.599 130.82 112.538C130.966 112.476 131.151 112.451 131.373 112.462L132.963 112.492ZM131.055 107.912C130.863 107.667 130.767 107.33 130.767 106.901C130.767 106.472 130.863 106.133 131.055 105.882C131.247 105.633 131.561 105.507 131.995 105.507C132.418 105.507 132.723 105.633 132.91 105.882C133.096 106.133 133.19 106.472 133.19 106.901C133.19 107.33 133.096 107.667 132.91 107.912C132.723 108.157 132.418 108.28 131.995 108.28C131.561 108.28 131.247 108.157 131.055 107.912Z" fill="white"></path>
  <path d="M173.739 20.9062C173.262 21.9269 172.669 22.8846 171.97 23.7646C170.998 25.7543 169.558 27.4883 167.733 28.8296C167.39 29.0819 167.037 29.318 166.677 29.5357C167.469 29.3472 168.246 29.0887 168.996 28.7578C171.386 26.7199 173.036 23.989 173.739 20.9062ZM146.609 11.3104C146.024 12.5612 145.612 13.9019 145.394 15.3051C145.28 16.0228 145.221 16.7393 145.213 17.4515V17.7973C145.248 20.7983 146.195 23.7089 147.975 26.1875C150.244 29.3459 153.591 31.4234 157.404 32.0335C158.109 32.1469 158.814 32.207 159.515 32.2162H159.879C162.366 32.1847 164.789 31.5034 166.951 30.2217C166.149 30.4176 165.332 30.544 164.506 30.5978C162.972 31.185 161.348 31.4849 159.695 31.4849C158.972 31.4849 158.246 31.4278 157.518 31.3114C153.895 30.7311 150.715 28.7578 148.56 25.7568C146.404 22.7558 145.533 19.0845 146.107 15.421C146.143 15.1897 146.184 14.961 146.231 14.7355C146.228 13.9403 146.287 13.1371 146.413 12.3363C146.467 11.9903 146.532 11.6489 146.609 11.3104ZM156.263 3.37516C154.449 3.81907 152.724 4.62289 151.172 5.76523C150.113 6.54308 149.178 7.44484 148.38 8.45066C147.903 9.42823 147.537 10.4688 147.296 11.5535C148.268 9.5088 149.732 7.72742 151.597 6.35711C152.424 5.749 153.301 5.24208 154.217 4.83979C154.488 4.60857 154.767 4.38671 155.055 4.1742C155.447 3.88723 155.85 3.62069 156.263 3.37516ZM159.637 2.96924C159.325 2.96924 159.017 2.97859 158.71 2.9996C157.961 3.28656 157.234 3.64055 156.536 4.0606C157.548 3.8227 158.587 3.7005 159.636 3.7005C160.358 3.7005 161.085 3.75816 161.813 3.87482C169.289 5.07215 174.407 12.2011 173.223 19.7658C173.176 20.0682 173.12 20.3663 173.053 20.6632C173.529 19.6634 173.886 18.6017 174.116 17.4943C174.073 10.4682 169.003 4.28628 161.926 3.15158C161.161 3.02995 160.397 2.96924 159.637 2.96924Z" fill="white"></path>
  <path d="M156.536 4.06169C155.743 4.24881 154.968 4.50923 154.217 4.84012C151.565 7.10188 149.824 10.2163 149.276 13.7169C148.674 17.5739 149.59 21.4383 151.859 24.5974C152.319 25.2384 152.824 25.8352 153.368 26.3838C154.264 26.9552 155.225 27.4182 156.237 27.7676C154.776 26.8368 153.489 25.622 152.443 24.1667C150.288 21.1662 149.417 17.4952 149.991 13.8316C150.565 10.1661 152.513 6.94742 155.48 4.76699C155.824 4.5142 156.176 4.27916 156.536 4.06169ZM163.518 1.37988C160.966 1.37988 158.476 2.06284 156.263 3.37625C157.063 3.18036 157.882 3.05396 158.71 3.0005C160.243 2.41301 161.868 2.11115 163.52 2.11115C164.242 2.11115 164.969 2.16881 165.696 2.28528C166.486 2.41186 167.255 2.60508 167.997 2.85921C167.089 2.28279 166.116 1.81482 165.091 1.46599C164.566 1.40776 164.04 1.37988 163.518 1.37988Z" fill="white"></path>
  <path d="M168.997 28.7578C168.245 29.0889 167.47 29.3472 166.677 29.5357C165.98 29.9565 165.253 30.311 164.506 30.598C165.332 30.5434 166.149 30.4176 166.951 30.2219C167.363 29.9763 167.767 29.7098 168.158 29.4217C168.447 29.209 168.726 28.9877 168.997 28.7578Z" fill="white"></path>
  <path d="M147.297 11.5536C146.819 12.5571 146.461 13.6237 146.231 14.7356C146.249 17.769 147.198 20.7142 148.995 23.2162C150.752 25.6645 153.156 27.4619 155.923 28.4313C155.002 27.8524 154.146 27.1675 153.369 26.3841C151.908 25.4537 150.624 24.2415 149.58 22.7874C147.424 19.7863 146.554 16.1153 147.128 12.4504C147.174 12.1485 147.231 11.8499 147.297 11.5536ZM160.822 0H160.489C157.521 0.0353222 154.641 0.992839 152.191 2.79522C149.348 4.88458 147.392 7.88066 146.609 11.3107C147.087 10.291 147.682 9.33097 148.381 8.45097C149.351 6.46128 150.791 4.72706 152.616 3.38654C154.987 1.64429 157.781 0.730692 160.655 0.730692C161.378 0.730692 162.105 0.788926 162.832 0.906157C163.607 1.0295 164.362 1.21718 165.091 1.4652C165.33 1.49174 165.57 1.52344 165.81 1.56239C166.679 1.70196 167.517 1.91752 168.321 2.20086C166.702 1.18243 164.884 0.493365 162.945 0.182148C162.236 0.0687355 161.526 0.00859188 160.822 0Z" fill="white"></path>
  <path d="M148.38 8.45068C147.679 9.33202 147.086 10.2903 146.607 11.3104C146.532 11.6488 146.466 11.9903 146.412 12.3355C146.286 13.1369 146.226 13.9396 146.231 14.7348C146.46 13.6236 146.819 12.5568 147.295 11.5533C147.537 10.4688 147.901 9.42939 148.38 8.45068Z" fill="white"></path>
  <path d="M173.053 20.6625C172.081 22.7066 170.618 24.4878 168.753 25.8594C166.383 27.6017 163.59 28.5166 160.716 28.5166C159.993 28.5166 159.265 28.4584 158.537 28.3412C157.746 28.2148 156.979 28.0213 156.236 27.7666C157.144 28.3436 158.116 28.8122 159.141 29.1606C159.667 29.2175 160.193 29.2473 160.716 29.2473C163.741 29.2473 166.682 28.2854 169.178 26.4521C170.236 25.6737 171.171 24.7698 171.969 23.764C172.447 22.7866 172.811 21.7472 173.053 20.6625ZM167.996 2.85938C169.457 3.78978 170.744 5.00333 171.79 6.45994C173.945 9.46099 174.816 13.132 174.243 16.7962C174.205 17.0304 174.163 17.2622 174.115 17.4934C174.12 18.2806 174.062 19.0784 173.936 19.8803C173.882 20.2255 173.816 20.5676 173.739 20.9054C174.324 19.6559 174.737 18.3146 174.957 16.9103C175.559 13.0526 174.643 9.18815 172.375 6.02978C171.915 5.38691 171.409 4.7914 170.866 4.24152C169.969 3.6714 169.008 3.20706 167.996 2.85938Z" fill="white"></path>
  <path d="M174.116 17.4937C173.887 18.6018 173.529 19.663 173.053 20.6627C172.812 21.7474 172.448 22.7866 171.97 23.7653C172.669 22.884 173.263 21.9265 173.739 20.9056C173.817 20.569 173.883 20.2257 173.937 19.8805C174.064 19.0784 174.12 18.2809 174.116 17.4937Z" fill="white"></path>
  <path d="M161.461 24.5618C160.945 24.5618 160.424 24.5209 159.903 24.4378C158.201 24.165 156.591 23.4467 155.246 22.3584L155.176 22.2834C153.673 20.1253 153.069 17.5004 153.477 14.8959C153.972 11.7345 155.861 9.05934 158.659 7.55767L158.789 7.51605C159.668 7.42001 160.557 7.44235 161.428 7.58173C166.86 8.45256 170.58 13.6329 169.719 19.1281V19.1292C169.644 19.6102 169.532 20.093 169.386 20.564L169.326 20.6805C167.416 23.1512 164.501 24.5618 161.461 24.5618ZM155.737 21.8204C156.977 22.8096 158.455 23.4652 160.016 23.7152C163.312 24.2406 166.64 22.9291 168.716 20.2834C168.84 19.8662 168.938 19.4391 169.005 19.0139C169.803 13.916 166.352 9.11146 161.315 8.3044C160.529 8.178 159.73 8.15566 158.937 8.23624C156.374 9.63709 154.647 12.1014 154.192 15.0101C153.816 17.4099 154.365 19.8259 155.737 21.8204Z" fill="white"></path>
  <path d="M158.709 3C157.882 3.05327 157.063 3.17967 156.262 3.37556C155.85 3.6211 155.447 3.88745 155.055 4.17575C154.766 4.38711 154.487 4.61031 154.217 4.84019C154.968 4.50988 155.743 4.24945 156.536 4.061C157.233 3.64076 157.96 3.28697 158.709 3Z" fill="white"></path>
  <path d="M155.923 28.431C157.538 29.4462 159.354 30.133 161.288 30.4436C162.054 30.5662 162.82 30.6269 163.58 30.6269C163.888 30.6269 164.198 30.617 164.504 30.5979C165.253 30.3109 165.979 29.9558 166.677 29.5348C165.667 29.7742 164.63 29.8962 163.58 29.8962C162.858 29.8962 162.13 29.838 161.402 29.7208C160.627 29.5974 159.871 29.4092 159.142 29.1606C158.903 29.1338 158.664 29.1023 158.424 29.0632C157.565 28.9257 156.728 28.713 155.923 28.431ZM168.321 2.20117C169.238 2.77874 170.092 3.46131 170.865 4.24222C172.326 5.17243 173.611 6.38484 174.653 7.83954C176.809 10.84 177.681 14.5116 177.107 18.1752C176.533 21.8401 174.584 25.0586 171.618 27.2392C170.791 27.8485 169.912 28.3554 168.996 28.7577C168.726 28.9882 168.448 29.2089 168.159 29.4221C167.766 29.7103 167.363 29.9762 166.951 30.2204C168.764 29.7773 170.489 28.9735 172.043 27.8317C175.166 25.5354 177.216 22.1483 177.821 18.2905C178.93 11.2062 174.788 4.48585 168.321 2.20117Z" fill="white"></path>
  <path d="M153.367 26.3836C154.144 27.167 155 27.8519 155.922 28.4321C156.728 28.7133 157.564 28.9255 158.424 29.0643C158.663 29.1021 158.902 29.1341 159.141 29.1609C158.116 28.8126 157.142 28.3441 156.236 27.7669C155.224 27.4186 154.262 26.9545 153.367 26.3836ZM165.09 1.46582C166.116 1.81484 167.09 2.28224 167.996 2.8598C169.007 3.20749 169.969 3.67164 170.865 4.24195C170.091 3.46219 169.238 2.77866 168.319 2.20033C167.517 1.91699 166.677 1.702 165.809 1.56262C165.57 1.52405 165.33 1.49121 165.09 1.46582Z" fill="white"></path>
</svg>
