<?xml version="1.0" encoding="UTF-8"?>
<svg xmlns="http://www.w3.org/2000/svg" width="323" height="57" viewBox="0 0 323 57" fill="none">
  <path d="M145.178 14.231L126.912 56.4582H143.223L145.86 50.3585H136.575L141.971 37.8788H150.268L152.912 31.7791H144.612L149.563 20.3273H158.852L161.489 14.231H145.178Z" fill="white"></path>
  <path d="M113.296 14.231L106.81 29.2203L102.952 40.1829L106.092 14.231H99.5579L81.292 56.4582H88.3158L95.0023 40.9985L98.9456 30.4051L95.6792 56.4582H102.051L120.32 14.231H113.296Z" fill="white"></path>
  <path d="M25.3261 14.231H18.2675L0 56.4582H7.02358L14.3954 39.4159L13.3987 56.4582H20.5285L21.4938 36.4523C26.0544 35.3527 29.7491 30.2157 31.7258 25.6501C33.54 21.4565 33.8015 18.4866 32.5221 16.5839C30.9461 14.231 27.4266 14.231 25.3261 14.231ZM17.4627 32.3242L22.6971 20.2228L23.1325 20.2197C24.2069 20.1999 24.9123 20.399 25.2133 20.8396C25.8839 21.8122 25.0232 24.1457 24.0909 26.2965C22.4092 30.1799 20.2871 32.1215 17.4627 32.3242Z" fill="white"></path>
  <path d="M42.542 56.4582H58.8513L61.49 50.3585H52.203L57.6013 37.8754H65.8999L68.5387 31.7794H60.2417L65.1945 20.3273H74.4815L77.1187 14.231H60.8079L42.542 56.4582Z" fill="white"></path>
  <path d="M317.408 14.228L289.822 56.4552H296.888L301.874 48.4955H308.833L306.926 56.4552H313.935L323 14.2291V14.228H317.408ZM314.382 27.6215L311.502 37.4809L310.171 42.8819H305.353L314.382 27.6215Z" fill="white"></path>
  <path d="M279.989 13.6895C274.066 13.6895 268.388 17.9548 265.534 24.5637C262.912 30.6273 265.021 34.0019 266.885 36.9816C268.428 39.4551 269.765 41.5862 268.269 45.039C266.845 48.3321 264.359 50.3 261.624 50.3C259.786 50.3 258.687 49.5462 257.608 48.4105L256.87 47.6339L253.913 54.4676L254.185 54.794C255.357 56.217 257.399 57.0001 259.929 57.0001C265.928 57.0001 272.093 52.4376 274.92 45.9074C277.489 39.9644 276.235 36.9455 274.202 33.3588L272.003 28.9433C271.566 27.6902 271.669 26.6197 272.371 25.0007C273.559 22.2432 276.36 20.1677 278.887 20.1677C280.519 20.1677 281.4 20.745 282.293 21.682L283.028 22.4425L286.091 15.5236L285.664 15.1905C284.353 14.166 282.552 13.6895 279.989 13.6895Z" fill="white"></path>
  <path d="M236.896 13.6895C225.659 13.6895 219.415 28.1306 216.408 35.0724C213.998 40.6464 209.962 49.9737 212.991 54.4905C214.104 56.1547 216.044 57.0001 218.759 57.0001C229.996 57.0001 236.243 42.5556 239.243 35.6141C241.657 30.0398 245.692 20.7094 242.663 16.1957C241.551 14.5313 239.611 13.6895 236.896 13.6895ZM232.128 35.0724C228.655 43.094 224.897 50.5188 220.964 50.5188C220.156 50.5188 219.862 50.2184 219.709 49.9934C218.249 47.8166 221.951 39.2691 223.53 35.6141C227.003 27.5922 230.758 20.1643 234.694 20.1643C235.498 20.1643 235.797 20.4678 235.949 20.6931C237.402 22.8699 233.707 31.4171 232.128 35.0724Z" fill="white"></path>
  <path d="M190.988 14.228H183.929L165.66 56.4552H172.686L180.056 39.413L179.055 56.4552H186.187L187.157 36.4562C191.716 35.3532 195.411 30.2195 197.391 25.6471C199.205 21.4535 199.464 18.4902 198.186 16.581C196.61 14.228 193.09 14.228 190.988 14.228ZM189.756 26.2967C188.074 30.1834 185.949 32.122 183.128 32.3213L188.359 20.2201L188.79 20.2168C189.865 20.1939 190.571 20.4028 190.875 20.8398C191.547 21.8124 190.683 24.1427 189.756 26.2967Z" fill="white"></path>
  <path d="M148.886 10.0249L152.029 12.4074L161.68 4.19539L157.913 0.910187L148.886 10.0249Z" fill="white"></path>
</svg>
