<?xml version="1.0" encoding="UTF-8"?>
<svg xmlns="http://www.w3.org/2000/svg" width="264" height="89" viewBox="0 0 264 89" fill="none">
  <path d="M12.3441 8.28583C12.6612 9.00805 13.0878 9.64 13.6209 10.1873C14.1541 10.7346 14.7827 11.1606 15.5122 11.4709C16.239 11.7813 17.0135 11.9336 17.8329 11.9336C18.6523 11.9336 19.4212 11.7785 20.1395 11.4709C20.8579 11.1606 21.4865 10.7346 22.0309 10.1873C22.5724 9.64282 22.999 9.00805 23.3077 8.28583C23.6163 7.5636 23.7679 6.7906 23.7679 5.96681C23.7679 5.14302 23.6135 4.37002 23.3077 3.6478C22.999 2.92557 22.5753 2.29363 22.0309 1.74632C21.4865 1.20183 20.8579 0.773005 20.1395 0.462675C19.4212 0.152344 18.6523 0 17.8329 0C17.0135 0 16.239 0.155165 15.5122 0.462675C14.7855 0.773005 14.1541 1.19901 13.6209 1.74632C13.0878 2.29363 12.6612 2.92557 12.3441 3.6478C12.027 4.37002 11.8671 5.14302 11.8671 5.96681C11.8671 6.7906 12.0242 7.5636 12.3441 8.28583ZM0 40.6505V38.2694H27.3344V34.6837H0V21.5144C0 20.6906 0.154337 19.9176 0.460204 19.1954C0.768877 18.4731 1.1926 17.8412 1.73699 17.2939C2.27857 16.7494 2.90995 16.3206 3.62831 16.0102C4.34668 15.6999 5.11556 15.5476 5.93495 15.5476H29.7617C30.5811 15.5476 31.3556 15.7027 32.0824 16.0102C32.8092 16.3206 33.4406 16.7466 33.9737 17.2939C34.5069 17.8412 34.9278 18.4731 35.2337 19.1954C35.5423 19.9176 35.6939 20.6906 35.6939 21.5144V23.8955H8.30051V27.4812H35.6939V40.6505C35.6939 41.4743 35.5395 42.2473 35.2337 42.9695C34.925 43.6917 34.5069 44.3237 33.9737 44.871C33.4406 45.4183 32.8092 45.8443 32.0824 46.1546C31.3556 46.465 30.5811 46.6173 29.7617 46.6173H5.93495C5.11556 46.6173 4.34668 46.4621 3.62831 46.1546C2.90995 45.8443 2.28138 45.4183 1.73699 44.871C1.1926 44.3265 0.768877 43.6917 0.460204 42.9695C0.15153 42.2473 0 41.4743 0 40.6505ZM53.6418 67.6916C53.8074 64.9889 53.9702 62.7968 54.1638 61.1154H57.5985L63.1406 76.2962L68.6658 61.1154H71.9967C72.5355 66.3854 72.9816 76.7758 72.9816 82.4831H70.0689C70.0689 78.2626 69.8304 71.0855 69.5918 65.7252L64.1395 80.4857H62.0041L56.5827 65.7562C56.3441 70.3519 56.1505 78.0397 56.0888 82.4831H53.1901C53.1901 78.113 53.3388 73.0998 53.639 67.6944L53.6418 67.6916ZM78.3301 69.1332C77.4181 68.9978 76.7475 68.9244 76.3153 68.8934V66.927H81.3046V82.4831H78.3329V69.1332H78.3301ZM77.5079 62.0012C77.5079 60.8615 78.5686 60.1251 79.374 60.1251C80.5385 60.1251 81.3888 61.0872 81.3888 61.942C81.3888 63.2482 80.2551 63.8491 79.461 63.8491C78.4003 63.8491 77.5051 63.0225 77.5051 62.0012H77.5079ZM87.0515 78.1723V69.2517H84.6327V66.9242H87.0515V63.44C87.812 63.1692 88.7998 62.7347 90.0092 62.1197V66.9242H94.0275V69.2517H90.0092V77.8394C90.0092 79.6421 90.6069 80.3926 92.2204 80.3926C93.0426 80.3926 93.8339 80.243 94.2352 80.1076L94.7571 82.3307C93.8003 82.6156 92.6077 82.7821 91.3982 82.7821C88.3059 82.7821 87.0515 81.0555 87.0515 78.1723ZM98.0291 78.1723V69.2517H95.6102V66.9242H98.0291V63.44C98.7895 63.1692 99.7773 62.7347 100.987 62.1197V66.9242H105.005V69.2517H100.987V77.8394C100.987 79.6421 101.584 80.3926 103.198 80.3926C104.02 80.3926 104.811 80.243 105.213 80.1076L105.735 82.3307C104.778 82.6156 103.585 82.7821 102.376 82.7821C99.2834 82.7821 98.0291 81.0555 98.0291 78.1723ZM107.483 74.7333C107.483 69.8695 109.902 66.549 114.338 66.549C118.46 66.549 120.565 69.1304 120.565 73.8023C120.565 74.4935 120.551 75.0944 120.506 75.6191H110.634C110.873 78.7563 112.338 80.4828 115.309 80.4828C116.684 80.4828 118.042 80.2741 119.013 79.9863L119.597 82.2686C118.298 82.6749 116.864 82.8555 114.877 82.8555C110.171 82.8555 107.483 79.7014 107.483 74.7333ZM117.445 73.4722V72.7669C117.445 70.1996 116.46 68.7439 114.263 68.7439C111.947 68.7439 110.752 70.4845 110.572 73.4722H117.442H117.445ZM124.912 62.0605C124.614 62.0153 123.941 61.9251 122.894 61.8207V59.8825H127.883V82.4802H124.912V62.0605ZM133.426 78.1723V69.2517H131.007V66.9242H133.426V63.44C134.186 63.1692 135.174 62.7347 136.383 62.1197V66.9242H140.402V69.2517H136.383V77.8394C136.383 79.6421 136.981 80.3926 138.594 80.3926C139.417 80.3926 140.208 80.243 140.612 80.1076L141.134 82.3307C140.177 82.6156 138.984 82.7821 137.772 82.7821C134.68 82.7821 133.426 81.0555 133.426 78.1723ZM143.881 59.8825H146.853V68.9809C147.748 67.5533 149.303 66.6082 151.646 66.6082C155.336 66.6082 156.663 69.1163 156.663 71.6835V82.4802H153.691V72.5412C153.691 70.1996 152.72 69.1642 150.734 69.1642C147.942 69.1642 146.85 71.8669 146.85 73.444V82.4831H143.878V59.8853L143.881 59.8825ZM161.504 77.6447V66.9242H164.461V76.9987C164.461 79.3261 165.418 80.2712 167.402 80.2712C169.613 80.2712 171.317 78.3331 171.317 75.9915V66.9214H174.288V82.4774H171.406L171.376 80.2995C170.464 81.8003 168.763 82.7765 166.493 82.7765C163.311 82.7765 161.504 81.064 161.504 77.6419V77.6447ZM163.086 63.2313C163.086 62.2241 163.833 61.4737 164.893 61.4737C166.223 61.4737 166.731 62.5542 166.731 63.2313C166.762 64.388 165.643 65.003 164.893 64.9578C163.85 64.9578 163.086 64.1764 163.086 63.2313ZM169.119 63.2313C169.105 62.0915 170.166 61.4144 170.913 61.4737C172.243 61.4737 172.751 62.5542 172.751 63.2313C172.751 64.419 171.69 64.9578 170.913 64.9578C169.883 64.9578 169.119 64.1764 169.119 63.2313ZM179.306 66.9242H182.143L182.202 69.8667C183.231 67.6746 185.114 66.7888 186.576 66.8339C187.084 66.8339 187.471 66.865 187.741 66.9242V69.7482C187.502 69.689 187.143 69.6579 186.68 69.6579C183.708 69.6579 182.275 72.1208 182.275 74.0562V82.4802H179.303V66.9242H179.306ZM190.985 69.1304C190.073 68.995 189.402 68.9216 188.967 68.8906V66.9242H193.956V82.4802H190.985V69.1304ZM190.163 61.9984C190.163 60.8587 191.223 60.1223 192.029 60.1223C193.193 60.1223 194.043 61.0843 194.043 61.9392C194.043 63.2454 192.91 63.8463 192.116 63.8463C191.055 63.8463 190.16 63.0197 190.16 61.9984H190.163ZM199.184 66.9242H202.021L202.08 69.1022C203.02 67.6154 204.679 66.6082 206.949 66.6082C210.639 66.6082 211.966 69.1163 211.966 71.6835V82.4802H208.994V72.5412C208.994 70.1996 208.023 69.1642 206.037 69.1642C203.245 69.1642 202.153 71.8669 202.153 73.444V82.4831H199.181V66.927L199.184 66.9242ZM218.061 88.4414L218.51 86.1732C219.823 86.5032 221.064 86.6697 222.242 86.6697C225.348 86.6697 226.738 85.3945 226.738 82.6918V80.3051C225.722 81.868 224.347 82.5733 222.301 82.5733C218.763 82.5733 216.192 80.291 216.192 74.705C216.192 69.5394 219.001 66.6111 222.526 66.6111C224.765 66.6111 226.154 67.5562 226.768 68.2473L226.844 66.927H229.681V82.5141C229.681 87.0336 227.186 89 222.857 89C220.528 89 218.973 88.6699 218.064 88.4442L218.061 88.4414ZM226.709 75.289V70.603C225.769 69.672 224.782 69.1304 223.351 69.1304C221.021 69.1304 219.408 71.1588 219.408 74.7022C219.408 77.5855 220.123 80.1669 223.053 80.1669C225.983 80.1669 226.712 77.3598 226.712 75.2862L226.709 75.289ZM233.997 74.7333C233.997 69.8695 236.416 66.549 240.852 66.549C244.975 66.549 247.079 69.1304 247.079 73.8023C247.079 74.4935 247.065 75.0944 247.02 75.6191H237.148C237.387 78.7563 238.852 80.4828 241.823 80.4828C243.198 80.4828 244.556 80.2741 245.527 79.9863L246.111 82.2686C244.812 82.6749 243.378 82.8555 241.391 82.8555C236.685 82.8555 233.997 79.7014 233.997 74.7333ZM243.959 73.4722V72.7669C243.959 70.1996 242.974 68.7439 240.777 68.7439C238.461 68.7439 237.266 70.4845 237.087 73.4722H243.956H243.959ZM251.218 66.9242H254.055L254.114 69.1022C255.054 67.6154 256.712 66.6082 258.983 66.6082C262.673 66.6082 264 69.1163 264 71.6835V82.4802H261.028V72.5412C261.028 70.1996 260.057 69.1642 258.071 69.1642C255.279 69.1642 254.187 71.8669 254.187 73.444V82.4831H251.215V66.927L251.218 66.9242ZM51.5653 45.6327L52.4324 43.1557C53.4622 43.6974 56.1225 44.3716 57.9577 44.3716C61.9452 44.3716 62.6467 42.4645 62.6467 40.8423C62.6467 39.1299 61.3334 38.1707 59.8378 37.5839C57.6434 36.6839 56.1028 36.3228 54.4304 35.2112C52.5924 33.9361 52.1462 32.3731 52.1462 30.782C52.1462 27.0439 55.0449 24.8801 59.6722 24.8801C62.1528 24.8801 64.1367 25.5402 64.6895 25.6756V28.3924C63.1799 27.8226 61.1959 27.4304 59.4028 27.4304C56.7286 27.4304 55.1768 28.5702 55.1768 30.6296C55.1768 32.6891 57.1635 33.3775 59.9865 34.3846C63.0929 35.5413 65.9158 36.7121 65.9158 40.8113C65.9158 44.9105 63.0929 46.9982 58.3281 46.9982C54.8036 46.9982 52.3987 46.0361 51.5625 45.6327H51.5653ZM69.8023 31.0669H72.6393L72.6982 33.3351C73.4587 31.7722 75.3107 30.7538 77.1347 30.7538C81.9584 30.7538 83.3475 34.7486 83.3475 38.6362C83.3475 43.892 81.0015 46.9248 76.6857 46.9248C74.9375 46.9248 73.6832 46.4452 72.774 45.6778V52.8408H69.8023V31.0697V31.0669ZM80.1681 38.6954C80.1681 34.9404 78.7651 33.2759 76.523 33.2759C74.1181 33.2759 72.774 35.6796 72.774 39.0565V43.0513C73.6691 43.9513 74.7158 44.5071 76.074 44.5071C79.5395 44.5071 80.1653 41.415 80.1653 38.6954H80.1681ZM86.5913 42.2247C86.5913 39.8662 87.6801 38.3653 89.7735 37.5246C91.2832 36.9237 93.1492 36.7883 95.7786 36.7883V35.9476C95.7786 33.6511 94.4793 33.0333 92.1643 33.0333C90.4918 33.0333 89.1168 33.4226 87.8176 33.8881V31.4562C89.8633 30.9005 90.7444 30.7509 92.7452 30.7509C96.8674 30.7509 98.7054 32.3139 98.7054 35.9165V46.6229H95.8964L95.8375 45.3026C95.0153 46.1292 93.1801 46.9248 91.373 46.9248C88.7745 46.9248 86.5941 45.6327 86.5941 42.2247H86.5913ZM95.7758 43.1867V38.9662H94.6702C91.2214 38.9662 89.563 39.7618 89.563 42.1034C89.563 43.6945 90.489 44.6255 92.1924 44.6255C94.0444 44.6255 95.3436 43.6635 95.7758 43.1839V43.1867ZM103.633 31.0697H106.47L106.529 34.0122C107.559 31.8202 109.442 30.9343 110.904 30.9795C111.411 30.9795 111.799 31.0105 112.068 31.0697V33.8937C111.83 33.8345 111.47 33.8035 111.007 33.8035C108.036 33.8035 106.602 36.2664 106.602 38.2017V46.6258H103.63V31.0697H103.633ZM114.984 24.0281H117.955V37.0901L123.736 31.0697H127.305L120.792 37.7954C123.36 40.0637 125.975 43.4999 128.007 46.6229H124.289C123.66 45.723 122.959 44.7751 122.184 43.7848C121.424 42.7946 120.674 41.8918 119.945 41.0821C119.229 40.2724 118.57 39.5643 117.958 38.9662V46.6229H114.986V24.0252L114.984 24.0281ZM129.441 42.2275C129.441 39.869 130.53 38.3681 132.623 37.5274C134.133 36.9265 135.999 36.7911 138.628 36.7911V35.9504C138.628 33.6539 137.329 33.0361 135.014 33.0361C133.341 33.0361 131.966 33.4254 130.667 33.8909V31.4591C132.713 30.9033 133.594 30.7538 135.595 30.7538C139.717 30.7538 141.555 32.3167 141.555 35.9194V46.6258H138.746L138.687 45.3054C137.865 46.1321 136.03 46.9276 134.222 46.9276C131.624 46.9276 129.444 45.6355 129.444 42.2275H129.441ZM138.625 43.1896V38.9691H137.52C134.071 38.9691 132.413 39.7646 132.413 42.1062C132.413 43.6974 133.339 44.6284 135.042 44.6284C136.894 44.6284 138.193 43.6663 138.625 43.1867V43.1896ZM145.287 45.8612L146.078 43.6099C147.512 44.1967 148.842 44.5409 150.605 44.5409C153.369 44.5409 154.039 43.5196 154.039 42.4081C154.039 41.2965 153.113 40.7126 151.859 40.3204C148.528 39.2681 145.75 38.5628 145.75 35.3043C145.75 32.3618 148.034 30.7538 151.469 30.7538C153.501 30.7538 154.948 31.0246 156.085 31.3688V33.8317C154.786 33.3972 153.383 33.1264 151.648 33.1264C149.603 33.1264 148.646 33.7555 148.646 35.0645C148.646 36.3736 150.066 36.8052 152.381 37.5274C155.936 38.6221 157.07 39.8859 157.07 42.2275C157.07 45.4098 154.575 46.9276 150.798 46.9276C148.02 46.9276 146.109 46.2505 145.287 45.8612ZM159.758 45.8612L160.549 43.6099C161.983 44.1967 163.314 44.5409 165.076 44.5409C167.84 44.5409 168.51 43.5196 168.51 42.4081C168.51 41.2965 167.584 40.7126 166.33 40.3204C162.999 39.2681 160.221 38.5628 160.221 35.3043C160.221 32.3618 162.505 30.7538 165.94 30.7538C167.972 30.7538 169.42 31.0246 170.556 31.3688V33.8317C169.257 33.3972 167.854 33.1264 166.12 33.1264C164.074 33.1264 163.117 33.7555 163.117 35.0645C163.117 36.3736 164.537 36.8052 166.849 37.5274C170.405 38.6221 171.538 39.8859 171.538 42.2275C171.538 45.4098 169.044 46.9276 165.267 46.9276C162.489 46.9276 160.578 46.2505 159.755 45.8612H159.758ZM174.841 38.8788C174.841 34.0151 177.26 30.6945 181.696 30.6945C185.819 30.6945 187.923 33.2759 187.923 37.9478C187.923 38.639 187.909 39.2399 187.864 39.7646H177.992C178.231 42.9018 179.696 44.6284 182.667 44.6284C184.042 44.6284 185.401 44.4196 186.371 44.1318L186.955 46.4142C185.656 46.8204 184.222 47.001 182.235 47.001C177.529 47.001 174.841 43.8469 174.841 38.8788ZM184.803 37.6177V36.9124C184.803 34.3451 183.818 32.8894 181.621 32.8894C179.306 32.8894 178.11 34.6301 177.931 37.6177H184.8H184.803Z" fill="white"></path>
</svg>
