<?xml version="1.0" encoding="UTF-8" standalone="no"?>
<svg xmlns="http://www.w3.org/2000/svg" xmlns:xlink="http://www.w3.org/1999/xlink" xmlns:serif="http://www.serif.com/" width="100%" height="100%" viewBox="0 0 800 376" version="1.1" xml:space="preserve" style="fill-rule:evenodd;clip-rule:evenodd;stroke-linejoin:round;stroke-miterlimit:2;">
  <path d="M30.589,141.809l7075.606,0l-4.346,33.272l-7075.606,-0l4.346,-33.272Z" style="fill:#61666b;"></path>
  <path d="M26.6,172.35l7075.606,0l-4.345,33.271l-7075.606,-0l4.346,-33.271Z" style="fill:#61666b;"></path>
  <path d="M15.403,258.075l7075.606,0l-4.345,33.271l-7075.606,-0l4.346,-33.271Z" style="fill:#61666b;"></path>
  <path d="M4.346,342.73l7075.606,0l-4.345,33.27l-7075.606,-0l4.346,-33.27Z" style="fill:#61666b;"></path>
  <path d="M49.112,-0l7075.606,-0l-0.544,4.166l-7075.606,0l0.544,-4.166Z" style="fill:#61666b;"></path>
  <path d="M11.756,285.994l7075.606,0l-6.941,53.144l-7075.606,-0l6.941,-53.144Z" style="fill:#e5007d;"></path>
  <path d="M23.163,198.663l7075.606,0l-6.553,50.169l-7075.606,-0l6.553,-50.169Z" style="fill:#e5007d;"></path>
  <path d="M49.112,-0l7075.606,0l-17.176,131.495l-7075.606,0l17.176,-131.495Z" style="fill:#e5007d;"></path>
  <path d="M48.435,5.185l7075.607,-0l-1.094,8.376l-7075.607,0l1.094,-8.376Z"></path>
  <path d="M43.629,41.976l7075.606,-0l-3.942,30.182l-7075.606,0l3.942,-30.182Z"></path>
  <path d="M38.567,80.73l7075.607,-0l-1.094,8.375l-7075.606,0l1.094,-8.375Z"></path>
  <path d="M5.141,336.643l7075.606,0l-1.399,10.711l-7075.606,0l1.399,-10.711Z"></path>
  <path d="M32.199,129.488l7075.606,0l-1.793,13.729l-7075.606,-0l1.793,-13.729Z"></path>
  <path d="M28.56,157.348l7075.606,0l-4.346,33.27l-7075.606,-0l4.346,-33.27Z"></path>
  <path d="M17.013,245.752l7075.606,0l-4.346,33.27l-7075.606,-0l4.346,-33.27Z"></path>
  <path d="M10.644,294.509l7075.606,0l-4.346,33.27l-7075.606,-0l4.346,-33.27Z"></path>
</svg>
