<?xml version="1.0" encoding="UTF-8" standalone="no"?>
<svg xmlns="http://www.w3.org/2000/svg" xmlns:xlink="http://www.w3.org/1999/xlink" xmlns:serif="http://www.serif.com/" width="100%" height="100%" viewBox="0 0 318 36" version="1.1" xml:space="preserve" style="fill-rule:evenodd;clip-rule:evenodd;stroke-linejoin:round;stroke-miterlimit:2;">
  <g>
    <path d="M-1148.97,29.31l1462.422,0l-0.898,6.877l-1462.422,-0l0.898,-6.877Z" style="fill:#61666b;"></path>
    <path d="M-1149.795,35.622l1462.422,0l-0.898,6.877l-1462.422,-0l0.898,-6.877Z" style="fill:#61666b;"></path>
    <path d="M-1152.109,53.34l1462.422,0l-0.898,6.877l-1462.422,-0l0.898,-6.877Z" style="fill:#61666b;"></path>
    <path d="M-1154.394,70.837l1462.422,0l-0.898,6.876l-1462.422,-0l0.898,-6.876Z" style="fill:#61666b;"></path>
    <path d="M-1145.142,-0l1462.422,-0l-0.112,0.861l-1462.422,0l0.112,-0.861Z" style="fill:#61666b;"></path>
    <path d="M-1152.863,59.111l1462.422,0l-1.435,10.984l-1462.422,-0l1.435,-10.984Z" style="fill:#009ee3;"></path>
    <path d="M-1150.505,41.061l1462.422,0l-1.354,10.369l-1462.422,-0l1.354,-10.369Z" style="fill:#009ee3;"></path>
    <path d="M-1145.142,0l1462.422,0l-3.55,27.178l-1462.422,0l3.55,-27.178Z" style="fill:#009ee3;"></path>
    <path d="M-1145.282,1.072l1462.422,-0l-0.226,1.731l-1462.422,0l0.226,-1.731Z"></path>
    <path d="M-1146.275,8.676l1462.422,-0l-0.815,6.238l-1462.422,0l0.815,-6.238Z"></path>
    <path d="M-1147.321,16.686l1462.422,-0l-0.226,1.731l-1462.422,0l0.226,-1.731Z"></path>
    <path d="M-1154.23,69.579l1462.422,0l-0.289,2.214l-1462.422,0l0.289,-2.214Z"></path>
    <path d="M-1148.637,26.763l1462.422,0l-0.371,2.838l-1462.422,-0l0.371,-2.838Z"></path>
    <path d="M-1149.39,32.522l1462.422,0l-0.898,6.876l-1462.422,-0l0.898,-6.876Z"></path>
    <path d="M-1151.776,50.793l1462.422,0l-0.898,6.876l-1462.422,-0l0.898,-6.876Z"></path>
    <path d="M-1153.092,60.871l1462.422,0l-0.898,6.876l-1462.422,-0l0.898,-6.876Z"></path>
  </g>
</svg>
