<?xml version="1.0" encoding="UTF-8"?>
<svg xmlns="http://www.w3.org/2000/svg" width="16" height="16" viewBox="0 0 16 16" fill="none">
  <path d="M4.15546 0C4.31293 0 4.46395 0.0625556 4.5753 0.173905C4.68665 0.285255 4.74921 0.436278 4.74921 0.59375V0.794042C5.02101 0.791931 5.31631 0.791139 5.63508 0.791667H9.80083C10.1196 0.791667 10.4149 0.792458 10.6867 0.794042V0.59375C10.6867 0.436278 10.7493 0.285255 10.8606 0.173905C10.972 0.0625556 11.123 0 11.2805 0C11.4379 0 11.589 0.0625556 11.7003 0.173905C11.8117 0.285255 11.8742 0.436278 11.8742 0.59375V0.832042C11.8837 0.832042 11.8929 0.832833 11.9019 0.834417C12.464 0.877167 12.9382 0.968208 13.3713 1.17642C14.0715 1.50962 14.6486 2.05543 15.0203 2.736C15.2475 3.15717 15.3449 3.61713 15.3916 4.15546C15.4367 4.67954 15.4367 5.32871 15.4367 6.14254V10.0858C15.4367 10.9005 15.4367 11.5504 15.3916 12.0737C15.3441 12.612 15.2475 13.072 15.0203 13.4924C14.6487 14.1732 14.0716 14.7193 13.3713 15.0528C12.9382 15.261 12.464 15.352 11.9019 15.3947C11.3509 15.4375 10.6669 15.4375 9.80083 15.4375H5.63588C4.76979 15.4375 4.08579 15.4375 3.53479 15.3947C2.97271 15.3512 2.4985 15.261 2.06546 15.0528C1.36523 14.7196 0.788113 14.1737 0.416417 13.4932C0.189208 13.072 0.0918335 12.612 0.0451251 12.0737C1.26815e-07 11.5496 0 10.9005 0 10.0866V6.14333C0 5.32871 1.26815e-07 4.67875 0.0451251 4.15546C0.0926251 3.61713 0.189208 3.15717 0.416417 2.73679C0.787982 2.05593 1.36512 1.50982 2.06546 1.17642C2.4985 0.968208 2.97271 0.877167 3.53479 0.834417L3.56171 0.83125V0.59375C3.56171 0.436278 3.62426 0.285255 3.73561 0.173905C3.84696 0.0625556 3.99799 0 4.15546 0ZM3.56171 2.0235C3.10492 2.06308 2.81279 2.13433 2.58004 2.24675C2.10537 2.47113 1.71362 2.8396 1.46063 3.29967C1.37038 3.4675 1.30546 3.66858 1.26271 3.95833H14.174C14.1305 3.66858 14.0655 3.4675 13.9753 3.30046C13.7226 2.84022 13.3312 2.47147 12.8567 2.24675C12.6231 2.13433 12.331 2.06308 11.8742 2.0235V2.17708C11.8742 2.33456 11.8117 2.48558 11.7003 2.59693C11.589 2.70828 11.4379 2.77083 11.2805 2.77083C11.123 2.77083 10.972 2.70828 10.8606 2.59693C10.7493 2.48558 10.6867 2.33456 10.6867 2.17708V1.98154C10.417 1.97943 10.1135 1.97864 9.77629 1.97917H5.65963C5.32237 1.97917 5.0189 1.97996 4.74921 1.98154V2.17708C4.74921 2.33456 4.68665 2.48558 4.5753 2.59693C4.46395 2.70828 4.31293 2.77083 4.15546 2.77083C3.99799 2.77083 3.84696 2.70828 3.73561 2.59693C3.62426 2.48558 3.56171 2.33456 3.56171 2.17708V2.0235Z" fill="white"></path>
</svg>
