<?xml version="1.0" encoding="UTF-8"?>
<svg xmlns="http://www.w3.org/2000/svg" width="93" height="85" viewBox="0 0 93 85" fill="none">
  <path fill-rule="evenodd" clip-rule="evenodd" d="M33.6883 0L22.7751 84.8434H0L10.9131 0H33.6883ZM92.6225 0L81.7094 84.8434H58.9342L69.8473 0H92.6225ZM63.1554 0L52.2423 84.8434H29.4671L40.3802 0H63.1554ZM16.1499 69.3788C16.7707 69.1417 17.6584 68.6096 18.2801 67.6332L23.9894 59.1132H16.8893L11.9193 66.864H10.9429C11.18 66.1536 11.3275 65.4441 11.4162 64.7636L12.2152 59.1132H5.76658L2.89703 79.525H9.34568L10.2624 72.9869C10.3511 72.3951 10.381 71.6855 10.2923 71.005H11.209L14.3745 79.525H21.2964L17.7464 71.567C17.3916 70.7091 16.6813 69.7327 16.1193 69.4965L16.1491 69.378L16.1499 69.3788ZM42.8817 72.574C43.7097 72.9885 43.9766 73.2247 43.8581 73.7278C43.7105 74.3487 43.1477 74.5857 41.3433 74.5857C40.5741 74.5857 37.7344 74.5268 34.3028 74.4381L33.711 78.905C36.8168 79.704 39.9532 79.9402 41.669 79.9402C47.5557 79.9402 49.656 78.6389 50.189 73.935C50.5147 70.9179 49.8342 69.1723 46.4615 67.5751L43.03 65.948C41.8464 65.386 41.64 65.0603 41.7287 64.6168C41.8762 63.9662 42.3793 63.7888 43.7403 63.7888C46.2551 63.7888 49.0948 63.8186 50.8993 63.8476L51.4613 59.7654C49.1835 58.9962 46.4325 58.7003 44.1548 58.7003C38.593 58.7003 35.9307 59.9726 35.3985 64.4693C35.1026 66.9841 35.7243 69.0546 39.1558 70.7405L42.8832 72.5748L42.8817 72.574ZM81.7047 64.3201L82.3852 59.5276H64.6945L64.014 64.3201H69.6346L67.4456 79.9394H73.8652L76.0542 64.3201H81.7047Z" fill="white"></path>
</svg>
