<?xml version="1.0" encoding="UTF-8"?>
<svg xmlns="http://www.w3.org/2000/svg" width="98" height="85" viewBox="0 0 98 85" fill="none">
  <path fill-rule="evenodd" clip-rule="evenodd" d="M95.2071 14.6492L89.8911 55.7821H83.1206L79.3641 84.8427H0L6.17708 37.0515H12.9475L15.843 14.65L17.7338 0H97.0979L95.2095 14.65L95.2071 14.6492ZM28.362 14.6492C26.8911 14.6492 26.0866 15.3509 25.9516 16.7527L25.6659 18.981C25.4744 20.5798 26.1698 21.378 27.749 21.378H30.6908C32.1616 21.378 32.9779 20.6779 33.1412 19.2753L33.4285 17.047C33.5101 16.2339 33.3735 15.6319 33.0195 15.2363C32.6655 14.8446 32.0934 14.6484 31.3038 14.6484H28.3636L28.362 14.6492ZM82.2211 24.7389C81.5414 24.5451 80.5972 24.3504 79.379 24.1542C78.1546 23.9588 76.7724 23.7979 75.2332 23.6707C73.6956 23.5459 72.1086 23.4808 70.4745 23.4808C69.0318 23.4808 67.7242 23.5804 66.5539 23.7751C65.3821 23.9729 64.3539 24.4069 63.4693 25.0788C62.5847 25.7514 61.821 26.7977 61.1821 28.2129C60.5425 29.6296 60.0448 31.5565 59.6909 33.9967C59.3102 36.4087 59.2348 38.4612 59.4672 40.1589C59.6987 41.8558 60.2968 43.1313 61.263 43.986C62.2308 44.8407 63.6404 45.2261 65.4928 45.1421C67.152 45.0849 68.6567 44.6995 70.0051 43.986C71.3543 43.271 72.5183 42.2608 73.4978 40.9563C73.6878 40.7052 73.8597 40.4336 74.0308 40.1628L74.0716 40.1785C73.6901 40.8802 73.614 41.6965 73.4076 42.6399C73.2059 43.559 72.8087 45.1155 72.399 45.9011C71.8276 47.1342 70.8842 48.3202 69.4949 48.7982C68.1064 49.2738 66.4433 49.4669 64.5109 49.5548C63.4057 49.6042 58.3628 49.6137 58.0088 49.6137C56.0702 49.6137 54.5247 50.1466 53.3709 51.2125C52.2148 52.2791 51.5045 53.7288 51.2392 55.56L49.1694 70.9344C48.9033 73.067 49.2809 74.8031 50.3036 76.1429C51.3255 77.4812 52.9384 78.1515 55.1424 78.1515C56.5223 78.1515 68.0962 78.2174 68.0829 78.1515L68.9023 72.2051H58.4076C57.7435 72.2051 57.2781 72.0482 57.0128 71.7342C56.746 71.421 56.6533 70.9619 56.735 70.3606L57.3174 66.0563H67.725L68.3631 60.8494H58.0238L58.4868 57.4461C58.5928 56.7358 58.811 56.2436 59.1446 55.9697C59.4758 55.6973 59.9985 55.5608 60.7167 55.5608C60.7167 55.5608 64.5336 55.5859 68.3694 55.1777C69.2053 55.0883 70.8504 54.9054 71.7075 54.6291C73.0646 54.1935 74.3086 53.6904 75.4389 52.878C76.5683 52.0641 77.5149 50.886 78.277 49.3444C79.0392 47.8021 79.5847 44.3847 79.9112 41.9453L82.2808 24.7421L82.2211 24.7374V24.7389ZM72.5992 36.7948C71.9187 37.5946 71.2311 38.232 70.5357 38.7092C69.8418 39.1856 69.1676 39.4658 68.5146 39.5506C67.9432 39.6071 67.5193 39.487 67.2478 39.1919C66.9754 38.8976 66.8381 38.3301 66.8381 37.4887C66.8381 36.6473 66.9746 35.4409 67.2478 33.8711C67.4102 32.8343 67.5876 31.9725 67.7784 31.2841C67.9683 30.5966 68.2203 30.0652 68.5342 29.6853C68.8474 29.307 69.2626 29.0346 69.7806 28.8659C70.2971 28.6971 70.9634 28.6132 71.7805 28.6132C72.6792 28.6132 73.5167 28.6194 74.2945 28.6351L74.3706 28.6375L73.3526 35.7996C73.1085 36.1426 72.8637 36.484 72.5992 36.7948ZM48.9708 49.7377H41.6039L37.1049 68.1072C36.9455 68.7634 36.7862 69.5161 36.6269 70.3622C36.4675 71.2107 36.3349 72.0026 36.2281 72.7404H35.4315C35.459 72.0301 35.4778 71.2923 35.4927 70.5263C35.5053 69.7618 35.4982 69.0224 35.4723 68.3121L35.1136 52.1991C35.1136 51.4888 34.8946 50.9009 34.4574 50.4354C34.0187 49.9708 33.4551 49.7385 32.7652 49.7385H27.271C25.837 49.7385 24.9336 50.4645 24.5623 51.9126L20.0233 67.9848C19.8373 68.6684 19.645 69.4266 19.4456 70.2594C19.2471 71.0937 19.0673 71.921 18.908 72.7404H18.1521C18.1773 71.8935 18.2181 71.1 18.2707 70.3622C18.324 69.6244 18.3633 68.9274 18.3907 68.2721L18.908 49.7385H11.541L11.9397 75.8156C11.9131 76.4451 12.1446 76.9718 12.6359 77.3941C13.1273 77.8187 13.7042 78.0298 14.3682 78.0298H20.9777C21.641 78.0298 22.2116 77.8603 22.6904 77.5181C23.1676 77.1758 23.487 76.7041 23.6464 76.1037L28.3055 59.2105C28.4907 58.5551 28.65 57.8919 28.7827 57.2216C28.9153 56.5521 29.0472 55.8904 29.1806 55.2335H29.9373C29.9114 55.9438 29.891 56.6133 29.8768 57.242C29.8635 57.8707 29.8431 58.5402 29.8187 59.2521L29.9373 75.7756C29.9114 76.4302 30.1429 76.9718 30.6342 77.3941C31.1256 77.8187 31.6891 78.0298 32.3265 78.0298H38.8175C39.5066 78.0298 40.0835 77.8666 40.5498 77.5377C41.0144 77.2104 41.326 76.7324 41.4853 76.1037L48.9724 49.7385L48.9708 49.7377ZM56.5254 26.1533C56.1031 25.2711 55.4705 24.6047 54.6267 24.1558C53.7814 23.7076 52.8011 23.4831 51.6842 23.4831C49.9692 23.4831 48.2056 23.9949 46.3956 25.0176C45.0409 25.7828 43.7835 26.7647 42.6195 27.9601L42.534 24.0718H36.6936L33.8735 44.9765H41.308L43.0237 32.2919C43.9734 31.5306 44.8093 30.9561 45.515 30.5919C46.332 30.1719 47.0808 29.9608 47.7621 29.9608C48.3877 29.9043 48.7966 30.0236 48.9873 30.3179C49.1773 30.6123 49.2181 31.1374 49.1098 31.8963L47.3124 44.9757H54.7476L56.8723 29.4561C57.0623 28.1391 56.9461 27.0371 56.5238 26.1541L56.5254 26.1533ZM22.1519 44.9757H29.5456L32.3641 24.0702H24.9705L22.1519 44.9757Z" fill="white"></path>
</svg>
