<?xml version="1.0" encoding="UTF-8"?>
<svg xmlns="http://www.w3.org/2000/svg" width="138" height="129" viewBox="0 0 138 129" fill="none">
  <path fill-rule="evenodd" clip-rule="evenodd" d="M52.921 10L39.017 118.096H10L23.904 10H52.921ZM128.007 10L114.103 118.096H85.086L98.99 10H128.007ZM90.464 10L76.56 118.096H47.543L61.447 10H90.464ZM30.576 98.393C31.367 98.091 32.498 97.413 33.29 96.169L40.564 85.314H31.518L25.186 95.189H23.942C24.244 94.284 24.432 93.38 24.545 92.513L25.563 85.314H17.347L13.691 111.32H21.907L23.075 102.99C23.188 102.236 23.226 101.332 23.113 100.465H24.281L28.314 111.32H37.133L32.61 101.181C32.158 100.088 31.253 98.844 30.537 98.543L30.575 98.392L30.576 98.393ZM64.634 102.464C65.689 102.992 66.029 103.293 65.878 103.934C65.69 104.725 64.973 105.027 62.674 105.027C61.694 105.027 58.076 104.952 53.704 104.839L52.95 110.53C56.907 111.548 60.903 111.849 63.089 111.849C70.589 111.849 73.265 110.191 73.944 104.198C74.359 100.354 73.492 98.13 69.195 96.095L64.823 94.022C63.315 93.306 63.052 92.891 63.165 92.326C63.353 91.497 63.994 91.271 65.728 91.271C68.932 91.271 72.55 91.309 74.849 91.346L75.565 86.145C72.663 85.165 69.158 84.788 66.256 84.788C59.17 84.788 55.778 86.409 55.1 92.138C54.723 95.342 55.515 97.98 59.887 100.128L64.636 102.465L64.634 102.464ZM114.097 91.948L114.964 85.842H92.425L91.558 91.948H98.719L95.93 111.848H104.109L106.898 91.948H114.097Z" fill="#E5007D"></path>
</svg>
