<?xml version="1.0" encoding="UTF-8"?>
<svg xmlns="http://www.w3.org/2000/svg" width="144" height="129" viewBox="0 0 144 129" fill="none">
  <path fill-rule="evenodd" clip-rule="evenodd" d="M131.3 28.664L124.527 81.07H115.901L111.115 118.095H10L17.87 57.206H26.496L30.185 28.665L32.594 10H133.709L131.303 28.665L131.3 28.664ZM46.135 28.664C44.261 28.664 43.236 29.558 43.064 31.344L42.7 34.183C42.456 36.22 43.342 37.237 45.354 37.237H49.102C50.976 37.237 52.016 36.345 52.224 34.558L52.59 31.719C52.694 30.683 52.52 29.916 52.069 29.412C51.618 28.913 50.889 28.663 49.883 28.663H46.137L46.135 28.664ZM114.755 41.519C113.889 41.272 112.686 41.024 111.134 40.774C109.574 40.525 107.813 40.32 105.852 40.158C103.893 39.999 101.871 39.916 99.789 39.916C97.951 39.916 96.285 40.043 94.794 40.291C93.301 40.543 91.991 41.096 90.864 41.952C89.737 42.809 88.764 44.142 87.95 45.945C87.135 47.75 86.501 50.205 86.05 53.314C85.565 56.387 85.469 59.002 85.765 61.165C86.06 63.327 86.822 64.952 88.053 66.041C89.286 67.13 91.082 67.621 93.442 67.514C95.556 67.441 97.473 66.95 99.191 66.041C100.91 65.13 102.393 63.843 103.641 62.181C103.883 61.861 104.102 61.515 104.32 61.17L104.372 61.19C103.886 62.084 103.789 63.124 103.526 64.326C103.269 65.497 102.763 67.48 102.241 68.481C101.513 70.052 100.311 71.563 98.541 72.172C96.772 72.778 94.653 73.024 92.191 73.136C90.783 73.199 84.358 73.211 83.907 73.211C81.437 73.211 79.468 73.89 77.998 75.248C76.525 76.607 75.62 78.454 75.282 80.787L72.645 100.375C72.306 103.092 72.787 105.304 74.09 107.011C75.392 108.716 77.447 109.57 80.255 109.57C82.013 109.57 96.759 109.654 96.742 109.57L97.786 101.994H84.415C83.569 101.994 82.976 101.794 82.638 101.394C82.298 100.995 82.18 100.41 82.284 99.644L83.026 94.16H96.286L97.099 87.526H83.926L84.516 83.19C84.651 82.285 84.929 81.658 85.354 81.309C85.776 80.962 86.442 80.788 87.357 80.788C87.357 80.788 92.22 80.82 97.107 80.3C98.172 80.186 100.268 79.953 101.36 79.601C103.089 79.046 104.674 78.405 106.114 77.37C107.553 76.333 108.759 74.832 109.73 72.868C110.701 70.903 111.396 66.549 111.812 63.441L114.831 41.523L114.755 41.517V41.519ZM102.496 56.879C101.629 57.898 100.753 58.71 99.867 59.318C98.983 59.925 98.124 60.282 97.292 60.39C96.564 60.462 96.024 60.309 95.678 59.933C95.331 59.558 95.156 58.835 95.156 57.763C95.156 56.691 95.33 55.154 95.678 53.154C95.885 51.833 96.111 50.735 96.354 49.858C96.596 48.982 96.917 48.305 97.317 47.821C97.716 47.339 98.245 46.992 98.905 46.777C99.563 46.562 100.412 46.455 101.453 46.455C102.598 46.455 103.665 46.463 104.656 46.483L104.753 46.486L103.456 55.611C103.145 56.048 102.833 56.483 102.496 56.879ZM72.392 73.369H63.006L57.274 96.773C57.071 97.609 56.868 98.568 56.665 99.646C56.462 100.727 56.293 101.736 56.157 102.676H55.142C55.177 101.771 55.201 100.831 55.22 99.855C55.236 98.881 55.227 97.939 55.194 97.034L54.737 76.505C54.737 75.6 54.458 74.851 53.901 74.258C53.342 73.666 52.624 73.37 51.745 73.37H44.745C42.918 73.37 41.767 74.295 41.294 76.14L35.511 96.617C35.274 97.488 35.029 98.454 34.775 99.515C34.522 100.578 34.293 101.632 34.09 102.676H33.127C33.159 101.597 33.211 100.586 33.278 99.646C33.346 98.706 33.396 97.818 33.431 96.983L34.09 73.37H24.704L25.212 106.594C25.178 107.396 25.473 108.067 26.099 108.605C26.725 109.146 27.46 109.415 28.306 109.415H36.727C37.572 109.415 38.299 109.199 38.909 108.763C39.517 108.327 39.924 107.726 40.127 106.961L46.063 85.438C46.299 84.603 46.502 83.758 46.671 82.904C46.84 82.051 47.008 81.208 47.178 80.371H48.142C48.109 81.276 48.083 82.129 48.065 82.93C48.048 83.731 48.022 84.584 47.991 85.491L48.142 106.543C48.109 107.377 48.404 108.067 49.03 108.605C49.656 109.146 50.374 109.415 51.186 109.415H59.456C60.334 109.415 61.069 109.207 61.663 108.788C62.255 108.371 62.652 107.762 62.855 106.961L72.394 73.37L72.392 73.369ZM82.017 43.321C81.479 42.197 80.673 41.348 79.598 40.776C78.521 40.205 77.272 39.919 75.849 39.919C73.664 39.919 71.417 40.571 69.111 41.874C67.385 42.849 65.783 44.1 64.3 45.623L64.191 40.669H56.75L53.157 67.303H62.629L64.815 51.142C66.025 50.172 67.09 49.44 67.989 48.976C69.03 48.441 69.984 48.172 70.852 48.172C71.649 48.1 72.17 48.252 72.413 48.627C72.655 49.002 72.707 49.671 72.569 50.638L70.279 67.302H79.752L82.459 47.529C82.701 45.851 82.553 44.447 82.015 43.322L82.017 43.321ZM38.223 67.302H47.643L51.234 40.667H41.814L38.223 67.302Z" fill="white"></path>
</svg>
