<?xml version="1.0" encoding="UTF-8"?>
<svg xmlns="http://www.w3.org/2000/svg" width="128" height="109" viewBox="0 0 128 109" fill="none">
  <path fill-rule="evenodd" clip-rule="evenodd" d="M0 108.096L15.225 0H127.41L112.607 108.096H0.001H0ZM68.67 29.365C68.138 29.26 64.606 28.941 61.396 30.03C55.054 32.002 52.729 37.596 51.948 39.018C51.902 39.088 51.818 39.133 51.751 39.19C51.755 39.103 51.742 39.012 51.766 38.931C52.655 35.915 53.548 32.9 54.439 29.885C54.463 29.805 54.47 29.721 54.485 29.639C54.407 29.66 54.325 29.673 54.25 29.703C52.244 30.502 50.245 31.32 48.229 32.095C47.493 32.378 47.029 32.846 46.842 33.604C46.641 34.421 46.435 35.236 46.232 36.053C44.316 43.789 43.072 51.623 42.809 59.599C42.788 60.229 42.587 60.459 41.967 60.55C41.826 60.571 41.681 60.574 41.538 60.574C39.375 60.581 37.212 60.588 35.049 60.593C34.347 60.595 34.266 60.583 34.35 59.879C34.447 59.072 34.685 58.278 34.898 57.488C35.714 54.469 36.668 51.512 38.563 48.948C39.225 48.052 39.829 47.098 40.072 45.975C40.757 42.807 41.445 39.641 42.13 36.473C42.149 36.386 42.148 36.295 42.156 36.206C42.076 36.255 41.986 36.293 41.917 36.355C40.379 37.704 38.765 38.977 37.323 40.423C33.867 43.89 31.355 47.97 29.78 52.615C28.289 57.014 27.802 61.543 28.051 66.165C28.302 70.816 29.389 75.253 31.469 79.431C33.984 84.48 37.639 88.574 42.075 92.004C42.269 92.154 42.476 92.285 42.678 92.426C42.676 92.164 42.719 91.892 42.663 91.642C42.317 90.104 41.946 88.572 41.587 87.036C41.319 85.891 41.071 84.742 40.791 83.6C40.396 81.986 39.466 80.66 38.533 79.316C36.026 75.709 34.718 71.658 34.276 67.31C34.237 66.928 34.613 66.535 35.019 66.535C37.354 66.534 39.689 66.533 42.024 66.535C42.53 66.535 42.854 66.856 42.878 67.366C42.998 69.896 42.955 72.436 43.389 74.947C43.875 77.754 44.208 80.594 44.82 83.373C45.684 87.291 46.732 91.17 47.741 95.055C47.826 95.383 48.155 95.745 48.467 95.902C50.44 96.896 52.572 97.46 54.677 98.093C54.782 98.124 54.892 98.139 54.999 98.161C54.97 98.053 54.95 97.941 54.912 97.837C50.885 86.839 48.728 75.495 48.772 63.772C48.784 60.486 48.976 57.19 49.298 53.919C49.604 50.802 50.188 47.712 50.651 44.61C50.664 44.521 50.704 44.436 50.731 44.349C50.752 44.436 50.79 44.524 50.792 44.612C50.818 45.77 50.832 46.927 50.862 48.085C50.936 50.891 51.498 53.571 52.948 56.013C54.015 57.809 55.471 59.283 56.944 60.733C59.823 63.567 62.747 66.353 65.616 69.196C68.559 72.112 69.625 75.716 69.324 79.779C69.155 82.062 68.453 84.22 67.673 86.35C67.111 87.882 66.315 89.285 65.116 90.422C63.105 92.329 60.752 93.318 57.957 92.898C56.619 92.698 55.305 92.329 53.983 92.025C53.768 91.976 53.754 92.023 53.82 92.206C54.495 94.085 55.167 95.966 55.839 97.847C56 98.299 56.348 98.526 56.797 98.543C57.896 98.584 58.997 98.632 60.095 98.601C63.318 98.509 66.175 97.431 68.607 95.296C70.815 93.358 72.542 91.023 74.106 88.558C74.155 88.48 74.222 88.413 74.28 88.341C74.269 88.429 74.269 88.52 74.245 88.605C73.343 91.747 72.442 94.888 71.53 98.027C71.447 98.313 71.492 98.348 71.775 98.279C78.773 96.57 84.766 93.118 89.713 87.882C93.207 84.183 95.755 79.907 97.334 75.066C99.112 69.613 99.449 64.05 98.554 58.4C97.572 52.196 95.06 46.693 91.008 41.888C88.681 39.128 85.913 36.873 83.01 34.764C82.972 34.737 82.928 34.719 82.887 34.697C82.896 34.761 82.899 34.827 82.913 34.89C83.537 37.621 84.142 40.356 84.802 43.078C84.965 43.752 85.169 44.499 85.595 45.012C87.761 47.617 89.469 50.491 90.84 53.574C92.412 57.109 93.002 60.831 92.868 64.681C92.774 67.387 92.429 70.054 91.666 72.66C90.397 76.996 87.988 80.663 85.005 83.99C84.015 85.094 82.854 85.971 81.444 86.482C81.369 86.509 81.286 86.511 81.206 86.524C81.21 86.449 81.205 86.373 81.218 86.3C81.264 86.046 81.328 85.795 81.365 85.54C82.021 81.075 82.864 76.635 83.023 72.107C83.124 69.241 83.383 66.375 83.355 63.511C83.328 60.742 83.121 57.964 82.818 55.209C82.473 52.074 81.962 48.956 81.47 45.839C80.837 41.829 79.877 37.895 78.62 34.031C78.099 32.429 77.123 31.34 75.472 30.924C73.916 30.532 72.352 30.17 70.791 29.799C70.704 29.778 70.608 29.793 70.516 29.791C70.535 29.874 70.546 29.959 70.574 30.038C71.08 31.481 71.582 32.926 72.097 34.366C74.79 41.907 76.195 49.701 76.702 57.673C76.949 61.562 77.043 65.455 76.825 69.348C76.65 72.481 76.407 75.609 76.187 78.739C76.182 78.811 76.066 78.942 76.039 78.933C75.945 78.902 75.841 78.838 75.792 78.755C75.743 78.671 75.75 78.552 75.739 78.447C75.464 75.652 74.654 73.017 73.349 70.535C71.441 66.903 68.686 63.989 65.545 61.415C63.508 59.745 61.496 58.055 59.735 56.082C57.634 53.728 56.453 51.017 56.531 47.839C56.595 45.219 57.269 42.707 58.259 40.302C59.84 36.463 63.536 34.423 67.627 35.066C68.956 35.275 70.268 35.592 71.587 35.862C71.768 35.899 71.877 35.92 71.787 35.658C71.203 33.968 70.612 32.281 70.069 30.579C69.838 29.854 69.358 29.497 68.663 29.36L68.67 29.365Z" fill="white" fill-opacity="0.5"></path>
</svg>
