<?xml version="1.0" encoding="UTF-8"?>
<svg xmlns="http://www.w3.org/2000/svg" width="148" height="129" viewBox="0 0 148 129" fill="none">
  <path fill-rule="evenodd" clip-rule="evenodd" d="M10 118.096L25.225 10H137.41L122.607 118.096H10.001H10ZM78.67 39.365C78.138 39.26 74.606 38.941 71.396 40.03C65.054 42.002 62.729 47.596 61.948 49.018C61.902 49.088 61.818 49.133 61.751 49.19C61.755 49.103 61.742 49.012 61.766 48.931C62.655 45.915 63.548 42.9 64.439 39.885C64.463 39.805 64.47 39.721 64.485 39.639C64.407 39.66 64.325 39.673 64.25 39.703C62.244 40.502 60.245 41.32 58.229 42.095C57.493 42.378 57.029 42.846 56.842 43.604C56.641 44.421 56.435 45.236 56.232 46.053C54.316 53.789 53.072 61.623 52.809 69.599C52.788 70.229 52.587 70.459 51.967 70.55C51.826 70.571 51.681 70.574 51.538 70.574C49.375 70.581 47.212 70.588 45.049 70.593C44.347 70.595 44.266 70.583 44.35 69.879C44.447 69.072 44.685 68.278 44.898 67.488C45.714 64.469 46.668 61.512 48.563 58.948C49.225 58.052 49.829 57.098 50.072 55.975C50.757 52.807 51.445 49.641 52.13 46.473C52.149 46.386 52.148 46.295 52.156 46.206C52.076 46.255 51.986 46.293 51.917 46.355C50.379 47.704 48.765 48.977 47.323 50.423C43.867 53.89 41.355 57.97 39.78 62.615C38.289 67.014 37.802 71.543 38.051 76.165C38.302 80.816 39.389 85.253 41.469 89.431C43.984 94.48 47.639 98.574 52.075 102.004C52.269 102.154 52.476 102.285 52.678 102.426C52.676 102.164 52.719 101.892 52.663 101.642C52.317 100.104 51.946 98.572 51.587 97.036C51.319 95.891 51.071 94.742 50.791 93.6C50.396 91.986 49.466 90.66 48.533 89.316C46.026 85.709 44.718 81.658 44.276 77.31C44.237 76.928 44.613 76.535 45.019 76.535C47.354 76.534 49.689 76.533 52.024 76.535C52.53 76.535 52.854 76.856 52.878 77.366C52.998 79.896 52.955 82.436 53.389 84.947C53.875 87.754 54.208 90.594 54.82 93.373C55.684 97.291 56.732 101.17 57.741 105.055C57.826 105.383 58.155 105.745 58.467 105.902C60.44 106.896 62.572 107.46 64.677 108.093C64.782 108.124 64.892 108.139 64.999 108.161C64.97 108.053 64.95 107.941 64.912 107.837C60.885 96.839 58.728 85.495 58.772 73.772C58.784 70.486 58.976 67.19 59.298 63.919C59.604 60.802 60.188 57.712 60.651 54.61C60.664 54.521 60.704 54.436 60.731 54.349C60.752 54.436 60.79 54.524 60.792 54.612C60.818 55.77 60.832 56.927 60.862 58.085C60.936 60.891 61.498 63.571 62.948 66.013C64.015 67.809 65.471 69.283 66.944 70.733C69.823 73.567 72.747 76.353 75.616 79.196C78.559 82.112 79.625 85.716 79.324 89.779C79.155 92.062 78.453 94.22 77.673 96.35C77.111 97.882 76.315 99.285 75.116 100.422C73.105 102.329 70.752 103.318 67.957 102.898C66.619 102.698 65.305 102.329 63.983 102.025C63.768 101.976 63.754 102.023 63.82 102.206C64.495 104.085 65.167 105.966 65.839 107.847C66 108.299 66.348 108.526 66.797 108.543C67.896 108.584 68.997 108.632 70.095 108.601C73.318 108.509 76.175 107.431 78.607 105.296C80.815 103.358 82.542 101.023 84.106 98.558C84.155 98.48 84.222 98.413 84.28 98.341C84.269 98.429 84.269 98.52 84.245 98.605C83.343 101.747 82.442 104.888 81.53 108.027C81.447 108.313 81.492 108.348 81.775 108.279C88.773 106.57 94.766 103.118 99.713 97.882C103.207 94.183 105.755 89.907 107.334 85.066C109.112 79.613 109.449 74.05 108.554 68.4C107.572 62.196 105.06 56.693 101.008 51.888C98.681 49.128 95.913 46.873 93.01 44.764C92.972 44.737 92.928 44.719 92.887 44.697C92.896 44.761 92.899 44.827 92.913 44.89C93.537 47.621 94.142 50.356 94.802 53.078C94.965 53.752 95.169 54.499 95.595 55.012C97.761 57.617 99.469 60.491 100.84 63.574C102.412 67.109 103.002 70.831 102.868 74.681C102.774 77.387 102.429 80.054 101.666 82.66C100.397 86.996 97.988 90.663 95.005 93.99C94.015 95.094 92.854 95.971 91.444 96.482C91.369 96.509 91.286 96.511 91.206 96.524C91.21 96.449 91.205 96.373 91.218 96.3C91.264 96.046 91.328 95.795 91.365 95.54C92.021 91.075 92.864 86.635 93.023 82.107C93.124 79.241 93.383 76.375 93.355 73.511C93.328 70.742 93.121 67.964 92.818 65.209C92.473 62.074 91.962 58.956 91.47 55.839C90.837 51.829 89.877 47.895 88.62 44.031C88.099 42.429 87.123 41.34 85.472 40.924C83.916 40.532 82.352 40.17 80.791 39.799C80.704 39.778 80.608 39.793 80.516 39.791C80.535 39.874 80.546 39.959 80.574 40.038C81.08 41.481 81.582 42.926 82.097 44.366C84.79 51.907 86.195 59.701 86.702 67.673C86.949 71.562 87.043 75.455 86.825 79.348C86.65 82.481 86.407 85.609 86.187 88.739C86.182 88.811 86.066 88.942 86.039 88.933C85.945 88.902 85.841 88.838 85.792 88.755C85.743 88.671 85.75 88.552 85.739 88.447C85.464 85.652 84.654 83.017 83.349 80.535C81.441 76.903 78.686 73.989 75.545 71.415C73.508 69.745 71.496 68.055 69.735 66.082C67.634 63.728 66.453 61.017 66.531 57.839C66.595 55.219 67.269 52.707 68.259 50.302C69.84 46.463 73.536 44.423 77.627 45.066C78.956 45.275 80.268 45.592 81.587 45.862C81.768 45.899 81.877 45.92 81.787 45.658C81.203 43.968 80.612 42.281 80.069 40.579C79.838 39.854 79.358 39.497 78.663 39.36L78.67 39.365Z" fill="white"></path>
</svg>
