<?xml version="1.0" encoding="UTF-8"?>
<svg xmlns="http://www.w3.org/2000/svg" width="100" height="85" viewBox="0 0 100 85" fill="none">
  <path fill-rule="evenodd" clip-rule="evenodd" d="M0 84.8434L11.9499 0H100.003L88.3841 84.8434H0.00078489H0ZM53.8984 23.0483C53.4808 22.9659 50.7086 22.7155 48.1891 23.5702C43.2113 25.118 41.3865 29.5087 40.7735 30.6248C40.7373 30.6798 40.6714 30.7151 40.6188 30.7598C40.622 30.6915 40.6118 30.6201 40.6306 30.5565C41.3284 28.1893 42.0293 25.8229 42.7286 23.4564C42.7474 23.3936 42.7529 23.3277 42.7647 23.2633C42.7035 23.2798 42.6391 23.29 42.5803 23.3136C41.0058 23.9407 39.4368 24.5827 37.8544 25.191C37.2768 25.4132 36.9126 25.7805 36.7658 26.3754C36.608 27.0167 36.4464 27.6564 36.287 28.2976C34.7832 34.3695 33.8068 40.5184 33.6003 46.7786C33.5839 47.2731 33.4261 47.4536 32.9395 47.5251C32.8288 47.5416 32.715 47.5439 32.6027 47.5439C30.905 47.5494 29.2073 47.5549 27.5096 47.5588C26.9586 47.5604 26.895 47.551 26.961 46.9984C27.0371 46.365 27.2239 45.7418 27.3911 45.1217C28.0315 42.7522 28.7803 40.4312 30.2677 38.4188C30.7873 37.7155 31.2614 36.9667 31.4521 36.0853C31.9897 33.5988 32.5298 31.1138 33.0674 28.6273C33.0823 28.559 33.0815 28.4876 33.0878 28.4177C33.025 28.4562 32.9544 28.486 32.9002 28.5347C31.6931 29.5935 30.4263 30.5926 29.2944 31.7276C26.5819 34.4488 24.6102 37.6512 23.374 41.297C22.2037 44.7497 21.8215 48.3045 22.0169 51.9322C22.2139 55.5827 23.0671 59.0653 24.6997 62.3446C26.6737 66.3075 29.5425 69.5208 33.0242 72.213C33.1765 72.3307 33.339 72.4335 33.4975 72.5442C33.496 72.3386 33.5297 72.1251 33.4857 71.9289C33.2142 70.7217 32.923 69.5193 32.6412 68.3137C32.4309 67.415 32.2362 66.5131 32.0164 65.6168C31.7064 64.35 30.9765 63.3092 30.2442 62.2543C28.2764 59.4232 27.2498 56.2436 26.9029 52.8309C26.8723 52.5311 27.1674 52.2226 27.4861 52.2226C29.3188 52.2219 31.1515 52.2211 32.9842 52.2226C33.3814 52.2226 33.6357 52.4746 33.6545 52.8749C33.7487 54.8606 33.7149 56.8543 34.0556 58.8251C34.437 61.0283 34.6984 63.2574 35.1788 65.4386C35.8569 68.5138 36.6795 71.5584 37.4714 74.6077C37.5381 74.8651 37.7964 75.1493 38.0412 75.2725C39.5898 76.0527 41.2632 76.4954 42.9154 76.9922C42.9978 77.0165 43.0842 77.0283 43.1681 77.0456C43.1454 76.9608 43.1297 76.8729 43.0999 76.7913C39.9391 68.159 38.2461 59.2552 38.2806 50.054C38.2901 47.4748 38.4408 44.8878 38.6935 42.3205C38.9337 39.874 39.392 37.4487 39.7554 35.0139C39.7657 34.9441 39.797 34.8774 39.8182 34.8091C39.8347 34.8774 39.8645 34.9464 39.8661 35.0155C39.8865 35.9244 39.8975 36.8325 39.9211 37.7414C39.9791 39.9438 40.4202 42.0473 41.5583 43.964C42.3958 45.3737 43.5386 46.5306 44.6948 47.6687C46.9545 49.8931 49.2495 52.0798 51.5013 54.3112C53.8113 56.6 54.6479 59.4287 54.4117 62.6177C54.279 64.4096 53.7281 66.1034 53.1158 67.7752C52.6747 68.9777 52.05 70.0789 51.1089 70.9713C49.5305 72.4681 47.6836 73.2443 45.4899 72.9147C44.4397 72.7577 43.4083 72.4681 42.3707 72.2295C42.202 72.191 42.191 72.2279 42.2428 72.3715C42.7726 73.8464 43.3 75.3227 43.8275 76.7991C43.9538 77.1539 44.227 77.332 44.5794 77.3454C45.442 77.3776 46.3061 77.4152 47.1679 77.3909C49.6976 77.3187 51.9401 76.4726 53.8489 74.7968C55.582 73.2757 56.9375 71.443 58.165 69.5083C58.2035 69.447 58.2561 69.3945 58.3016 69.3379C58.293 69.407 58.293 69.4784 58.2741 69.5452C57.5662 72.0113 56.859 74.4766 56.1432 76.9404C56.078 77.1649 56.1133 77.1923 56.3355 77.1382C61.8281 75.7968 66.532 73.0874 70.4148 68.9777C73.1572 66.0744 75.1571 62.7182 76.3965 58.9185C77.792 54.6385 78.0565 50.2722 77.354 45.8376C76.5833 40.9681 74.6116 36.6489 71.4312 32.8775C69.6048 30.7112 67.4322 28.9412 65.1537 27.2859C65.1239 27.2647 65.0893 27.2506 65.0572 27.2333C65.0642 27.2836 65.0666 27.3354 65.0776 27.3848C65.5673 29.5283 66.0422 31.675 66.5602 33.8115C66.6882 34.3405 66.8483 34.9268 67.1826 35.3295C68.8827 37.3741 70.2233 39.6299 71.2994 42.0497C72.5332 44.8243 72.9963 47.7456 72.8911 50.7675C72.8174 52.8914 72.5466 54.9847 71.9477 57.0301C70.9517 60.4334 69.0609 63.3116 66.7195 65.9229C65.9425 66.7894 65.0312 67.4778 63.9246 67.8788C63.8657 67.9 63.8005 67.9016 63.7378 67.9118C63.7409 67.8529 63.737 67.7933 63.7472 67.736C63.7833 67.5366 63.8335 67.3396 63.8625 67.1395C64.3774 63.6349 65.0391 60.15 65.1639 56.596C65.2432 54.3465 65.4465 52.0971 65.4245 49.8491C65.4033 47.6758 65.2408 45.4953 65.003 43.333C64.7322 40.8723 64.3311 38.4251 63.945 35.9786C63.4481 32.8312 62.6946 29.7434 61.708 26.7106C61.2991 25.4532 60.533 24.5984 59.2372 24.2719C58.0159 23.9643 56.7883 23.6801 55.5631 23.3889C55.4948 23.3724 55.4195 23.3842 55.3473 23.3826C55.3622 23.4478 55.3708 23.5145 55.3928 23.5765C55.79 24.7091 56.184 25.8433 56.5882 26.9735C58.7019 32.8924 59.8047 39.0098 60.2026 45.2669C60.3965 48.3194 60.4703 51.375 60.2991 54.4305C60.1618 56.8896 59.9711 59.3447 59.7984 61.8014C59.7945 61.8579 59.7034 61.9608 59.6822 61.9537C59.6084 61.9294 59.5268 61.8791 59.4884 61.814C59.4499 61.7481 59.4554 61.6547 59.4468 61.5722C59.2309 59.3785 58.5952 57.3103 57.5709 55.3622C56.0733 52.5115 53.9109 50.2243 51.4456 48.204C49.8468 46.8932 48.2676 45.5668 46.8854 44.0182C45.2363 42.1706 44.3094 40.0427 44.3706 37.5483C44.4208 35.4919 44.9498 33.5203 45.7269 31.6326C46.9678 28.6194 49.8688 27.0183 53.0797 27.5229C54.1229 27.687 55.1526 27.9358 56.1879 28.1477C56.33 28.1768 56.4155 28.1932 56.3449 27.9876C55.8865 26.6611 55.4226 25.337 54.9964 24.0011C54.8151 23.4321 54.4384 23.1519 53.8929 23.0444L53.8984 23.0483Z" fill="white"></path>
</svg>
