<?xml version="1.0" encoding="UTF-8"?>
<svg xmlns="http://www.w3.org/2000/svg" width="124" height="109" viewBox="0 0 124 109" fill="none">
  <path fill-rule="evenodd" clip-rule="evenodd" d="M121.3 18.664L114.527 71.07H105.901L101.115 108.095H0L7.87 47.206H16.496L20.185 18.665L22.594 0H123.709L121.303 18.665L121.3 18.664ZM36.135 18.664C34.261 18.664 33.236 19.558 33.064 21.344L32.7 24.183C32.456 26.22 33.342 27.237 35.354 27.237H39.102C40.976 27.237 42.016 26.345 42.224 24.558L42.59 21.719C42.694 20.683 42.52 19.916 42.069 19.412C41.618 18.913 40.889 18.663 39.883 18.663H36.137L36.135 18.664ZM104.755 31.519C103.889 31.272 102.686 31.024 101.134 30.774C99.574 30.525 97.813 30.32 95.852 30.158C93.893 29.999 91.871 29.916 89.789 29.916C87.951 29.916 86.285 30.043 84.794 30.291C83.301 30.543 81.991 31.096 80.864 31.952C79.737 32.809 78.764 34.142 77.95 35.945C77.135 37.75 76.501 40.205 76.05 43.314C75.565 46.387 75.469 49.002 75.765 51.165C76.06 53.327 76.822 54.952 78.053 56.041C79.286 57.13 81.082 57.621 83.442 57.514C85.556 57.441 87.473 56.95 89.191 56.041C90.91 55.13 92.393 53.843 93.641 52.181C93.883 51.861 94.102 51.515 94.32 51.17L94.372 51.19C93.886 52.084 93.789 53.124 93.526 54.326C93.269 55.497 92.763 57.48 92.241 58.481C91.513 60.052 90.311 61.563 88.541 62.172C86.772 62.778 84.653 63.024 82.191 63.136C80.783 63.199 74.358 63.211 73.907 63.211C71.437 63.211 69.468 63.89 67.998 65.248C66.525 66.607 65.62 68.454 65.282 70.787L62.645 90.375C62.306 93.092 62.787 95.304 64.09 97.011C65.392 98.716 67.447 99.57 70.255 99.57C72.013 99.57 86.759 99.654 86.742 99.57L87.786 91.994H74.415C73.569 91.994 72.976 91.794 72.638 91.394C72.298 90.995 72.18 90.41 72.284 89.644L73.026 84.16H86.286L87.099 77.526H73.926L74.516 73.19C74.651 72.285 74.929 71.658 75.354 71.309C75.776 70.962 76.442 70.788 77.357 70.788C77.357 70.788 82.22 70.82 87.107 70.3C88.172 70.186 90.268 69.953 91.36 69.601C93.089 69.046 94.674 68.405 96.114 67.37C97.553 66.333 98.759 64.832 99.73 62.868C100.701 60.903 101.396 56.549 101.812 53.441L104.831 31.523L104.755 31.517V31.519ZM92.496 46.879C91.629 47.898 90.753 48.71 89.867 49.318C88.983 49.925 88.124 50.282 87.292 50.39C86.564 50.462 86.024 50.309 85.678 49.933C85.331 49.558 85.156 48.835 85.156 47.763C85.156 46.691 85.33 45.154 85.678 43.154C85.885 41.833 86.111 40.735 86.354 39.858C86.596 38.982 86.917 38.305 87.317 37.821C87.716 37.339 88.245 36.992 88.905 36.777C89.563 36.562 90.412 36.455 91.453 36.455C92.598 36.455 93.665 36.463 94.656 36.483L94.753 36.486L93.456 45.611C93.145 46.048 92.833 46.483 92.496 46.879ZM62.392 63.369H53.006L47.274 86.773C47.071 87.609 46.868 88.568 46.665 89.646C46.462 90.727 46.293 91.736 46.157 92.676H45.142C45.177 91.771 45.201 90.831 45.22 89.855C45.236 88.881 45.227 87.939 45.194 87.034L44.737 66.505C44.737 65.6 44.458 64.851 43.901 64.258C43.342 63.666 42.624 63.37 41.745 63.37H34.745C32.918 63.37 31.767 64.295 31.294 66.14L25.511 86.617C25.274 87.488 25.029 88.454 24.775 89.515C24.522 90.578 24.293 91.632 24.09 92.676H23.127C23.159 91.597 23.211 90.586 23.278 89.646C23.346 88.706 23.396 87.818 23.431 86.983L24.09 63.37H14.704L15.212 96.594C15.178 97.396 15.473 98.067 16.099 98.605C16.725 99.146 17.46 99.415 18.306 99.415H26.727C27.572 99.415 28.299 99.199 28.909 98.763C29.517 98.327 29.924 97.726 30.127 96.961L36.063 75.438C36.299 74.603 36.502 73.758 36.671 72.904C36.84 72.051 37.008 71.208 37.178 70.371H38.142C38.109 71.276 38.083 72.129 38.065 72.93C38.048 73.731 38.022 74.584 37.991 75.491L38.142 96.543C38.109 97.377 38.404 98.067 39.03 98.605C39.656 99.146 40.374 99.415 41.186 99.415H49.456C50.334 99.415 51.069 99.207 51.663 98.788C52.255 98.371 52.652 97.762 52.855 96.961L62.394 63.37L62.392 63.369ZM72.017 33.321C71.479 32.197 70.673 31.348 69.598 30.776C68.521 30.205 67.272 29.919 65.849 29.919C63.664 29.919 61.417 30.571 59.111 31.874C57.385 32.849 55.783 34.1 54.3 35.623L54.191 30.669H46.75L43.157 57.303H52.629L54.815 41.142C56.025 40.172 57.09 39.44 57.989 38.976C59.03 38.441 59.984 38.172 60.852 38.172C61.649 38.1 62.17 38.252 62.413 38.627C62.655 39.002 62.707 39.671 62.569 40.638L60.279 57.302H69.752L72.459 37.529C72.701 35.851 72.553 34.447 72.015 33.322L72.017 33.321ZM28.223 57.302H37.643L41.234 30.667H31.814L28.223 57.302Z" fill="#009BD9"></path>
</svg>
