<?xml version="1.0" encoding="UTF-8"?>
<svg xmlns="http://www.w3.org/2000/svg" width="118" height="109" viewBox="0 0 118 109" fill="none">
  <path fill-rule="evenodd" clip-rule="evenodd" d="M42.921 0L29.017 108.096H0L13.904 0H42.921ZM118.007 0L104.103 108.096H75.086L88.99 0H118.007ZM80.464 0L66.56 108.096H37.543L51.447 0H80.464ZM20.576 88.393C21.367 88.091 22.498 87.413 23.29 86.169L30.564 75.314H21.518L15.186 85.189H13.942C14.244 84.284 14.432 83.38 14.545 82.513L15.563 75.314H7.347L3.691 101.32H11.907L13.075 92.99C13.188 92.236 13.226 91.332 13.113 90.465H14.281L18.314 101.32H27.133L22.61 91.181C22.158 90.088 21.253 88.844 20.537 88.543L20.575 88.392L20.576 88.393ZM54.634 92.464C55.689 92.992 56.029 93.293 55.878 93.934C55.69 94.725 54.973 95.027 52.674 95.027C51.694 95.027 48.076 94.952 43.704 94.839L42.95 100.53C46.907 101.548 50.903 101.849 53.089 101.849C60.589 101.849 63.265 100.191 63.944 94.198C64.359 90.354 63.492 88.13 59.195 86.095L54.823 84.022C53.315 83.306 53.052 82.891 53.165 82.326C53.353 81.497 53.994 81.271 55.728 81.271C58.932 81.271 62.55 81.309 64.849 81.346L65.565 76.145C62.663 75.165 59.158 74.788 56.256 74.788C49.17 74.788 45.778 76.409 45.1 82.138C44.723 85.342 45.515 87.98 49.887 90.128L54.636 92.465L54.634 92.464ZM104.097 81.948L104.964 75.842H82.425L81.558 81.948H88.719L85.93 101.848H94.109L96.898 81.948H104.097Z" fill="white" fill-opacity="0.5"></path>
</svg>
