<?xml version="1.0" encoding="UTF-8"?>
<svg xmlns="http://www.w3.org/2000/svg" width="19" height="19" viewBox="0 0 19 19" fill="none">
  <path d="M14.4305 3.08742C13.7911 2.42543 13.0253 1.89862 12.1785 1.53824C11.3317 1.17786 10.4211 0.991255 9.50075 0.989502C7.64825 0.989502 5.87571 1.74634 4.57104 3.08742C2.17229 5.55504 2.18654 8.51034 3.29487 11.1616C4.39212 13.7836 6.57475 16.1768 8.67346 17.7356C8.91255 17.9136 9.20267 18.0098 9.50075 18.0098C9.79882 18.0098 10.0889 17.9136 10.328 17.7356C12.426 16.1768 14.6094 13.7836 15.7066 11.1616C16.815 8.51113 16.8292 5.55504 14.4305 3.08742ZM9.50075 10.0937C8.92335 10.0937 8.3696 9.8643 7.96132 9.45602C7.55303 9.04773 7.32366 8.49398 7.32366 7.91659C7.32366 7.33919 7.55303 6.78544 7.96132 6.37715C8.3696 5.96887 8.92335 5.7395 9.50075 5.7395C10.0781 5.7395 10.6319 5.96887 11.0402 6.37715C11.4485 6.78544 11.6778 7.33919 11.6778 7.91659C11.6778 8.49398 11.4485 9.04773 11.0402 9.45602C10.6319 9.8643 10.0781 10.0937 9.50075 10.0937Z" fill="black"></path>
</svg>
