<?xml version="1.0" encoding="UTF-8"?>
<svg xmlns="http://www.w3.org/2000/svg" width="347" height="109" viewBox="0 0 347 109" fill="none">
  <path fill-rule="evenodd" clip-rule="evenodd" d="M344.3 18.664L337.527 71.07H328.901L324.115 108.095H223L230.87 47.206H239.496L243.185 18.665L245.594 0H346.709L344.303 18.665L344.3 18.664ZM259.135 18.664C257.261 18.664 256.236 19.558 256.064 21.344L255.7 24.183C255.456 26.22 256.342 27.237 258.354 27.237H262.102C263.976 27.237 265.016 26.345 265.224 24.558L265.59 21.719C265.694 20.683 265.52 19.916 265.069 19.412C264.618 18.913 263.889 18.663 262.883 18.663H259.137L259.135 18.664ZM327.755 31.519C326.889 31.272 325.686 31.024 324.134 30.774C322.574 30.525 320.813 30.32 318.852 30.158C316.893 29.999 314.871 29.916 312.789 29.916C310.951 29.916 309.285 30.043 307.794 30.291C306.301 30.543 304.991 31.096 303.864 31.952C302.737 32.809 301.764 34.142 300.95 35.945C300.135 37.75 299.501 40.205 299.05 43.314C298.565 46.387 298.469 49.002 298.765 51.165C299.06 53.327 299.822 54.952 301.053 56.041C302.286 57.13 304.082 57.621 306.442 57.514C308.556 57.441 310.473 56.95 312.191 56.041C313.91 55.13 315.393 53.843 316.641 52.181C316.883 51.861 317.102 51.515 317.32 51.17L317.372 51.19C316.886 52.084 316.789 53.124 316.526 54.326C316.269 55.497 315.763 57.48 315.241 58.481C314.513 60.052 313.311 61.563 311.541 62.172C309.772 62.778 307.653 63.024 305.191 63.136C303.783 63.199 297.358 63.211 296.907 63.211C294.437 63.211 292.468 63.89 290.998 65.248C289.525 66.607 288.62 68.454 288.282 70.787L285.645 90.375C285.306 93.092 285.787 95.304 287.09 97.011C288.392 98.716 290.447 99.57 293.255 99.57C295.013 99.57 309.759 99.654 309.742 99.57L310.786 91.994H297.415C296.569 91.994 295.976 91.794 295.638 91.394C295.298 90.995 295.18 90.41 295.284 89.644L296.026 84.16H309.286L310.099 77.526H296.926L297.516 73.19C297.651 72.285 297.929 71.658 298.354 71.309C298.776 70.962 299.442 70.788 300.357 70.788C300.357 70.788 305.22 70.82 310.107 70.3C311.172 70.186 313.268 69.953 314.36 69.601C316.089 69.046 317.674 68.405 319.114 67.37C320.553 66.333 321.759 64.832 322.73 62.868C323.701 60.903 324.396 56.549 324.812 53.441L327.831 31.523L327.755 31.517V31.519ZM315.496 46.879C314.629 47.898 313.753 48.71 312.867 49.318C311.983 49.925 311.124 50.282 310.292 50.39C309.564 50.462 309.024 50.309 308.678 49.933C308.331 49.558 308.156 48.835 308.156 47.763C308.156 46.691 308.33 45.154 308.678 43.154C308.885 41.833 309.111 40.735 309.354 39.858C309.596 38.982 309.917 38.305 310.317 37.821C310.716 37.339 311.245 36.992 311.905 36.777C312.563 36.562 313.412 36.455 314.453 36.455C315.598 36.455 316.665 36.463 317.656 36.483L317.753 36.486L316.456 45.611C316.145 46.048 315.833 46.483 315.496 46.879ZM285.392 63.369H276.006L270.274 86.773C270.071 87.609 269.868 88.568 269.665 89.646C269.462 90.727 269.293 91.736 269.157 92.676H268.142C268.177 91.771 268.201 90.831 268.22 89.855C268.236 88.881 268.227 87.939 268.194 87.034L267.737 66.505C267.737 65.6 267.458 64.851 266.901 64.258C266.342 63.666 265.624 63.37 264.745 63.37H257.745C255.918 63.37 254.767 64.295 254.294 66.14L248.511 86.617C248.274 87.488 248.029 88.454 247.775 89.515C247.522 90.578 247.293 91.632 247.09 92.676H246.127C246.159 91.597 246.211 90.586 246.278 89.646C246.346 88.706 246.396 87.818 246.431 86.983L247.09 63.37H237.704L238.212 96.594C238.178 97.396 238.473 98.067 239.099 98.605C239.725 99.146 240.46 99.415 241.306 99.415H249.727C250.572 99.415 251.299 99.199 251.909 98.763C252.517 98.327 252.924 97.726 253.127 96.961L259.063 75.438C259.299 74.603 259.502 73.758 259.671 72.904C259.84 72.051 260.008 71.208 260.178 70.371H261.142C261.109 71.276 261.083 72.129 261.065 72.93C261.048 73.731 261.022 74.584 260.991 75.491L261.142 96.543C261.109 97.377 261.404 98.067 262.03 98.605C262.656 99.146 263.374 99.415 264.186 99.415H272.456C273.334 99.415 274.069 99.207 274.663 98.788C275.255 98.371 275.652 97.762 275.855 96.961L285.394 63.37L285.392 63.369ZM295.017 33.321C294.479 32.197 293.673 31.348 292.598 30.776C291.521 30.205 290.272 29.919 288.849 29.919C286.664 29.919 284.417 30.571 282.111 31.874C280.385 32.849 278.783 34.1 277.3 35.623L277.191 30.669H269.75L266.157 57.303H275.629L277.815 41.142C279.025 40.172 280.09 39.44 280.989 38.976C282.03 38.441 282.984 38.172 283.852 38.172C284.649 38.1 285.17 38.252 285.413 38.627C285.655 39.002 285.707 39.671 285.569 40.638L283.279 57.302H292.752L295.459 37.529C295.701 35.851 295.553 34.447 295.015 33.322L295.017 33.321ZM251.223 57.302H260.643L264.234 30.667H254.814L251.223 57.302Z" fill="white"></path>
  <path d="M-10 0H245.5L232 108H-10V0Z" fill="white"></path>
</svg>
