<?xml version="1.0" encoding="UTF-8"?>
<svg xmlns="http://www.w3.org/2000/svg" width="341" height="109" viewBox="0 0 341 109" fill="none">
  <path fill-rule="evenodd" clip-rule="evenodd" d="M265.921 0L252.017 108.096H223L236.904 0H265.921ZM341.007 0L327.103 108.096H298.086L311.99 0H341.007ZM303.464 0L289.56 108.096H260.543L274.447 0H303.464ZM243.576 88.393C244.367 88.091 245.498 87.413 246.29 86.169L253.564 75.314H244.518L238.186 85.189H236.942C237.244 84.284 237.432 83.38 237.545 82.513L238.563 75.314H230.347L226.691 101.32H234.907L236.075 92.99C236.188 92.236 236.226 91.332 236.113 90.465H237.281L241.314 101.32H250.133L245.61 91.181C245.158 90.088 244.253 88.844 243.537 88.543L243.575 88.392L243.576 88.393ZM277.634 92.464C278.689 92.992 279.029 93.293 278.878 93.934C278.69 94.725 277.973 95.027 275.674 95.027C274.694 95.027 271.076 94.952 266.704 94.839L265.95 100.53C269.907 101.548 273.903 101.849 276.089 101.849C283.589 101.849 286.265 100.191 286.944 94.198C287.359 90.354 286.492 88.13 282.195 86.095L277.823 84.022C276.315 83.306 276.052 82.891 276.165 82.326C276.353 81.497 276.994 81.271 278.728 81.271C281.932 81.271 285.55 81.309 287.849 81.346L288.565 76.145C285.663 75.165 282.158 74.788 279.256 74.788C272.17 74.788 268.778 76.409 268.1 82.138C267.723 85.342 268.515 87.98 272.887 90.128L277.636 92.465L277.634 92.464ZM327.097 81.948L327.964 75.842H305.425L304.558 81.948H311.719L308.93 101.848H317.109L319.898 81.948H327.097Z" fill="white"></path>
  <path d="M-10 0H238L223.002 108H-10V0Z" fill="white"></path>
</svg>
