<?xml version="1.0" encoding="UTF-8"?>
<svg xmlns="http://www.w3.org/2000/svg" width="351" height="109" viewBox="0 0 351 109" fill="none">
  <path fill-rule="evenodd" clip-rule="evenodd" d="M223 108.096L238.225 0H350.41L335.607 108.096H223.001H223ZM291.67 29.365C291.138 29.26 287.606 28.941 284.396 30.03C278.054 32.002 275.729 37.596 274.948 39.018C274.902 39.088 274.818 39.133 274.751 39.19C274.755 39.103 274.742 39.012 274.766 38.931C275.655 35.915 276.548 32.9 277.439 29.885C277.463 29.805 277.47 29.721 277.485 29.639C277.407 29.66 277.325 29.673 277.25 29.703C275.244 30.502 273.245 31.32 271.229 32.095C270.493 32.378 270.029 32.846 269.842 33.604C269.641 34.421 269.435 35.236 269.232 36.053C267.316 43.789 266.072 51.623 265.809 59.599C265.788 60.229 265.587 60.459 264.967 60.55C264.826 60.571 264.681 60.574 264.538 60.574C262.375 60.581 260.212 60.588 258.049 60.593C257.347 60.595 257.266 60.583 257.35 59.879C257.447 59.072 257.685 58.278 257.898 57.488C258.714 54.469 259.668 51.512 261.563 48.948C262.225 48.052 262.829 47.098 263.072 45.975C263.757 42.807 264.445 39.641 265.13 36.473C265.149 36.386 265.148 36.295 265.156 36.206C265.076 36.255 264.986 36.293 264.917 36.355C263.379 37.704 261.765 38.977 260.323 40.423C256.867 43.89 254.355 47.97 252.78 52.615C251.289 57.014 250.802 61.543 251.051 66.165C251.302 70.816 252.389 75.253 254.469 79.431C256.984 84.48 260.639 88.574 265.075 92.004C265.269 92.154 265.476 92.285 265.678 92.426C265.676 92.164 265.719 91.892 265.663 91.642C265.317 90.104 264.946 88.572 264.587 87.036C264.319 85.891 264.071 84.742 263.791 83.6C263.396 81.986 262.466 80.66 261.533 79.316C259.026 75.709 257.718 71.658 257.276 67.31C257.237 66.928 257.613 66.535 258.019 66.535C260.354 66.534 262.689 66.533 265.024 66.535C265.53 66.535 265.854 66.856 265.878 67.366C265.998 69.896 265.955 72.436 266.389 74.947C266.875 77.754 267.208 80.594 267.82 83.373C268.684 87.291 269.732 91.17 270.741 95.055C270.826 95.383 271.155 95.745 271.467 95.902C273.44 96.896 275.572 97.46 277.677 98.093C277.782 98.124 277.892 98.139 277.999 98.161C277.97 98.053 277.95 97.941 277.912 97.837C273.885 86.839 271.728 75.495 271.772 63.772C271.784 60.486 271.976 57.19 272.298 53.919C272.604 50.802 273.188 47.712 273.651 44.61C273.664 44.521 273.704 44.436 273.731 44.349C273.752 44.436 273.79 44.524 273.792 44.612C273.818 45.77 273.832 46.927 273.862 48.085C273.936 50.891 274.498 53.571 275.948 56.013C277.015 57.809 278.471 59.283 279.944 60.733C282.823 63.567 285.747 66.353 288.616 69.196C291.559 72.112 292.625 75.716 292.324 79.779C292.155 82.062 291.453 84.22 290.673 86.35C290.111 87.882 289.315 89.285 288.116 90.422C286.105 92.329 283.752 93.318 280.957 92.898C279.619 92.698 278.305 92.329 276.983 92.025C276.768 91.976 276.754 92.023 276.82 92.206C277.495 94.085 278.167 95.966 278.839 97.847C279 98.299 279.348 98.526 279.797 98.543C280.896 98.584 281.997 98.632 283.095 98.601C286.318 98.509 289.175 97.431 291.607 95.296C293.815 93.358 295.542 91.023 297.106 88.558C297.155 88.48 297.222 88.413 297.28 88.341C297.269 88.429 297.269 88.52 297.245 88.605C296.343 91.747 295.442 94.888 294.53 98.027C294.447 98.313 294.492 98.348 294.775 98.279C301.773 96.57 307.766 93.118 312.713 87.882C316.207 84.183 318.755 79.907 320.334 75.066C322.112 69.613 322.449 64.05 321.554 58.4C320.572 52.196 318.06 46.693 314.008 41.888C311.681 39.128 308.913 36.873 306.01 34.764C305.972 34.737 305.928 34.719 305.887 34.697C305.896 34.761 305.899 34.827 305.913 34.89C306.537 37.621 307.142 40.356 307.802 43.078C307.965 43.752 308.169 44.499 308.595 45.012C310.761 47.617 312.469 50.491 313.84 53.574C315.412 57.109 316.002 60.831 315.868 64.681C315.774 67.387 315.429 70.054 314.666 72.66C313.397 76.996 310.988 80.663 308.005 83.99C307.015 85.094 305.854 85.971 304.444 86.482C304.369 86.509 304.286 86.511 304.206 86.524C304.21 86.449 304.205 86.373 304.218 86.3C304.264 86.046 304.328 85.795 304.365 85.54C305.021 81.075 305.864 76.635 306.023 72.107C306.124 69.241 306.383 66.375 306.355 63.511C306.328 60.742 306.121 57.964 305.818 55.209C305.473 52.074 304.962 48.956 304.47 45.839C303.837 41.829 302.877 37.895 301.62 34.031C301.099 32.429 300.123 31.34 298.472 30.924C296.916 30.532 295.352 30.17 293.791 29.799C293.704 29.778 293.608 29.793 293.516 29.791C293.535 29.874 293.546 29.959 293.574 30.038C294.08 31.481 294.582 32.926 295.097 34.366C297.79 41.907 299.195 49.701 299.702 57.673C299.949 61.562 300.043 65.455 299.825 69.348C299.65 72.481 299.407 75.609 299.187 78.739C299.182 78.811 299.066 78.942 299.039 78.933C298.945 78.902 298.841 78.838 298.792 78.755C298.743 78.671 298.75 78.552 298.739 78.447C298.464 75.652 297.654 73.017 296.349 70.535C294.441 66.903 291.686 63.989 288.545 61.415C286.508 59.745 284.496 58.055 282.735 56.082C280.634 53.728 279.453 51.017 279.531 47.839C279.595 45.219 280.269 42.707 281.259 40.302C282.84 36.463 286.536 34.423 290.627 35.066C291.956 35.275 293.268 35.592 294.587 35.862C294.768 35.899 294.877 35.92 294.787 35.658C294.203 33.968 293.612 32.281 293.069 30.579C292.838 29.854 292.358 29.497 291.663 29.36L291.67 29.365Z" fill="white"></path>
  <rect width="242" height="108" fill="white"></rect>
</svg>
