<?xml version="1.0" encoding="UTF-8"?>
<svg xmlns="http://www.w3.org/2000/svg" width="207" height="119" viewBox="0 0 207 119" fill="none">
  <path d="M0.815567 113.098H207.24V118.968H0L0.815567 113.098Z" fill="#009BD9"></path>
  <path d="M207 108.33H1.54443L16.5952 0H207V108.33ZM81.9087 62.751C77.4656 62.751 75.0919 63.5792 74.5122 67.8564C74.181 70.4506 74.8989 72.2723 77.769 73.459L81.3843 74.9219C82.571 75.3634 82.9297 75.6395 82.7642 76.9365C82.5158 78.5924 81.7707 78.8965 79.2593 78.8965C78.4313 78.8965 76.8306 78.8406 73.3257 78.7578L72.8843 81.7666C75.6164 82.3737 78.1006 82.5117 79.4253 82.5117C84.4754 82.5117 86.3792 81.4621 86.9312 77.1846C87.2898 74.3422 86.655 72.714 83.647 71.5273L80.2251 70.2031C78.8453 69.6788 78.5144 69.4024 78.7075 68.1055C78.9835 66.3116 79.7837 66.2566 81.7983 66.2842C83.8406 66.2842 86.0487 66.311 87.7046 66.3662L88.1177 63.5244C86.1307 62.9449 83.868 62.751 81.9087 62.751ZM178.339 62.751C173.896 62.751 171.523 63.5792 170.943 67.8564C170.612 70.4506 171.33 72.2723 174.2 73.459L177.815 74.9219C179.001 75.3634 179.36 75.6396 179.195 76.9365C178.946 78.5923 178.201 78.8965 175.69 78.8965C174.862 78.8965 173.261 78.8406 169.756 78.7578L169.315 81.7666C172.047 82.3736 174.53 82.5117 175.855 82.5117C180.905 82.5117 182.81 81.4622 183.362 77.1846C183.72 74.3422 183.086 72.714 180.078 71.5273L176.656 70.2031C175.276 69.6788 174.945 69.4025 175.138 68.1055C175.414 66.3116 176.214 66.2566 178.229 66.2842C180.271 66.2842 182.479 66.311 184.134 66.3662L184.548 63.5244C182.561 62.9449 180.299 62.751 178.339 62.751ZM48.2397 62.8613C46.2251 62.8613 43.4094 62.9724 41.4224 63.1104L38.7456 82.1523C41.0086 82.2903 43.6029 82.4014 45.9487 82.4014C52.0478 82.4014 54.4215 81.021 55.5806 72.7969C56.6568 65.1525 54.3386 62.8614 48.2397 62.8613ZM63.9907 63.0273C61.3415 63.0273 59.7683 64.4623 59.437 66.7803L57.9185 77.6543C57.5598 80.4139 58.9401 82.2354 62.1138 82.2354C64.7907 82.2354 67.9371 82.235 70.3657 81.959L70.4761 78.8408H63.438C62.3897 78.8407 62.0589 78.4544 62.1968 77.4336L62.6929 73.7627H70.2271L70.6138 70.7822H63.1069L63.521 67.9121C63.659 66.7807 64.0731 66.4219 65.1216 66.4219H72.2417L72.7661 63.3311C70.2549 63.0551 67.0262 63.0273 63.9907 63.0273ZM117.461 63.0273C114.812 63.0273 113.239 64.4623 112.908 66.7803L111.389 77.6543C111.03 80.4139 112.411 82.2354 115.584 82.2354C118.261 82.2354 121.408 82.235 123.836 81.959L123.947 78.8408H116.909C115.86 78.8407 115.53 78.4544 115.667 77.4336L116.164 73.7627H123.698L124.084 70.7822H116.578L116.992 67.9121C117.13 66.7807 117.544 66.4219 118.592 66.4219H125.712L126.237 63.3311C123.726 63.0551 120.497 63.0273 117.461 63.0273ZM95.7212 63.1104L95.2515 66.5322H100.91L98.7017 82.1523H102.924L105.104 66.5322H110.79L111.258 63.1104H95.7212ZM134.386 63.1104C133.696 63.1104 133.116 63.4687 132.868 64.1309L124.865 82.1523H129.252L131.294 77.1846H137.863L138.498 82.1523H142.693L139.712 64.2969C139.657 63.6345 139.05 63.1104 138.36 63.1104H134.386ZM149.081 63.1104C148.059 63.1104 147.59 63.5795 147.424 64.6006L144.25 82.1523H148.225L150.958 66.3945H151.426L152.779 78.123C152.862 79.0062 153.414 79.5303 154.352 79.5303H157.112C158.05 79.5302 158.602 79.1721 158.906 78.2617L163.404 66.3945H163.873L162.217 82.1523H166.191L167.902 64.7383C168.012 63.7449 167.461 63.1105 166.44 63.1104H162.382C161.444 63.138 160.892 63.4966 160.588 64.4072L157.001 74.1221C156.698 74.9499 156.421 75.7498 156.118 76.7432H155.732C155.732 75.805 155.704 74.9496 155.593 74.0391L154.517 64.5449C154.434 63.6344 153.937 63.1104 153.027 63.1104H149.081ZM48.1011 66.1455C51.33 66.1455 51.9373 67.1119 51.1646 72.4658C50.3918 78.1782 49.1778 79.0888 45.894 79.0889C45.1765 79.0889 44.293 79.0615 43.3823 79.0615L45.2036 66.1738L48.1011 66.1455ZM136.539 66.2285C136.566 66.8357 136.593 67.471 136.676 68.0781L137.421 73.8457H132.674L135.076 68.0498C135.324 67.4427 135.545 66.7804 135.738 66.2285H136.539ZM101.778 29.957C99.7632 29.957 96.9475 30.0671 94.9604 30.2051L92.2837 49.2471C94.5467 49.3851 97.141 49.4961 99.4868 49.4961C105.586 49.4961 107.96 48.1157 109.119 39.8916C110.195 32.2475 107.877 29.9571 101.778 29.957ZM65.3511 30.1221C62.7019 30.1222 61.1285 31.5579 60.7974 33.876L59.2798 44.749C58.921 47.5088 60.3014 49.3301 63.4751 49.3301C66.1518 49.3301 69.2976 49.3306 71.7261 49.0547L71.8364 45.9355H64.7993C63.7507 45.9355 63.4192 45.5494 63.5571 44.5283L64.0542 40.8574H71.5884L71.9751 37.877H64.4683L64.8823 35.0068C65.0203 33.8756 65.4343 33.5166 66.4829 33.5166H73.603L74.1274 30.4258C71.6161 30.1498 68.3868 30.1221 65.3511 30.1221ZM117.529 30.1221C114.879 30.1221 113.306 31.5578 112.975 33.876L111.457 44.749C111.098 47.5088 112.478 49.3301 115.652 49.3301C118.329 49.3301 121.475 49.3307 123.904 49.0547L124.014 45.9355H116.976C115.928 45.9355 115.597 45.5493 115.735 44.5283L116.231 40.8574H123.765L124.152 37.877H116.645L117.059 35.0068C117.197 33.8756 117.611 33.5167 118.66 33.5166H125.78L126.304 30.4258C123.793 30.1498 120.564 30.1221 117.529 30.1221ZM155.044 30.1221C152.395 30.1221 150.822 31.5578 150.491 33.876L148.972 44.749C148.613 47.5088 149.994 49.3301 153.167 49.3301C155.844 49.3301 158.991 49.3307 161.419 49.0547L161.53 45.9355H154.492C153.443 45.9354 153.113 45.5493 153.25 44.5283L153.747 40.8574H161.281L161.667 37.877H154.161L154.575 35.0068C154.713 33.8756 155.127 33.5167 156.175 33.5166H163.295L163.82 30.4258C161.309 30.1499 158.08 30.1221 155.044 30.1221ZM174.949 30.2051L172.934 44.9424C172.52 47.7296 174.149 49.33 176.826 49.3301C179.503 49.3301 182.401 49.3031 184.83 49.0547L184.912 45.8252H178.399C177.267 45.8252 177.046 45.3287 177.157 44.418L179.171 30.2051H174.949ZM33.5366 30.2051L34.1167 48.0059C34.1168 48.6957 34.7789 49.2471 35.5239 49.2471H39.5259C40.2984 49.247 40.8774 48.861 41.0981 48.1436L44.8794 35.6973C45.1001 34.9246 45.321 34.0415 45.5142 33.2412H46.0386C46.011 34.069 46.0386 34.8145 46.0386 35.6699L46.397 47.9785C46.4248 48.6958 47.0602 49.2471 47.8052 49.2471H51.7788C52.5239 49.2471 53.1039 48.8608 53.3247 48.1709L58.8989 30.2051H54.6216L50.979 43.3965C50.7307 44.2795 50.4817 45.3835 50.2886 46.2666H49.7095C49.737 45.3837 49.7087 44.4181 49.6812 43.5352L49.1567 31.585C49.1567 30.8123 48.6052 30.2051 47.8325 30.2051H44.272C43.4444 30.2052 42.8922 30.6741 42.6714 31.4189L39.0015 43.3418C38.7531 44.2248 38.449 45.2456 38.2007 46.2666H37.6489C37.6765 45.2456 37.7319 44.3347 37.7319 43.5068V30.2051H33.5366ZM84.3188 29.957C81.2555 29.957 79.5438 29.9843 77.2808 30.2051L74.604 49.2471H78.7163L79.7651 41.7959L82.9106 41.8242C83.9318 41.8242 84.3732 42.1551 84.5112 43.3418L85.395 49.2471H89.6997L88.7065 43.3965C88.4029 41.4373 87.4642 40.72 86.4155 40.4717L86.4438 40.3057C89.3137 39.9744 90.39 38.2356 90.7212 35.752C91.3282 31.3091 88.7617 29.9571 84.3188 29.957ZM133.304 30.2051L132.834 33.627H138.493L136.285 49.2471H140.507L142.687 33.627H148.373L148.841 30.2051H133.304ZM166.974 30.2051L164.296 49.2471H168.519L171.196 30.2051H166.974ZM101.639 33.2412C104.868 33.2412 105.475 34.2067 104.703 39.5605C103.93 45.2733 102.715 46.1846 99.4312 46.1846C98.7137 46.1846 97.8309 46.1563 96.9204 46.1562L98.7417 33.2686L101.639 33.2412ZM84.2358 33.1855C86.2503 33.1856 86.8018 33.7931 86.5259 35.6973C86.1947 37.9325 85.3945 38.5674 83.2144 38.5674H80.2339L80.979 33.2129L84.2358 33.1855Z" fill="#009BD9"></path>
</svg>
