<?xml version="1.0" encoding="UTF-8"?>
<svg xmlns="http://www.w3.org/2000/svg" width="20" height="20" viewBox="0 0 20 20" fill="none">
  <g clip-path="url(#clip0_397_542)">
    <path d="M14.4746 1.89053C14.346 1.80096 14.1873 1.76583 14.033 1.7928C13.8786 1.81976 13.7412 1.90664 13.6506 2.03449C13.5601 2.16234 13.5237 2.3208 13.5495 2.47535C13.5753 2.62989 13.6611 2.76798 13.7882 2.85953L16.282 4.62574C16.4105 4.71531 16.5693 4.75044 16.7236 4.72347C16.8779 4.6965 17.0154 4.60963 17.1059 4.48178C17.1965 4.35393 17.2328 4.19546 17.2071 4.04092C17.1813 3.88638 17.0955 3.74829 16.9683 3.65674L14.4746 1.89053ZM5.21209 2.85953C5.33924 2.76798 5.42505 2.62989 5.45082 2.47535C5.47659 2.3208 5.44023 2.16234 5.34967 2.03449C5.25911 1.90664 5.12168 1.81976 4.96734 1.7928C4.81301 1.76583 4.65427 1.80096 4.52572 1.89053L2.03197 3.65674C1.90482 3.74829 1.81901 3.88638 1.79325 4.04092C1.76748 4.19546 1.80383 4.35393 1.89439 4.48178C1.98496 4.60963 2.12238 4.6965 2.27672 4.72347C2.43105 4.75044 2.58979 4.71531 2.71834 4.62574L5.21209 2.85953ZM2.57268 10.2917C2.57268 8.45452 3.30249 6.69259 4.60157 5.39351C5.90065 4.09443 7.66258 3.36461 9.49976 3.36461C11.3369 3.36461 13.0989 4.09443 14.3979 5.39351C15.697 6.69259 16.4268 8.45452 16.4268 10.2917C16.4268 12.1289 15.697 13.8908 14.3979 15.1899C13.0989 16.489 11.3369 17.2188 9.49976 17.2188C7.66258 17.2188 5.90065 16.489 4.60157 15.1899C3.30249 13.8908 2.57268 12.1289 2.57268 10.2917ZM10.0935 6.7292C10.0935 6.57172 10.031 6.4207 9.9196 6.30935C9.80825 6.198 9.65723 6.13545 9.49976 6.13545C9.34229 6.13545 9.19127 6.198 9.07992 6.30935C8.96857 6.4207 8.90601 6.57172 8.90601 6.7292V10.6875C8.90601 10.8854 9.00497 11.0715 9.17043 11.1815L11.5454 12.7649C11.6103 12.8091 11.6833 12.8401 11.7602 12.856C11.8371 12.8718 11.9164 12.8723 11.9934 12.8573C12.0705 12.8424 12.1439 12.8122 12.2092 12.7687C12.2746 12.7252 12.3307 12.6692 12.3742 12.6038C12.4178 12.5385 12.4479 12.4652 12.463 12.3881C12.478 12.311 12.4776 12.2318 12.4618 12.1548C12.4459 12.0779 12.415 12.0049 12.3708 11.94C12.3266 11.8752 12.2699 11.8197 12.2041 11.7769L10.0935 10.3701V6.7292Z" fill="black"></path>
  </g>
  <defs>
    <clipPath id="clip0_397_542">
      <rect width="20" height="20" fill="white"></rect>
    </clipPath>
  </defs>
</svg>
